{
copyright = "Copyright (c) 2015, Cadson Demak (info@cadsondemak.com)";
customParameters = (
{
name = vendorID;
value = CDK;
},
{
name = description;
value = "Copyright (c) 2015, Cadson Demak (info@cadsondemak.com)";
},
{
name = license;

glyphs = (
{
glyphname = A;
lastChange = "2015-11-25 04:29:22 +0000";
layers = (
{
layerId = "9971B372-118E-4AC7-9904-5BD2E656A77C";
name = Regular;
paths = (
{
closed = 1;
nodes = (
"157 0 LINE",
"221 166 LINE",
"480 166 LINE",
"544 0 LINE",
"656 0 LINE",
"412 644 LINE",
"290 644 LINE",
"44 0 LINE"
);
},
{
closed = 1;
nodes = (
"350 545 LINE",
"462 250 LINE",
"238 250 LINE"
);
}
);
width = 700;
}
);
leftKerningGroup = A;
note = A;
rightKerningGroup = A;
unicode = 0041;
},
{
glyphname = Aacute;
lastChange = "2015-11-25 04:29:22 +0000";
layers = (
{
layerId = "9971B372-118E-4AC7-9904-5BD2E656A77C";
name = Regular;
paths = (
{
closed = 1;
nodes = (
"157 0 LINE",
"221 166 LINE",
"480 166 LINE",
"544 0 LINE",
"656 0 LINE",
"412 644 LINE",
"290 644 LINE",
"44 0 LINE"
);
},
{
closed = 1;
nodes = (
"350 545 LINE",
"462 250 LINE",
"238 250 LINE"
);
},
{
closed = 1;
nodes = (
"397 688 LINE",
"481 865 LINE",
"385 865 LINE",
"310 688 LINE"
);
}
);
width = 700;
}
);
leftKerningGroup = A;
note = Aacute;
rightKerningGroup = A;
unicode = 00C1;
},
{
glyphname = Abreve;
lastChange = "2015-11-25 04:29:22 +0000";
layers = (
{
layerId = "9971B372-118E-4AC7-9904-5BD2E656A77C";
name = Regular;
paths = (
{
closed = 1;
nodes = (
"157 0 LINE",
"221 166 LINE",
"480 166 LINE",
"544 0 LINE",
"656 0 LINE",
"412 644 LINE",
"290 644 LINE",
"44 0 LINE"
);
},
{
closed = 1;
nodes = (
"350 545 LINE",
"462 250 LINE",
"238 250 LINE"
);
},
{
closed = 1;
nodes = (
"438 688 OFFCURVE",
"493 743 OFFCURVE",
"493 829 CURVE",
"419 829 LINE",
"419 783 OFFCURVE",
"394 753 OFFCURVE",
"349 753 CURVE SMOOTH",
"306 753 OFFCURVE",
"282 783 OFFCURVE",
"282 829 CURVE",
"208 829 LINE",
"208 743 OFFCURVE",
"261 688 OFFCURVE",
"349 688 CURVE SMOOTH"
);
}
);
width = 700;
}
);
leftKerningGroup = A;
note = Abreve;
rightKerningGroup = A;
unicode = 0102;
},
{
glyphname = Abreveacute;
lastChange = "2015-11-25 04:29:22 +0000";
layers = (
{
layerId = "9971B372-118E-4AC7-9904-5BD2E656A77C";
name = Regular;
paths = (
{
closed = 1;
nodes = (
"157 0 LINE",
"221 166 LINE",
"480 166 LINE",
"544 0 LINE",
"656 0 LINE",
"412 644 LINE",
"290 644 LINE",
"44 0 LINE"
);
},
{
closed = 1;
nodes = (
"350 545 LINE",
"462 250 LINE",
"238 250 LINE"
);
},
{
closed = 1;
nodes = (
"437 688 OFFCURVE",
"506 729 OFFCURVE",
"506 836 CURVE",
"440 836 LINE",
"440 777 OFFCURVE",
"405 747 OFFCURVE",
"350 747 CURVE SMOOTH",
"295 747 OFFCURVE",
"260 777 OFFCURVE",
"260 836 CURVE",
"194 836 LINE",
"194 729 OFFCURVE",
"263 688 OFFCURVE",
"350 688 CURVE SMOOTH"
);
},
{
closed = 1;
nodes = (
"380 805 LINE",
"451 938 LINE",
"367 938 LINE",
"303 805 LINE"
);
}
);
width = 700;
}
);
leftKerningGroup = A;
note = Abreveacute;
rightKerningGroup = A;
unicode = 1EAE;
},
{
glyphname = Abrevedotbelow;
lastChange = "2015-11-25 04:29:22 +0000";
layers = (
{
layerId = "9971B372-118E-4AC7-9904-5BD2E656A77C";
name = Regular;
paths = (
{
closed = 1;
nodes = (
"157 0 LINE",
"221 166 LINE",
"480 166 LINE",
"544 0 LINE",
"656 0 LINE",
"412 644 LINE",
"290 644 LINE",
"44 0 LINE"
);
},
{
closed = 1;
nodes = (
"397 -173 LINE",
"397 -85 LINE",
"303 -85 LINE",
"303 -173 LINE"
);
},
{
closed = 1;
nodes = (
"350 545 LINE",
"462 250 LINE",
"238 250 LINE"
);
},
{
closed = 1;
nodes = (
"437 688 OFFCURVE",
"492 743 OFFCURVE",
"492 829 CURVE",
"418 829 LINE",
"418 783 OFFCURVE",
"393 753 OFFCURVE",
"348 753 CURVE SMOOTH",
"305 753 OFFCURVE",
"281 783 OFFCURVE",
"281 829 CURVE",
"207 829 LINE",
"207 743 OFFCURVE",
"260 688 OFFCURVE",
"348 688 CURVE SMOOTH"
);
}
);
width = 700;
}
);
leftKerningGroup = A;
note = Abrevedotbelow;
rightKerningGroup = A;
unicode = 1EB6;
},
{
glyphname = Abrevegrave;
lastChange = "2015-11-25 04:29:22 +0000";
layers = (
{
layerId = "9971B372-118E-4AC7-9904-5BD2E656A77C";
name = Regular;
paths = (
{
closed = 1;
nodes = (
"157 0 LINE",
"221 166 LINE",
"480 166 LINE",
"544 0 LINE",
"656 0 LINE",
"412 644 LINE",
"290 644 LINE",
"44 0 LINE"
);
},
{
closed = 1;
nodes = (
"350 545 LINE",
"462 250 LINE",
"238 250 LINE"
);
},
{
closed = 1;
nodes = (
"437 688 OFFCURVE",
"506 729 OFFCURVE",
"506 836 CURVE",
"440 836 LINE",
"440 777 OFFCURVE",
"405 747 OFFCURVE",
"350 747 CURVE SMOOTH",
"295 747 OFFCURVE",
"260 777 OFFCURVE",
"260 836 CURVE",
"194 836 LINE",
"194 729 OFFCURVE",
"263 688 OFFCURVE",
"350 688 CURVE SMOOTH"
);
},
{
closed = 1;
nodes = (
"397 805 LINE",
"333 938 LINE",
"249 938 LINE",
"320 805 LINE"
);
}
);
width = 700;
}
);
leftKerningGroup = A;
note = Abrevegrave;
rightKerningGroup = A;
unicode = 1EB0;
},
{
glyphname = Abrevehookabove;
lastChange = "2015-11-25 04:29:22 +0000";
layers = (
{
layerId = "9971B372-118E-4AC7-9904-5BD2E656A77C";
name = Regular;
paths = (
{
closed = 1;
nodes = (
"157 0 LINE",
"221 166 LINE",
"480 166 LINE",
"544 0 LINE",
"656 0 LINE",
"412 644 LINE",
"290 644 LINE",
"44 0 LINE"
);
},
{
closed = 1;
nodes = (
"350 545 LINE",
"462 250 LINE",
"238 250 LINE"
);
},
{
closed = 1;
nodes = (
"437 688 OFFCURVE",
"506 729 OFFCURVE",
"506 836 CURVE",
"440 836 LINE",
"440 777 OFFCURVE",
"405 747 OFFCURVE",
"350 747 CURVE SMOOTH",
"295 747 OFFCURVE",
"260 777 OFFCURVE",
"260 836 CURVE",
"194 836 LINE",
"194 729 OFFCURVE",
"263 688 OFFCURVE",
"350 688 CURVE SMOOTH"
);
},
{
closed = 1;
nodes = (
"382 810 LINE",
"382 843 LINE",
"438 853 OFFCURVE",
"460 875 OFFCURVE",
"460 919 CURVE SMOOTH",
"460 966 OFFCURVE",
"424 996 OFFCURVE",
"361 996 CURVE SMOOTH",
"330 996 OFFCURVE",
"300 991 OFFCURVE",
"280 984 CURVE",
"280 933 LINE",
"296 940 OFFCURVE",
"314 945 OFFCURVE",
"335 945 CURVE SMOOTH",
"370 945 OFFCURVE",
"387 938 OFFCURVE",
"387 912 CURVE SMOOTH",
"387 886 OFFCURVE",
"370 872 OFFCURVE",
"306 869 CURVE",
"306 810 LINE"
);
}
);
width = 700;
}
);
leftKerningGroup = A;
note = Abrevehookabove;
rightKerningGroup = A;
unicode = 1EB2;
},
{
glyphname = Abrevetilde;
lastChange = "2015-11-25 04:29:22 +0000";
layers = (
{
layerId = "9971B372-118E-4AC7-9904-5BD2E656A77C";
name = Regular;
paths = (
{
closed = 1;
nodes = (
"157 0 LINE",
"221 166 LINE",
"480 166 LINE",
"544 0 LINE",
"656 0 LINE",
"412 644 LINE",
"290 644 LINE",
"44 0 LINE"
);
},
{
closed = 1;
nodes = (
"350 545 LINE",
"462 250 LINE",
"238 250 LINE"
);
},
{
closed = 1;
nodes = (
"437 688 OFFCURVE",
"506 729 OFFCURVE",
"506 836 CURVE",
"440 836 LINE",
"440 777 OFFCURVE",
"405 747 OFFCURVE",
"350 747 CURVE SMOOTH",
"295 747 OFFCURVE",
"260 777 OFFCURVE",
"260 836 CURVE",
"194 836 LINE",
"194 729 OFFCURVE",
"263 688 OFFCURVE",
"350 688 CURVE SMOOTH"
);
},
{
closed = 1;
nodes = (
"462 857 OFFCURVE",
"491 869 OFFCURVE",
"504 886 CURVE",
"504 958 LINE",
"487 934 OFFCURVE",
"461 922 OFFCURVE",
"427 922 CURVE SMOOTH",
"376 922 OFFCURVE",
"336 960 OFFCURVE",
"280 960 CURVE SMOOTH",
"248 960 OFFCURVE",
"215 948 OFFCURVE",
"198 931 CURVE",
"198 860 LINE",
"220 884 OFFCURVE",
"248 894 OFFCURVE",
"281 894 CURVE SMOOTH",
"326 894 OFFCURVE",
"375 857 OFFCURVE",
"428 857 CURVE SMOOTH"
);
}
);
width = 700;
}
);
leftKerningGroup = A;
note = Abrevetilde;
rightKerningGroup = A;
unicode = 1EB4;
},
{
glyphname = Acaron;
lastChange = "2015-11-25 04:29:22 +0000";
layers = (
{
layerId = "9971B372-118E-4AC7-9904-5BD2E656A77C";
name = Regular;
paths = (
{
closed = 1;
nodes = (
"157 0 LINE",
"221 166 LINE",
"480 166 LINE",
"544 0 LINE",
"656 0 LINE",
"412 644 LINE",
"290 644 LINE",
"44 0 LINE"
);
},
{
closed = 1;
nodes = (
"350 545 LINE",
"462 250 LINE",
"238 250 LINE"
);
},
{
closed = 1;
nodes = (
"387 687 LINE",
"512 848 LINE",
"425 848 LINE",
"349 747 LINE",
"275 848 LINE",
"186 848 LINE",
"311 687 LINE"
);
}
);
width = 700;
}
);
leftKerningGroup = A;
note = Acaron;
rightKerningGroup = A;
unicode = 01CD;
},
{
glyphname = Acircumflex;
lastChange = "2015-11-25 04:29:22 +0000";
layers = (
{
layerId = "9971B372-118E-4AC7-9904-5BD2E656A77C";
name = Regular;
paths = (
{
closed = 1;
nodes = (
"157 0 LINE",
"221 166 LINE",
"480 166 LINE",
"544 0 LINE",
"656 0 LINE",
"412 644 LINE",
"290 644 LINE",
"44 0 LINE"
);
},
{
closed = 1;
nodes = (
"350 545 LINE",
"462 250 LINE",
"238 250 LINE"
);
},
{
closed = 1;
nodes = (
"275 687 LINE",
"349 788 LINE",
"425 687 LINE",
"512 687 LINE",
"387 848 LINE",
"311 848 LINE",
"186 687 LINE"
);
}
);
width = 700;
}
);
leftKerningGroup = A;
note = Acircumflex;
rightKerningGroup = A;
unicode = 00C2;
},
{
glyphname = Acircumflexacute;
lastChange = "2015-11-25 04:29:22 +0000";
layers = (
{
layerId = "9971B372-118E-4AC7-9904-5BD2E656A77C";
name = Regular;
paths = (
{
closed = 1;
nodes = (
"157 0 LINE",
"221 166 LINE",
"480 166 LINE",
"544 0 LINE",
"656 0 LINE",
"412 644 LINE",
"290 644 LINE",
"44 0 LINE"
);
},
{
closed = 1;
nodes = (
"350 545 LINE",
"462 250 LINE",
"238 250 LINE"
);
},
{
closed = 1;
nodes = (
"275 687 LINE",
"345 769 LINE",
"417 687 LINE",
"506 687 LINE",
"387 814 LINE",
"303 814 LINE",
"184 687 LINE"
);
},
{
closed = 1;
nodes = (
"513 800 LINE",
"583 933 LINE",
"500 933 LINE",
"436 800 LINE"
);
}
);
width = 700;
}
);
leftKerningGroup = A;
note = Acircumflexacute;
rightKerningGroup = A;
unicode = 1EA4;
},
{
glyphname = Acircumflexdotbelow;
lastChange = "2015-11-25 04:29:22 +0000";
layers = (
{
layerId = "9971B372-118E-4AC7-9904-5BD2E656A77C";
name = Regular;
paths = (
{
closed = 1;
nodes = (
"157 0 LINE",
"221 166 LINE",
"480 166 LINE",
"544 0 LINE",
"656 0 LINE",
"412 644 LINE",
"290 644 LINE",
"44 0 LINE"
);
},
{
closed = 1;
nodes = (
"397 -173 LINE",
"397 -85 LINE",
"303 -85 LINE",
"303 -173 LINE"
);
},
{
closed = 1;
nodes = (
"350 545 LINE",
"462 250 LINE",
"238 250 LINE"
);
},
{
closed = 1;
nodes = (
"275 687 LINE",
"349 788 LINE",
"425 687 LINE",
"512 687 LINE",
"387 848 LINE",
"311 848 LINE",
"186 687 LINE"
);
}
);
width = 700;
}
);
leftKerningGroup = A;
note = Acircumflexdotbelow;
rightKerningGroup = A;
unicode = 1EAC;
},
{
glyphname = Acircumflexgrave;
lastChange = "2015-11-25 04:29:22 +0000";
layers = (
{
layerId = "9971B372-118E-4AC7-9904-5BD2E656A77C";
name = Regular;
paths = (
{
closed = 1;
nodes = (
"157 0 LINE",
"221 166 LINE",
"480 166 LINE",
"544 0 LINE",
"656 0 LINE",
"412 644 LINE",
"290 644 LINE",
"44 0 LINE"
);
},
{
closed = 1;
nodes = (
"350 545 LINE",
"462 250 LINE",
"238 250 LINE"
);
},
{
closed = 1;
nodes = (
"257 800 LINE",
"193 933 LINE",
"109 933 LINE",
"180 800 LINE"
);
},
{
closed = 1;
nodes = (
"276 687 LINE",
"347 769 LINE",
"418 687 LINE",
"508 687 LINE",
"390 814 LINE",
"305 814 LINE",
"187 687 LINE"
);
}
);
width = 700;
}
);
leftKerningGroup = A;
note = Acircumflexgrave;
rightKerningGroup = A;
unicode = 1EA6;
},
{
glyphname = Acircumflexhookabove;
lastChange = "2015-11-25 04:29:22 +0000";
layers = (
{
layerId = "9971B372-118E-4AC7-9904-5BD2E656A77C";
name = Regular;
paths = (
{
closed = 1;
nodes = (
"157 0 LINE",
"221 166 LINE",
"480 166 LINE",
"544 0 LINE",
"656 0 LINE",
"412 644 LINE",
"290 644 LINE",
"44 0 LINE"
);
},
{
closed = 1;
nodes = (
"350 545 LINE",
"462 250 LINE",
"238 250 LINE"
);
},
{
closed = 1;
nodes = (
"278 687 LINE",
"349 769 LINE",
"420 687 LINE",
"509 687 LINE",
"391 814 LINE",
"306 814 LINE",
"188 687 LINE"
);
},
{
closed = 1;
nodes = (
"525 779 LINE",
"525 813 LINE",
"579 821 OFFCURVE",
"602 846 OFFCURVE",
"602 890 CURVE SMOOTH",
"602 937 OFFCURVE",
"564 968 OFFCURVE",
"499 968 CURVE SMOOTH",
"466 968 OFFCURVE",
"442 963 OFFCURVE",
"422 956 CURVE",
"422 903 LINE",
"438 910 OFFCURVE",
"456 915 OFFCURVE",
"478 915 CURVE SMOOTH",
"510 915 OFFCURVE",
"525 906 OFFCURVE",
"525 884 CURVE SMOOTH",
"525 860 OFFCURVE",
"512 848 OFFCURVE",
"448 845 CURVE",
"448 779 LINE"
);
}
);
width = 700;
}
);
leftKerningGroup = A;
note = Acircumflexhookabove;
rightKerningGroup = A;
unicode = 1EA8;
},
{
glyphname = Acircumflextilde;
lastChange = "2015-11-25 04:29:22 +0000";
layers = (
{
layerId = "9971B372-118E-4AC7-9904-5BD2E656A77C";
name = Regular;
paths = (
{
closed = 1;
nodes = (
"157 0 LINE",
"221 166 LINE",
"480 166 LINE",
"544 0 LINE",
"656 0 LINE",
"412 644 LINE",
"290 644 LINE",
"44 0 LINE"
);
},
{
closed = 1;
nodes = (
"350 545 LINE",
"462 250 LINE",
"238 250 LINE"
);
},
{
closed = 1;
nodes = (
"279 687 LINE",
"350 769 LINE",
"421 687 LINE",
"510 687 LINE",
"392 814 LINE",
"307 814 LINE",
"189 687 LINE"
);
},
{
closed = 1;
nodes = (
"466 822 OFFCURVE",
"495 835 OFFCURVE",
"508 852 CURVE",
"508 923 LINE",
"491 900 OFFCURVE",
"465 888 OFFCURVE",
"431 888 CURVE SMOOTH",
"380 888 OFFCURVE",
"340 925 OFFCURVE",
"284 925 CURVE SMOOTH",
"252 925 OFFCURVE",
"219 913 OFFCURVE",
"202 896 CURVE",
"202 825 LINE",
"224 850 OFFCURVE",
"252 860 OFFCURVE",
"285 860 CURVE SMOOTH",
"330 860 OFFCURVE",
"379 822 OFFCURVE",
"432 822 CURVE SMOOTH"
);
}
);
width = 700;
}
);
leftKerningGroup = A;
note = Acircumflextilde;
rightKerningGroup = A;
unicode = 1EAA;
},
{
glyphname = Adieresis;
lastChange = "2015-11-25 04:29:22 +0000";
layers = (
{
layerId = "9971B372-118E-4AC7-9904-5BD2E656A77C";
name = Regular;
paths = (
{
closed = 1;
nodes = (
"157 0 LINE",
"221 166 LINE",
"480 166 LINE",
"544 0 LINE",
"656 0 LINE",
"412 644 LINE",
"290 644 LINE",
"44 0 LINE"
);
},
{
closed = 1;
nodes = (
"350 545 LINE",
"462 250 LINE",
"238 250 LINE"
);
},
{
closed = 1;
nodes = (
"302 711 LINE",
"302 797 LINE",
"210 797 LINE",
"210 711 LINE"
);
},
{
closed = 1;
nodes = (
"488 711 LINE",
"488 797 LINE",
"396 797 LINE",
"396 711 LINE"
);
}
);
width = 700;
}
);
leftKerningGroup = A;
note = Adieresis;
rightKerningGroup = A;
unicode = 00C4;
},
{
glyphname = Adotbelow;
lastChange = "2015-11-25 04:29:22 +0000";
layers = (
{
layerId = "9971B372-118E-4AC7-9904-5BD2E656A77C";
name = Regular;
paths = (
{
closed = 1;
nodes = (
"157 0 LINE",
"221 166 LINE",
"480 166 LINE",
"544 0 LINE",
"656 0 LINE",
"412 644 LINE",
"290 644 LINE",
"44 0 LINE"
);
},
{
closed = 1;
nodes = (
"397 -173 LINE",
"397 -85 LINE",
"303 -85 LINE",
"303 -173 LINE"
);
},
{
closed = 1;
nodes = (
"350 545 LINE",
"462 250 LINE",
"238 250 LINE"
);
}
);
width = 700;
}
);
leftKerningGroup = A;
note = Adotbelow;
rightKerningGroup = A;
unicode = 1EA0;
},
{
glyphname = Agrave;
lastChange = "2015-11-25 04:29:22 +0000";
layers = (
{
layerId = "9971B372-118E-4AC7-9904-5BD2E656A77C";
name = Regular;
paths = (
{
closed = 1;
nodes = (
"157 0 LINE",
"221 166 LINE",
"480 166 LINE",
"544 0 LINE",
"656 0 LINE",
"412 644 LINE",
"290 644 LINE",
"44 0 LINE"
);
},
{
closed = 1;
nodes = (
"350 545 LINE",
"462 250 LINE",
"238 250 LINE"
);
},
{
closed = 1;
nodes = (
"386 688 LINE",
"310 865 LINE",
"215 865 LINE",
"298 688 LINE"
);
}
);
width = 700;
}
);
leftKerningGroup = A;
note = Agrave;
rightKerningGroup = A;
unicode = 00C0;
},
{
glyphname = Ahookabove;
lastChange = "2015-11-25 04:29:22 +0000";
layers = (
{
layerId = "9971B372-118E-4AC7-9904-5BD2E656A77C";
name = Regular;
paths = (
{
closed = 1;
nodes = (
"157 0 LINE",
"221 166 LINE",
"480 166 LINE",
"544 0 LINE",
"656 0 LINE",
"412 644 LINE",
"290 644 LINE",
"44 0 LINE"
);
},
{
closed = 1;
nodes = (
"350 545 LINE",
"462 250 LINE",
"238 250 LINE"
);
},
{
closed = 1;
nodes = (
"393 688 LINE",
"393 735 LINE",
"458 745 OFFCURVE",
"481 774 OFFCURVE",
"481 829 CURVE SMOOTH",
"481 886 OFFCURVE",
"437 922 OFFCURVE",
"355 922 CURVE SMOOTH",
"321 922 OFFCURVE",
"284 917 OFFCURVE",
"262 909 CURVE",
"262 850 LINE",
"279 857 OFFCURVE",
"306 862 OFFCURVE",
"326 862 CURVE SMOOTH",
"374 862 OFFCURVE",
"400 850 OFFCURVE",
"400 820 CURVE SMOOTH",
"400 787 OFFCURVE",
"384 774 OFFCURVE",
"308 770 CURVE",
"308 688 LINE"
);
}
);
width = 700;
}
);
leftKerningGroup = A;
note = Ahookabove;
rightKerningGroup = A;
unicode = 1EA2;
},
{
glyphname = Amacron;
lastChange = "2015-11-25 04:29:22 +0000";
layers = (
{
layerId = "9971B372-118E-4AC7-9904-5BD2E656A77C";
name = Regular;
paths = (
{
closed = 1;
nodes = (
"157 0 LINE",
"221 166 LINE",
"480 166 LINE",
"544 0 LINE",
"656 0 LINE",
"412 644 LINE",
"290 644 LINE",
"44 0 LINE"
);
},
{
closed = 1;
nodes = (
"350 545 LINE",
"462 250 LINE",
"238 250 LINE"
);
},
{
closed = 1;
nodes = (
"498 709 LINE",
"498 780 LINE",
"200 780 LINE",
"200 709 LINE"
);
}
);
width = 700;
}
);
leftKerningGroup = A;
note = Amacron;
rightKerningGroup = A;
unicode = 0100;
},
{
glyphname = Aogonek;
lastChange = "2015-11-25 04:29:38 +0000";
layers = (
{
layerId = "9971B372-118E-4AC7-9904-5BD2E656A77C";
name = Regular;
paths = (
{
closed = 1;
nodes = (
"157 0 LINE",
"221 166 LINE",
"480 166 LINE",
"544 0 LINE",
"656 0 LINE",
"412 644 LINE",
"290 644 LINE",
"44 0 LINE"
);
},
{
closed = 1;
nodes = (
"617 -220 OFFCURVE",
"648 -215 OFFCURVE",
"665 -207 CURVE",
"665 -141 LINE",
"653 -148 OFFCURVE",
"632 -152 OFFCURVE",
"615 -152 CURVE SMOOTH",
"585 -152 OFFCURVE",
"568 -143 OFFCURVE",
"568 -112 CURVE SMOOTH",
"568 -72 OFFCURVE",
"594 -33 OFFCURVE",
"637 0 CURVE",
"555 0 LINE",
"510 -31 OFFCURVE",
"481 -80 OFFCURVE",
"481 -131 CURVE SMOOTH",
"481 -193 OFFCURVE",
"531 -220 OFFCURVE",
"588 -220 CURVE SMOOTH"
);
},
{
closed = 1;
nodes = (
"350 545 LINE",
"462 250 LINE",
"238 250 LINE"
);
}
);
width = 700;
}
);
leftKerningGroup = A;
note = Aogonek;
rightKerningGroup = A;
unicode = 0104;
},
{
glyphname = Aring;
lastChange = "2015-11-25 04:29:47 +0000";
layers = (
{
layerId = "9971B372-118E-4AC7-9904-5BD2E656A77C";
name = Regular;
paths = (
{
closed = 1;
nodes = (
"157 0 LINE",
"221 166 LINE",
"480 166 LINE",
"544 0 LINE",
"656 0 LINE",
"412 644 LINE",
"290 644 LINE",
"44 0 LINE"
);
},
{
closed = 1;
nodes = (
"350 545 LINE",
"462 250 LINE",
"238 250 LINE"
);
},
{
closed = 1;
nodes = (
"421 601 OFFCURVE",
"467 651 OFFCURVE",
"467 714 CURVE SMOOTH",
"467 778 OFFCURVE",
"421 828 OFFCURVE",
"349 828 CURVE SMOOTH",
"279 828 OFFCURVE",
"233 778 OFFCURVE",
"233 714 CURVE SMOOTH",
"233 651 OFFCURVE",
"279 601 OFFCURVE",
"349 601 CURVE SMOOTH"
);
},
{
closed = 1;
nodes = (
"314 655 OFFCURVE",
"290 681 OFFCURVE",
"290 714 CURVE SMOOTH",
"290 747 OFFCURVE",
"314 773 OFFCURVE",
"349 773 CURVE SMOOTH",
"386 773 OFFCURVE",
"410 747 OFFCURVE",
"410 714 CURVE SMOOTH",
"410 681 OFFCURVE",
"386 655 OFFCURVE",
"349 655 CURVE SMOOTH"
);
}
);
width = 700;
}
);
leftKerningGroup = A;
note = Aring;
rightKerningGroup = A;
unicode = 00C5;
},
{
glyphname = Aringacute;
lastChange = "2015-11-25 04:30:00 +0000";
layers = (
{
layerId = "9971B372-118E-4AC7-9904-5BD2E656A77C";
name = Regular;
paths = (
{
closed = 1;
nodes = (
"157 0 LINE",
"221 166 LINE",
"480 166 LINE",
"544 0 LINE",
"656 0 LINE",
"412 644 LINE",
"290 644 LINE",
"44 0 LINE"
);
},
{
closed = 1;
nodes = (
"350 545 LINE",
"462 250 LINE",
"238 250 LINE"
);
},
{
closed = 1;
nodes = (
"421 601 OFFCURVE",
"467 651 OFFCURVE",
"467 714 CURVE SMOOTH",
"467 778 OFFCURVE",
"421 828 OFFCURVE",
"349 828 CURVE SMOOTH",
"279 828 OFFCURVE",
"233 778 OFFCURVE",
"233 714 CURVE SMOOTH",
"233 651 OFFCURVE",
"279 601 OFFCURVE",
"349 601 CURVE SMOOTH"
);
},
{
closed = 1;
nodes = (
"314 655 OFFCURVE",
"290 681 OFFCURVE",
"290 714 CURVE SMOOTH",
"290 747 OFFCURVE",
"314 773 OFFCURVE",
"349 773 CURVE SMOOTH",
"386 773 OFFCURVE",
"410 747 OFFCURVE",
"410 714 CURVE SMOOTH",
"410 681 OFFCURVE",
"386 655 OFFCURVE",
"349 655 CURVE SMOOTH"
);
},
{
closed = 1;
nodes = (
"380 853 LINE",
"464 1030 LINE",
"368 1030 LINE",
"293 853 LINE"
);
}
);
width = 700;
}
);
leftKerningGroup = A;
note = Aringacute;
rightKerningGroup = A;
unicode = 01FA;
},
{
glyphname = Atilde;
lastChange = "2015-11-25 04:30:00 +0000";
layers = (
{
layerId = "9971B372-118E-4AC7-9904-5BD2E656A77C";
name = Regular;
paths = (
{
closed = 1;
nodes = (
"157 0 LINE",
"221 166 LINE",
"480 166 LINE",
"544 0 LINE",
"656 0 LINE",
"412 644 LINE",
"290 644 LINE",
"44 0 LINE"
);
},
{
closed = 1;
nodes = (
"350 545 LINE",
"462 250 LINE",
"238 250 LINE"
);
},
{
closed = 1;
nodes = (
"466 695 OFFCURVE",
"496 708 OFFCURVE",
"509 726 CURVE",
"509 806 LINE",
"491 782 OFFCURVE",
"465 769 OFFCURVE",
"429 769 CURVE SMOOTH",
"376 769 OFFCURVE",
"334 808 OFFCURVE",
"276 808 CURVE SMOOTH",
"243 808 OFFCURVE",
"208 796 OFFCURVE",
"191 778 CURVE",
"191 698 LINE",
"214 724 OFFCURVE",
"243 734 OFFCURVE",
"278 734 CURVE SMOOTH",
"324 734 OFFCURVE",
"375 695 OFFCURVE",
"430 695 CURVE SMOOTH"
);
}
);
width = 700;
}
);
leftKerningGroup = A;
note = Atilde;
rightKerningGroup = A;
unicode = 00C3;
},
{
glyphname = AE;
lastChange = "2015-11-25 04:30:10 +0000";
layers = (
{
layerId = "9971B372-118E-4AC7-9904-5BD2E656A77C";
name = Regular;
paths = (
{
closed = 1;
nodes = (
"161 0 LINE",
"225 167 LINE",
"407 167 LINE",
"407 0 LINE",
"802 0 LINE",
"802 84 LINE",
"515 84 LINE",
"515 280 LINE",
"765 280 LINE",
"765 364 LINE",
"515 364 LINE",
"515 559 LINE",
"802 559 LINE",
"802 644 LINE",
"290 644 LINE",
"44 0 LINE"
);
},
{
closed = 1;
nodes = (
"368 561 LINE",
"407 561 LINE",
"407 251 LINE",
"253 251 LINE"
);
}
);
width = 845;
}
);
leftKerningGroup = A;
note = AE;
rightKerningGroup = E;
unicode = 00C6;
},
{
glyphname = AEacute;
lastChange = "2015-11-25 04:30:10 +0000";
layers = (
{
layerId = "9971B372-118E-4AC7-9904-5BD2E656A77C";
name = Regular;
paths = (
{
closed = 1;
nodes = (
"161 0 LINE",
"225 167 LINE",
"407 167 LINE",
"407 0 LINE",
"802 0 LINE",
"802 84 LINE",
"515 84 LINE",
"515 280 LINE",
"765 280 LINE",
"765 364 LINE",
"515 364 LINE",
"515 559 LINE",
"802 559 LINE",
"802 644 LINE",
"290 644 LINE",
"44 0 LINE"
);
},
{
closed = 1;
nodes = (
"368 561 LINE",
"407 561 LINE",
"407 251 LINE",
"253 251 LINE"
);
},
{
closed = 1;
nodes = (
"514 688 LINE",
"598 865 LINE",
"502 865 LINE",
"427 688 LINE"
);
}
);
width = 845;
}
);
leftKerningGroup = A;
note = AEacute;
rightKerningGroup = E;
unicode = 01FC;
},
{
glyphname = B;
lastChange = "2015-10-24 17:36:10 +0000";
layers = (
{
layerId = "9971B372-118E-4AC7-9904-5BD2E656A77C";
name = Regular;
paths = (
{
closed = 1;
nodes = (
"389 0 LINE SMOOTH",
"519 0 OFFCURVE",
"588 61 OFFCURVE",
"588 186 CURVE SMOOTH",
"588 272 OFFCURVE",
"548 313 OFFCURVE",
"486 331 CURVE",
"533 355 OFFCURVE",
"563 402 OFFCURVE",
"563 472 CURVE SMOOTH",
"563 581 OFFCURVE",
"503 644 OFFCURVE",
"375 644 CURVE SMOOTH",
"63 644 LINE",
"63 0 LINE"
);
},
{
closed = 1;
nodes = (
"172 289 LINE",
"355 289 LINE SMOOTH",
"448 289 OFFCURVE",
"478 256 OFFCURVE",
"478 190 CURVE SMOOTH",
"478 109 OFFCURVE",
"443 80 OFFCURVE",
"366 80 CURVE SMOOTH",
"172 80 LINE"
);
},
{
closed = 1;
nodes = (
"172 562 LINE",
"348 562 LINE SMOOTH",
"436 562 OFFCURVE",
"462 529 OFFCURVE",
"462 463 CURVE SMOOTH",
"462 406 OFFCURVE",
"433 369 OFFCURVE",
"360 369 CURVE SMOOTH",
"172 369 LINE"
);
}
);
width = 631;
}
);
note = B;
unicode = 0042;
},
{
glyphname = C;
lastChange = "2015-10-24 17:36:10 +0000";
layers = (
{
layerId = "9971B372-118E-4AC7-9904-5BD2E656A77C";
name = Regular;
paths = (
{
closed = 1;
nodes = (
"440 -10 OFFCURVE",
"500 0 OFFCURVE",
"554 17 CURVE",
"554 113 LINE",
"499 92 OFFCURVE",
"435 82 OFFCURVE",
"374 82 CURVE SMOOTH",
"223 82 OFFCURVE",
"153 161 OFFCURVE",
"153 312 CURVE SMOOTH",
"153 473 OFFCURVE",
"212 561 OFFCURVE",
"372 561 CURVE SMOOTH",
"438 561 OFFCURVE",
"499 549 OFFCURVE",
"553 528 CURVE",
"553 623 LINE",
"499 642 OFFCURVE",
"439 654 OFFCURVE",
"364 654 CURVE SMOOTH",
"144 654 OFFCURVE",
"43 523 OFFCURVE",
"43 312 CURVE SMOOTH",
"43 115 OFFCURVE",
"153 -10 OFFCURVE",
"365 -10 CURVE SMOOTH"
);
}
);
width = 597;
}
);
leftKerningGroup = C;
note = C;
rightKerningGroup = C;
unicode = 0043;
},
{
glyphname = Cacute;
lastChange = "2015-10-24 17:36:10 +0000";
layers = (
{
layerId = "9971B372-118E-4AC7-9904-5BD2E656A77C";
name = Regular;
paths = (
{
closed = 1;
nodes = (
"440 -10 OFFCURVE",
"500 0 OFFCURVE",
"554 17 CURVE",
"554 113 LINE",
"499 92 OFFCURVE",
"435 82 OFFCURVE",
"374 82 CURVE SMOOTH",
"223 82 OFFCURVE",
"153 161 OFFCURVE",
"153 312 CURVE SMOOTH",
"153 473 OFFCURVE",
"212 561 OFFCURVE",
"372 561 CURVE SMOOTH",
"438 561 OFFCURVE",
"499 549 OFFCURVE",
"553 528 CURVE",
"553 623 LINE",
"499 642 OFFCURVE",
"439 654 OFFCURVE",
"364 654 CURVE SMOOTH",
"144 654 OFFCURVE",
"43 523 OFFCURVE",
"43 312 CURVE SMOOTH",
"43 115 OFFCURVE",
"153 -10 OFFCURVE",
"365 -10 CURVE SMOOTH"
);
},
{
closed = 1;
nodes = (
"389 688 LINE",
"473 865 LINE",
"377 865 LINE",
"302 688 LINE"
);
}
);
width = 597;
}
);
leftKerningGroup = C;
note = Cacute;
rightKerningGroup = C;
unicode = 0106;
},
{
glyphname = Ccaron;
lastChange = "2015-10-24 17:36:09 +0000";
layers = (
{
layerId = "9971B372-118E-4AC7-9904-5BD2E656A77C";
name = Regular;
paths = (
{
closed = 1;
nodes = (
"440 -10 OFFCURVE",
"500 0 OFFCURVE",
"554 17 CURVE",
"554 113 LINE",
"499 92 OFFCURVE",
"435 82 OFFCURVE",
"374 82 CURVE SMOOTH",
"223 82 OFFCURVE",
"153 161 OFFCURVE",
"153 312 CURVE SMOOTH",
"153 473 OFFCURVE",
"212 561 OFFCURVE",
"372 561 CURVE SMOOTH",
"438 561 OFFCURVE",
"499 549 OFFCURVE",
"553 528 CURVE",
"553 623 LINE",
"499 642 OFFCURVE",
"439 654 OFFCURVE",
"364 654 CURVE SMOOTH",
"144 654 OFFCURVE",
"43 523 OFFCURVE",
"43 312 CURVE SMOOTH",
"43 115 OFFCURVE",
"153 -10 OFFCURVE",
"365 -10 CURVE SMOOTH"
);
},
{
closed = 1;
nodes = (
"402 687 LINE",
"527 848 LINE",
"440 848 LINE",
"364 747 LINE",
"290 848 LINE",
"201 848 LINE",
"326 687 LINE"
);
}
);
width = 597;
}
);
leftKerningGroup = C;
note = Ccaron;
rightKerningGroup = C;
unicode = 010C;
},
{
glyphname = Ccedilla;
lastChange = "2015-10-24 17:36:10 +0000";
layers = (
{
layerId = "9971B372-118E-4AC7-9904-5BD2E656A77C";
name = Regular;
paths = (
{
closed = 1;
nodes = (
"440 -10 OFFCURVE",
"500 0 OFFCURVE",
"554 17 CURVE",
"554 113 LINE",
"499 92 OFFCURVE",
"435 82 OFFCURVE",
"374 82 CURVE SMOOTH",
"223 82 OFFCURVE",
"153 161 OFFCURVE",
"153 312 CURVE SMOOTH",
"153 473 OFFCURVE",
"212 561 OFFCURVE",
"372 561 CURVE SMOOTH",
"438 561 OFFCURVE",
"499 549 OFFCURVE",
"553 528 CURVE",
"553 623 LINE",
"499 642 OFFCURVE",
"439 654 OFFCURVE",
"364 654 CURVE SMOOTH",
"144 654 OFFCURVE",
"43 523 OFFCURVE",
"43 312 CURVE SMOOTH",
"43 115 OFFCURVE",
"153 -10 OFFCURVE",
"365 -10 CURVE SMOOTH"
);
},
{
closed = 1;
nodes = (
"438 -240 OFFCURVE",
"484 -203 OFFCURVE",
"484 -137 CURVE SMOOTH",
"484 -81 OFFCURVE",
"447 -47 OFFCURVE",
"375 -47 CURVE",
"391 0 LINE",
"318 0 LINE",
"289 -95 LINE",
"329 -95 LINE SMOOTH",
"381 -95 OFFCURVE",
"410 -99 OFFCURVE",
"410 -136 CURVE SMOOTH",
"410 -173 OFFCURVE",
"385 -181 OFFCURVE",
"325 -181 CURVE SMOOTH",
"304 -181 OFFCURVE",
"281 -178 OFFCURVE",
"263 -173 CURVE",
"263 -232 LINE",
"278 -236 OFFCURVE",
"314 -240 OFFCURVE",
"336 -240 CURVE SMOOTH"
);
}
);
width = 597;
}
);
leftKerningGroup = C;
note = Ccedilla;
rightKerningGroup = C;
unicode = 00C7;
},
{
glyphname = Ccircumflex;
lastChange = "2015-10-24 17:36:10 +0000";
layers = (
{
layerId = "9971B372-118E-4AC7-9904-5BD2E656A77C";
name = Regular;
paths = (
{
closed = 1;
nodes = (
"440 -10 OFFCURVE",
"500 0 OFFCURVE",
"554 17 CURVE",
"554 113 LINE",
"499 92 OFFCURVE",
"435 82 OFFCURVE",
"374 82 CURVE SMOOTH",
"223 82 OFFCURVE",
"153 161 OFFCURVE",
"153 312 CURVE SMOOTH",
"153 473 OFFCURVE",
"212 561 OFFCURVE",
"372 561 CURVE SMOOTH",
"438 561 OFFCURVE",
"499 549 OFFCURVE",
"553 528 CURVE",
"553 623 LINE",
"499 642 OFFCURVE",
"439 654 OFFCURVE",
"364 654 CURVE SMOOTH",
"144 654 OFFCURVE",
"43 523 OFFCURVE",
"43 312 CURVE SMOOTH",
"43 115 OFFCURVE",
"153 -10 OFFCURVE",
"365 -10 CURVE SMOOTH"
);
},
{
closed = 1;
nodes = (
"262 687 LINE",
"336 788 LINE",
"412 687 LINE",
"499 687 LINE",
"374 848 LINE",
"298 848 LINE",
"173 687 LINE"
);
}
);
width = 597;
}
);
leftKerningGroup = C;
note = Ccircumflex;
rightKerningGroup = C;
unicode = 0108;
},
{
glyphname = Cdotaccent;
lastChange = "2015-10-24 17:36:10 +0000";
layers = (
{
layerId = "9971B372-118E-4AC7-9904-5BD2E656A77C";
name = Regular;
paths = (
{
closed = 1;
nodes = (
"440 -10 OFFCURVE",
"500 0 OFFCURVE",
"554 17 CURVE",
"554 113 LINE",
"499 92 OFFCURVE",
"435 82 OFFCURVE",
"374 82 CURVE SMOOTH",
"223 82 OFFCURVE",
"153 161 OFFCURVE",
"153 312 CURVE SMOOTH",
"153 473 OFFCURVE",
"212 561 OFFCURVE",
"372 561 CURVE SMOOTH",
"438 561 OFFCURVE",
"499 549 OFFCURVE",
"553 528 CURVE",
"553 623 LINE",
"499 642 OFFCURVE",
"439 654 OFFCURVE",
"364 654 CURVE SMOOTH",
"144 654 OFFCURVE",
"43 523 OFFCURVE",
"43 312 CURVE SMOOTH",
"43 115 OFFCURVE",
"153 -10 OFFCURVE",
"365 -10 CURVE SMOOTH"
);
},
{
closed = 1;
nodes = (
"400 711 LINE",
"400 799 LINE",
"308 799 LINE",
"308 711 LINE"
);
}
);
width = 597;
}
);
leftKerningGroup = C;
note = Cdotaccent;
rightKerningGroup = C;
unicode = 010A;
},
{
glyphname = D;
lastChange = "2015-10-24 17:36:10 +0000";
layers = (
{
layerId = "9971B372-118E-4AC7-9904-5BD2E656A77C";
name = Regular;
paths = (
{
closed = 1;
nodes = (
"324 0 LINE SMOOTH",
"517 0 OFFCURVE",
"605 98 OFFCURVE",
"605 318 CURVE SMOOTH",
"605 551 OFFCURVE",
"514 644 OFFCURVE",
"324 644 CURVE SMOOTH",
"63 644 LINE",
"63 0 LINE"
);
},
{
closed = 1;
nodes = (
"172 559 LINE",
"307 559 LINE SMOOTH",
"442 559 OFFCURVE",
"496 507 OFFCURVE",
"496 318 CURVE SMOOTH",
"496 127 OFFCURVE",
"432 84 OFFCURVE",
"307 84 CURVE SMOOTH",
"172 84 LINE"
);
}
);
width = 649;
}
);
note = D;
rightKerningGroup = D;
unicode = 0044;
},
{
glyphname = Eth;
lastChange = "2015-10-24 17:36:10 +0000";
layers = (
{
layerId = "9971B372-118E-4AC7-9904-5BD2E656A77C";
name = Regular;
paths = (
{
closed = 1;
nodes = (
"364 0 LINE SMOOTH",
"557 0 OFFCURVE",
"645 98 OFFCURVE",
"645 318 CURVE SMOOTH",
"645 551 OFFCURVE",
"554 644 OFFCURVE",
"364 644 CURVE SMOOTH",
"103 644 LINE",
"103 358 LINE",
"33 358 LINE",
"33 274 LINE",
"103 274 LINE",
"103 0 LINE"
);
},
{
closed = 1;
nodes = (
"212 274 LINE",
"377 274 LINE",
"377 358 LINE",
"212 358 LINE",
"212 559 LINE",
"347 559 LINE SMOOTH",
"482 559 OFFCURVE",
"536 507 OFFCURVE",
"536 318 CURVE SMOOTH",
"536 127 OFFCURVE",
"472 84 OFFCURVE",
"347 84 CURVE SMOOTH",
"212 84 LINE"
);
}
);
width = 689;
}
);
note = Eth;
rightKerningGroup = D;
unicode = 00D0;
},
{
glyphname = Dcaron;
lastChange = "2015-10-24 17:36:10 +0000";
layers = (
{
layerId = "9971B372-118E-4AC7-9904-5BD2E656A77C";
name = Regular;
paths = (
{
closed = 1;
nodes = (
"324 0 LINE SMOOTH",
"517 0 OFFCURVE",
"605 98 OFFCURVE",
"605 318 CURVE SMOOTH",
"605 551 OFFCURVE",
"514 644 OFFCURVE",
"324 644 CURVE SMOOTH",
"63 644 LINE",
"63 0 LINE"
);
},
{
closed = 1;
nodes = (
"172 559 LINE",
"307 559 LINE SMOOTH",
"442 559 OFFCURVE",
"496 507 OFFCURVE",
"496 318 CURVE SMOOTH",
"496 127 OFFCURVE",
"432 84 OFFCURVE",
"307 84 CURVE SMOOTH",
"172 84 LINE"
);
},
{
closed = 1;
nodes = (
"340 698 LINE",
"465 859 LINE",
"378 859 LINE",
"302 758 LINE",
"228 859 LINE",
"139 859 LINE",
"264 698 LINE"
);
}
);
width = 649;
}
);
note = Dcaron;
rightKerningGroup = D;
unicode = 010E;
},
{
glyphname = Dcroat;
lastChange = "2015-10-24 17:36:10 +0000";
layers = (
{
layerId = "9971B372-118E-4AC7-9904-5BD2E656A77C";
name = Regular;
paths = (
{
closed = 1;
nodes = (
"354 0 LINE SMOOTH",
"547 0 OFFCURVE",
"635 98 OFFCURVE",
"635 318 CURVE SMOOTH",
"635 551 OFFCURVE",
"544 644 OFFCURVE",
"354 644 CURVE SMOOTH",
"93 644 LINE",
"93 358 LINE",
"23 358 LINE",
"23 274 LINE",
"93 274 LINE",
"93 0 LINE"
);
},
{
closed = 1;
nodes = (
"202 274 LINE",
"367 274 LINE",
"367 358 LINE",
"202 358 LINE",
"202 559 LINE",
"337 559 LINE SMOOTH",
"472 559 OFFCURVE",
"526 507 OFFCURVE",
"526 318 CURVE SMOOTH",
"526 127 OFFCURVE",
"462 84 OFFCURVE",
"337 84 CURVE SMOOTH",
"202 84 LINE"
);
}
);
width = 679;
}
);
note = Dcroat;
rightKerningGroup = D;
unicode = 0110;
},
{
glyphname = Ddotbelow;
lastChange = "2015-10-24 17:36:10 +0000";
layers = (
{
layerId = "9971B372-118E-4AC7-9904-5BD2E656A77C";
name = Regular;
paths = (
{
closed = 1;
nodes = (
"324 0 LINE SMOOTH",
"517 0 OFFCURVE",
"605 98 OFFCURVE",
"605 318 CURVE SMOOTH",
"605 551 OFFCURVE",
"514 644 OFFCURVE",
"324 644 CURVE SMOOTH",
"63 644 LINE",
"63 0 LINE"
);
},
{
closed = 1;
nodes = (
"365 -173 LINE",
"365 -85 LINE",
"271 -85 LINE",
"271 -173 LINE"
);
},
{
closed = 1;
nodes = (
"172 559 LINE",
"307 559 LINE SMOOTH",
"442 559 OFFCURVE",
"496 507 OFFCURVE",
"496 318 CURVE SMOOTH",
"496 127 OFFCURVE",
"432 84 OFFCURVE",
"307 84 CURVE SMOOTH",
"172 84 LINE"
);
}
);
width = 649;
}
);
note = Ddotbelow;
rightKerningGroup = D;
unicode = 1E0C;
},
{
glyphname = Dlinebelow;
lastChange = "2015-10-24 17:36:10 +0000";
layers = (
{
layerId = "9971B372-118E-4AC7-9904-5BD2E656A77C";
name = Regular;
paths = (
{
closed = 1;
nodes = (
"324 0 LINE SMOOTH",
"517 0 OFFCURVE",
"605 98 OFFCURVE",
"605 318 CURVE SMOOTH",
"605 551 OFFCURVE",
"514 644 OFFCURVE",
"324 644 CURVE SMOOTH",
"63 644 LINE",
"63 0 LINE"
);
},
{
closed = 1;
nodes = (
"429 -164 LINE",
"429 -93 LINE",
"131 -93 LINE",
"131 -164 LINE"
);
},
{
closed = 1;
nodes = (
"172 559 LINE",
"307 559 LINE SMOOTH",
"442 559 OFFCURVE",
"496 507 OFFCURVE",
"496 318 CURVE SMOOTH",
"496 127 OFFCURVE",
"432 84 OFFCURVE",
"307 84 CURVE SMOOTH",
"172 84 LINE"
);
}
);
width = 649;
}
);
note = Dlinebelow;
rightKerningGroup = D;
unicode = 1E0E;
},
{
glyphname = E;
lastChange = "2015-10-24 17:36:10 +0000";
layers = (
{
layerId = "9971B372-118E-4AC7-9904-5BD2E656A77C";
name = Regular;
paths = (
{
closed = 1;
nodes = (
"512 0 LINE",
"512 84 LINE",
"172 84 LINE",
"172 280 LINE",
"475 280 LINE",
"475 364 LINE",
"172 364 LINE",
"172 559 LINE",
"512 559 LINE",
"512 644 LINE",
"63 644 LINE",
"63 0 LINE"
);
}
);
width = 550;
}
);
leftKerningGroup = E;
note = E;
rightKerningGroup = E;
unicode = 0045;
},
{
glyphname = Eacute;
lastChange = "2015-10-24 17:36:10 +0000";
layers = (
{
layerId = "9971B372-118E-4AC7-9904-5BD2E656A77C";
name = Regular;
paths = (
{
closed = 1;
nodes = (
"512 0 LINE",
"512 84 LINE",
"172 84 LINE",
"172 280 LINE",
"475 280 LINE",
"475 364 LINE",
"172 364 LINE",
"172 559 LINE",
"512 559 LINE",
"512 644 LINE",
"63 644 LINE",
"63 0 LINE"
);
},
{
closed = 1;
nodes = (
"317 688 LINE",
"401 865 LINE",
"305 865 LINE",
"230 688 LINE"
);
}
);
width = 550;
}
);
leftKerningGroup = E;
note = Eacute;
rightKerningGroup = E;
unicode = 00C9;
},
{
glyphname = Ebreve;
lastChange = "2015-11-25 04:30:54 +0000";
layers = (
{
layerId = "9971B372-118E-4AC7-9904-5BD2E656A77C";
name = Regular;
paths = (
{
closed = 1;
nodes = (
"512 0 LINE",
"512 84 LINE",
"172 84 LINE",
"172 280 LINE",
"475 280 LINE",
"475 364 LINE",
"172 364 LINE",
"172 559 LINE",
"512 559 LINE",
"512 644 LINE",
"63 644 LINE",
"63 0 LINE"
);
},
{
closed = 1;
nodes = (
"378 688 OFFCURVE",
"433 743 OFFCURVE",
"433 829 CURVE",
"359 829 LINE",
"359 783 OFFCURVE",
"334 753 OFFCURVE",
"289 753 CURVE SMOOTH",
"246 753 OFFCURVE",
"222 783 OFFCURVE",
"222 829 CURVE",
"148 829 LINE",
"148 743 OFFCURVE",
"201 688 OFFCURVE",
"289 688 CURVE SMOOTH"
);
}
);
width = 550;
}
);
leftKerningGroup = E;
note = Ebreve;
rightKerningGroup = E;
unicode = 0114;
},
{
glyphname = Ecaron;
lastChange = "2015-11-25 04:30:57 +0000";
layers = (
{
layerId = "9971B372-118E-4AC7-9904-5BD2E656A77C";
name = Regular;
paths = (
{
closed = 1;
nodes = (
"512 0 LINE",
"512 84 LINE",
"172 84 LINE",
"172 280 LINE",
"475 280 LINE",
"475 364 LINE",
"172 364 LINE",
"172 559 LINE",
"512 559 LINE",
"512 644 LINE",
"63 644 LINE",
"63 0 LINE"
);
},
{
closed = 1;
nodes = (
"329 687 LINE",
"454 848 LINE",
"367 848 LINE",
"291 747 LINE",
"217 848 LINE",
"128 848 LINE",
"253 687 LINE"
);
}
);
width = 550;
}
);
leftKerningGroup = E;
note = Ecaron;
rightKerningGroup = E;
unicode = 011A;
},
{
glyphname = Ecircumflex;
lastChange = "2015-11-25 04:31:00 +0000";
layers = (
{
layerId = "9971B372-118E-4AC7-9904-5BD2E656A77C";
name = Regular;
paths = (
{
closed = 1;
nodes = (
"512 0 LINE",
"512 84 LINE",
"172 84 LINE",
"172 280 LINE",
"475 280 LINE",
"475 364 LINE",
"172 364 LINE",
"172 559 LINE",
"512 559 LINE",
"512 644 LINE",
"63 644 LINE",
"63 0 LINE"
);
},
{
closed = 1;
nodes = (
"206 687 LINE",
"280 788 LINE",
"356 687 LINE",
"443 687 LINE",
"318 848 LINE",
"242 848 LINE",
"117 687 LINE"
);
}
);
width = 550;
}
);
leftKerningGroup = E;
note = Ecircumflex;
rightKerningGroup = E;
unicode = 00CA;
},
{
glyphname = Ecircumflexacute;
lastChange = "2015-11-25 04:31:11 +0000";
layers = (
{
layerId = "9971B372-118E-4AC7-9904-5BD2E656A77C";
name = Regular;
paths = (
{
closed = 1;
nodes = (
"512 0 LINE",
"512 84 LINE",
"172 84 LINE",
"172 280 LINE",
"475 280 LINE",
"475 364 LINE",
"172 364 LINE",
"172 559 LINE",
"512 559 LINE",
"512 644 LINE",
"63 644 LINE",
"63 0 LINE"
);
},
{
closed = 1;
nodes = (
"212 686 LINE",
"282 768 LINE",
"354 686 LINE",
"443 686 LINE",
"324 813 LINE",
"240 813 LINE",
"121 686 LINE"
);
},
{
closed = 1;
nodes = (
"450 799 LINE",
"520 932 LINE",
"437 932 LINE",
"373 799 LINE"
);
}
);
width = 550;
}
);
leftKerningGroup = E;
note = Ecircumflexacute;
rightKerningGroup = E;
unicode = 1EBE;
},
{
glyphname = Ecircumflexdotbelow;
lastChange = "2015-11-25 04:31:15 +0000";
layers = (
{
layerId = "9971B372-118E-4AC7-9904-5BD2E656A77C";
name = Regular;
paths = (
{
closed = 1;
nodes = (
"512 0 LINE",
"512 84 LINE",
"172 84 LINE",
"172 280 LINE",
"475 280 LINE",
"475 364 LINE",
"172 364 LINE",
"172 559 LINE",
"512 559 LINE",
"512 644 LINE",
"63 644 LINE",
"63 0 LINE"
);
},
{
closed = 1;
nodes = (
"323 -173 LINE",
"323 -85 LINE",
"229 -85 LINE",
"229 -173 LINE"
);
},
{
closed = 1;
nodes = (
"202 687 LINE",
"276 788 LINE",
"352 687 LINE",
"439 687 LINE",
"314 848 LINE",
"238 848 LINE",
"113 687 LINE"
);
}
);
width = 550;
}
);
leftKerningGroup = E;
note = Ecircumflexdotbelow;
rightKerningGroup = E;
unicode = 1EC6;
},
{
glyphname = Ecircumflexgrave;
lastChange = "2015-11-25 04:31:19 +0000";
layers = (
{
layerId = "9971B372-118E-4AC7-9904-5BD2E656A77C";
name = Regular;
paths = (
{
closed = 1;
nodes = (
"512 0 LINE",
"512 84 LINE",
"172 84 LINE",
"172 280 LINE",
"475 280 LINE",
"475 364 LINE",
"172 364 LINE",
"172 559 LINE",
"512 559 LINE",
"512 644 LINE",
"63 644 LINE",
"63 0 LINE"
);
},
{
closed = 1;
nodes = (
"201 799 LINE",
"137 932 LINE",
"53 932 LINE",
"124 799 LINE"
);
},
{
closed = 1;
nodes = (
"220 686 LINE",
"291 768 LINE",
"362 686 LINE",
"452 686 LINE",
"334 813 LINE",
"249 813 LINE",
"131 686 LINE"
);
}
);
width = 550;
}
);
leftKerningGroup = E;
note = Ecircumflexgrave;
rightKerningGroup = E;
unicode = 1EC0;
},
{
glyphname = Ecircumflexhookabove;
lastChange = "2015-11-25 04:31:24 +0000";
layers = (
{
layerId = "9971B372-118E-4AC7-9904-5BD2E656A77C";
name = Regular;
paths = (
{
closed = 1;
nodes = (
"512 0 LINE",
"512 84 LINE",
"172 84 LINE",
"172 280 LINE",
"475 280 LINE",
"475 364 LINE",
"172 364 LINE",
"172 559 LINE",
"512 559 LINE",
"512 644 LINE",
"63 644 LINE",
"63 0 LINE"
);
},
{
closed = 1;
nodes = (
"214 686 LINE",
"285 768 LINE",
"356 686 LINE",
"445 686 LINE",
"327 813 LINE",
"242 813 LINE",
"124 686 LINE"
);
},
{
closed = 1;
nodes = (
"461 778 LINE",
"461 812 LINE",
"515 820 OFFCURVE",
"538 845 OFFCURVE",
"538 889 CURVE SMOOTH",
"538 936 OFFCURVE",
"500 967 OFFCURVE",
"435 967 CURVE SMOOTH",
"402 967 OFFCURVE",
"378 962 OFFCURVE",
"358 955 CURVE",
"358 902 LINE",
"374 909 OFFCURVE",
"392 914 OFFCURVE",
"414 914 CURVE SMOOTH",
"446 914 OFFCURVE",
"461 905 OFFCURVE",
"461 883 CURVE SMOOTH",
"461 859 OFFCURVE",
"448 847 OFFCURVE",
"384 844 CURVE",
"384 778 LINE"
);
}
);
width = 550;
}
);
leftKerningGroup = E;
note = Ecircumflexhookabove;
rightKerningGroup = E;
unicode = 1EC2;
},
{
glyphname = Ecircumflextilde;
lastChange = "2015-11-25 04:31:26 +0000";
layers = (
{
layerId = "9971B372-118E-4AC7-9904-5BD2E656A77C";
name = Regular;
paths = (
{
closed = 1;
nodes = (
"512 0 LINE",
"512 84 LINE",
"172 84 LINE",
"172 280 LINE",
"475 280 LINE",
"475 364 LINE",
"172 364 LINE",
"172 559 LINE",
"512 559 LINE",
"512 644 LINE",
"63 644 LINE",
"63 0 LINE"
);
},
{
closed = 1;
nodes = (
"215 687 LINE",
"286 769 LINE",
"357 687 LINE",
"446 687 LINE",
"328 814 LINE",
"243 814 LINE",
"125 687 LINE"
);
},
{
closed = 1;
nodes = (
"402 822 OFFCURVE",
"431 835 OFFCURVE",
"444 852 CURVE",
"444 923 LINE",
"427 900 OFFCURVE",
"401 888 OFFCURVE",
"367 888 CURVE SMOOTH",
"316 888 OFFCURVE",
"276 925 OFFCURVE",
"220 925 CURVE SMOOTH",
"188 925 OFFCURVE",
"155 913 OFFCURVE",
"138 896 CURVE",
"138 825 LINE",
"160 850 OFFCURVE",
"188 860 OFFCURVE",
"221 860 CURVE SMOOTH",
"266 860 OFFCURVE",
"315 822 OFFCURVE",
"368 822 CURVE SMOOTH"
);
}
);
width = 550;
}
);
leftKerningGroup = E;
note = Ecircumflextilde;
rightKerningGroup = E;
unicode = 1EC4;
},
{
glyphname = Edieresis;
lastChange = "2015-11-25 04:31:29 +0000";
layers = (
{
layerId = "9971B372-118E-4AC7-9904-5BD2E656A77C";
name = Regular;
paths = (
{
closed = 1;
nodes = (
"512 0 LINE",
"512 84 LINE",
"172 84 LINE",
"172 280 LINE",
"475 280 LINE",
"475 364 LINE",
"172 364 LINE",
"172 559 LINE",
"512 559 LINE",
"512 644 LINE",
"63 644 LINE",
"63 0 LINE"
);
},
{
closed = 1;
nodes = (
"238 712 LINE",
"238 798 LINE",
"146 798 LINE",
"146 712 LINE"
);
},
{
closed = 1;
nodes = (
"424 712 LINE",
"424 798 LINE",
"332 798 LINE",
"332 712 LINE"
);
}
);
width = 550;
}
);
leftKerningGroup = E;
note = Edieresis;
rightKerningGroup = E;
unicode = 00CB;
},
{
glyphname = Edotaccent;
lastChange = "2015-11-25 04:31:31 +0000";
layers = (
{
layerId = "9971B372-118E-4AC7-9904-5BD2E656A77C";
name = Regular;
paths = (
{
closed = 1;
nodes = (
"512 0 LINE",
"512 84 LINE",
"172 84 LINE",
"172 280 LINE",
"475 280 LINE",
"475 364 LINE",
"172 364 LINE",
"172 559 LINE",
"512 559 LINE",
"512 644 LINE",
"63 644 LINE",
"63 0 LINE"
);
},
{
closed = 1;
nodes = (
"329 711 LINE",
"329 799 LINE",
"237 799 LINE",
"237 711 LINE"
);
}
);
width = 550;
}
);
leftKerningGroup = E;
note = Edotaccent;
rightKerningGroup = E;
unicode = 0116;
},
{
glyphname = Edotbelow;
lastChange = "2015-11-25 04:31:33 +0000";
layers = (
{
layerId = "9971B372-118E-4AC7-9904-5BD2E656A77C";
name = Regular;
paths = (
{
closed = 1;
nodes = (
"512 0 LINE",
"512 84 LINE",
"172 84 LINE",
"172 280 LINE",
"475 280 LINE",
"475 364 LINE",
"172 364 LINE",
"172 559 LINE",
"512 559 LINE",
"512 644 LINE",
"63 644 LINE",
"63 0 LINE"
);
},
{
closed = 1;
nodes = (
"327 -173 LINE",
"327 -85 LINE",
"233 -85 LINE",
"233 -173 LINE"
);
}
);
width = 550;
}
);
leftKerningGroup = E;
note = Edotbelow;
rightKerningGroup = E;
unicode = 1EB8;
},
{
glyphname = Egrave;
lastChange = "2015-11-25 04:31:36 +0000";
layers = (
{
layerId = "9971B372-118E-4AC7-9904-5BD2E656A77C";
name = Regular;
paths = (
{
closed = 1;
nodes = (
"512 0 LINE",
"512 84 LINE",
"172 84 LINE",
"172 280 LINE",
"475 280 LINE",
"475 364 LINE",
"172 364 LINE",
"172 559 LINE",
"512 559 LINE",
"512 644 LINE",
"63 644 LINE",
"63 0 LINE"
);
},
{
closed = 1;
nodes = (
"340 688 LINE",
"264 865 LINE",
"169 865 LINE",
"252 688 LINE"
);
}
);
width = 550;
}
);
leftKerningGroup = E;
note = Egrave;
rightKerningGroup = E;
unicode = 00C8;
},
{
glyphname = Ehookabove;
lastChange = "2015-11-25 04:31:39 +0000";
layers = (
{
layerId = "9971B372-118E-4AC7-9904-5BD2E656A77C";
name = Regular;
paths = (
{
closed = 1;
nodes = (
"512 0 LINE",
"512 84 LINE",
"172 84 LINE",
"172 280 LINE",
"475 280 LINE",
"475 364 LINE",
"172 364 LINE",
"172 559 LINE",
"512 559 LINE",
"512 644 LINE",
"63 644 LINE",
"63 0 LINE"
);
},
{
closed = 1;
nodes = (
"322 687 LINE",
"322 734 LINE",
"387 744 OFFCURVE",
"410 773 OFFCURVE",
"410 828 CURVE SMOOTH",
"410 885 OFFCURVE",
"366 921 OFFCURVE",
"284 921 CURVE SMOOTH",
"250 921 OFFCURVE",
"213 916 OFFCURVE",
"191 908 CURVE",
"191 849 LINE",
"208 856 OFFCURVE",
"235 861 OFFCURVE",
"255 861 CURVE SMOOTH",
"303 861 OFFCURVE",
"329 849 OFFCURVE",
"329 819 CURVE SMOOTH",
"329 786 OFFCURVE",
"313 773 OFFCURVE",
"237 769 CURVE",
"237 687 LINE"
);
}
);
width = 550;
}
);
leftKerningGroup = E;
note = Ehookabove;
rightKerningGroup = E;
unicode = 1EBA;
},
{
glyphname = Emacron;
lastChange = "2015-11-25 04:31:42 +0000";
layers = (
{
layerId = "9971B372-118E-4AC7-9904-5BD2E656A77C";
name = Regular;
paths = (
{
closed = 1;
nodes = (
"512 0 LINE",
"512 84 LINE",
"172 84 LINE",
"172 280 LINE",
"475 280 LINE",
"475 364 LINE",
"172 364 LINE",
"172 559 LINE",
"512 559 LINE",
"512 644 LINE",
"63 644 LINE",
"63 0 LINE"
);
},
{
closed = 1;
nodes = (
"426 721 LINE",
"426 792 LINE",
"128 792 LINE",
"128 721 LINE"
);
}
);
width = 550;
}
);
leftKerningGroup = E;
note = Emacron;
rightKerningGroup = E;
unicode = 0112;
},
{
glyphname = Eogonek;
lastChange = "2015-11-25 04:31:45 +0000";
layers = (
{
layerId = "9971B372-118E-4AC7-9904-5BD2E656A77C";
name = Regular;
paths = (
{
closed = 1;
nodes = (
"512 0 LINE",
"512 84 LINE",
"172 84 LINE",
"172 280 LINE",
"475 280 LINE",
"475 364 LINE",
"172 364 LINE",
"172 559 LINE",
"512 559 LINE",
"512 644 LINE",
"63 644 LINE",
"63 0 LINE"
);
},
{
closed = 1;
nodes = (
"451 -220 OFFCURVE",
"482 -215 OFFCURVE",
"499 -207 CURVE",
"499 -141 LINE",
"487 -148 OFFCURVE",
"466 -152 OFFCURVE",
"449 -152 CURVE SMOOTH",
"419 -152 OFFCURVE",
"402 -143 OFFCURVE",
"402 -112 CURVE SMOOTH",
"402 -72 OFFCURVE",
"428 -33 OFFCURVE",
"471 0 CURVE",
"389 0 LINE",
"344 -31 OFFCURVE",
"315 -80 OFFCURVE",
"315 -131 CURVE SMOOTH",
"315 -193 OFFCURVE",
"365 -220 OFFCURVE",
"422 -220 CURVE SMOOTH"
);
}
);
width = 550;
}
);
leftKerningGroup = E;
note = Eogonek;
rightKerningGroup = E;
unicode = 0118;
},
{
glyphname = Etilde;
lastChange = "2015-11-25 04:31:48 +0000";
layers = (
{
layerId = "9971B372-118E-4AC7-9904-5BD2E656A77C";
name = Regular;
paths = (
{
closed = 1;
nodes = (
"512 0 LINE",
"512 84 LINE",
"172 84 LINE",
"172 280 LINE",
"475 280 LINE",
"475 364 LINE",
"172 364 LINE",
"172 559 LINE",
"512 559 LINE",
"512 644 LINE",
"63 644 LINE",
"63 0 LINE"
);
},
{
closed = 1;
nodes = (
"398 703 OFFCURVE",
"428 716 OFFCURVE",
"441 734 CURVE",
"441 814 LINE",
"423 790 OFFCURVE",
"397 777 OFFCURVE",
"361 777 CURVE SMOOTH",
"308 777 OFFCURVE",
"266 816 OFFCURVE",
"208 816 CURVE SMOOTH",
"175 816 OFFCURVE",
"140 804 OFFCURVE",
"123 786 CURVE",
"123 706 LINE",
"146 732 OFFCURVE",
"175 742 OFFCURVE",
"210 742 CURVE SMOOTH",
"256 742 OFFCURVE",
"307 703 OFFCURVE",
"362 703 CURVE SMOOTH"
);
}
);
width = 550;
}
);
leftKerningGroup = E;
note = Etilde;
rightKerningGroup = E;
unicode = 1EBC;
},
{
glyphname = F;
lastChange = "2015-10-24 17:36:10 +0000";
layers = (
{
layerId = "9971B372-118E-4AC7-9904-5BD2E656A77C";
name = Regular;
paths = (
{
closed = 1;
nodes = (
"172 0 LINE",
"172 280 LINE",
"464 280 LINE",
"464 364 LINE",
"172 364 LINE",
"172 559 LINE",
"501 559 LINE",
"501 644 LINE",
"63 644 LINE",
"63 0 LINE"
);
}
);
width = 524;
}
);
note = F;
unicode = 0046;
},
{
glyphname = G;
lastChange = "2015-10-24 17:36:10 +0000";
layers = (
{
layerId = "9971B372-118E-4AC7-9904-5BD2E656A77C";
name = Regular;
paths = (
{
closed = 1;
nodes = (
"482 -10 OFFCURVE",
"556 16 OFFCURVE",
"598 43 CURVE",
"598 353 LINE",
"344 353 LINE",
"344 282 LINE",
"505 282 LINE",
"505 102 LINE",
"468 88 OFFCURVE",
"425 82 OFFCURVE",
"366 82 CURVE SMOOTH",
"220 82 OFFCURVE",
"153 161 OFFCURVE",
"153 309 CURVE SMOOTH",
"153 472 OFFCURVE",
"211 561 OFFCURVE",
"375 561 CURVE SMOOTH",
"440 561 OFFCURVE",
"502 551 OFFCURVE",
"557 531 CURVE",
"557 625 LINE",
"502 644 OFFCURVE",
"442 654 OFFCURVE",
"366 654 CURVE SMOOTH",
"146 654 OFFCURVE",
"43 521 OFFCURVE",
"43 309 CURVE SMOOTH",
"43 113 OFFCURVE",
"151 -10 OFFCURVE",
"363 -10 CURVE SMOOTH"
);
}
);
width = 641;
}
);
leftKerningGroup = G;
note = G;
unicode = 0047;
},
{
glyphname = Gbreve;
lastChange = "2015-10-24 17:36:10 +0000";
layers = (
{
layerId = "9971B372-118E-4AC7-9904-5BD2E656A77C";
name = Regular;
paths = (
{
closed = 1;
nodes = (
"482 -10 OFFCURVE",
"556 16 OFFCURVE",
"598 43 CURVE",
"598 353 LINE",
"344 353 LINE",
"344 282 LINE",
"505 282 LINE",
"505 102 LINE",
"468 88 OFFCURVE",
"425 82 OFFCURVE",
"366 82 CURVE SMOOTH",
"220 82 OFFCURVE",
"153 161 OFFCURVE",
"153 309 CURVE SMOOTH",
"153 472 OFFCURVE",
"211 561 OFFCURVE",
"375 561 CURVE SMOOTH",
"440 561 OFFCURVE",
"502 551 OFFCURVE",
"557 531 CURVE",
"557 625 LINE",
"502 644 OFFCURVE",
"442 654 OFFCURVE",
"366 654 CURVE SMOOTH",
"146 654 OFFCURVE",
"43 521 OFFCURVE",
"43 309 CURVE SMOOTH",
"43 113 OFFCURVE",
"151 -10 OFFCURVE",
"363 -10 CURVE SMOOTH"
);
},
{
closed = 1;
nodes = (
"447 688 OFFCURVE",
"502 743 OFFCURVE",
"502 829 CURVE",
"428 829 LINE",
"428 783 OFFCURVE",
"403 753 OFFCURVE",
"358 753 CURVE SMOOTH",
"315 753 OFFCURVE",
"291 783 OFFCURVE",
"291 829 CURVE",
"217 829 LINE",
"217 743 OFFCURVE",
"270 688 OFFCURVE",
"358 688 CURVE SMOOTH"
);
}
);
width = 641;
}
);
leftKerningGroup = G;
note = Gbreve;
unicode = 011E;
},
{
glyphname = Gcaron;
lastChange = "2015-10-24 17:36:09 +0000";
layers = (
{
layerId = "9971B372-118E-4AC7-9904-5BD2E656A77C";
name = Regular;
paths = (
{
closed = 1;
nodes = (
"482 -10 OFFCURVE",
"556 16 OFFCURVE",
"598 43 CURVE",
"598 353 LINE",
"344 353 LINE",
"344 282 LINE",
"505 282 LINE",
"505 102 LINE",
"468 88 OFFCURVE",
"425 82 OFFCURVE",
"366 82 CURVE SMOOTH",
"220 82 OFFCURVE",
"153 161 OFFCURVE",
"153 309 CURVE SMOOTH",
"153 472 OFFCURVE",
"211 561 OFFCURVE",
"375 561 CURVE SMOOTH",
"440 561 OFFCURVE",
"502 551 OFFCURVE",
"557 531 CURVE",
"557 625 LINE",
"502 644 OFFCURVE",
"442 654 OFFCURVE",
"366 654 CURVE SMOOTH",
"146 654 OFFCURVE",
"43 521 OFFCURVE",
"43 309 CURVE SMOOTH",
"43 113 OFFCURVE",
"151 -10 OFFCURVE",
"363 -10 CURVE SMOOTH"
);
},
{
closed = 1;
nodes = (
"396 686 LINE",
"521 847 LINE",
"434 847 LINE",
"358 746 LINE",
"284 847 LINE",
"195 847 LINE",
"320 686 LINE"
);
}
);
width = 641;
}
);
leftKerningGroup = G;
note = Gcaron;
unicode = 01E6;
},
{
glyphname = Gcircumflex;
lastChange = "2015-10-24 17:36:09 +0000";
layers = (
{
layerId = "9971B372-118E-4AC7-9904-5BD2E656A77C";
name = Regular;
paths = (
{
closed = 1;
nodes = (
"482 -10 OFFCURVE",
"556 16 OFFCURVE",
"598 43 CURVE",
"598 353 LINE",
"344 353 LINE",
"344 282 LINE",
"505 282 LINE",
"505 102 LINE",
"468 88 OFFCURVE",
"425 82 OFFCURVE",
"366 82 CURVE SMOOTH",
"220 82 OFFCURVE",
"153 161 OFFCURVE",
"153 309 CURVE SMOOTH",
"153 472 OFFCURVE",
"211 561 OFFCURVE",
"375 561 CURVE SMOOTH",
"440 561 OFFCURVE",
"502 551 OFFCURVE",
"557 531 CURVE",
"557 625 LINE",
"502 644 OFFCURVE",
"442 654 OFFCURVE",
"366 654 CURVE SMOOTH",
"146 654 OFFCURVE",
"43 521 OFFCURVE",
"43 309 CURVE SMOOTH",
"43 113 OFFCURVE",
"151 -10 OFFCURVE",
"363 -10 CURVE SMOOTH"
);
},
{
closed = 1;
nodes = (
"283 687 LINE",
"357 788 LINE",
"433 687 LINE",
"520 687 LINE",
"395 848 LINE",
"319 848 LINE",
"194 687 LINE"
);
}
);
width = 641;
}
);
leftKerningGroup = G;
note = Gcircumflex;
unicode = 011C;
},
{
glyphname = Gcommaaccent;
lastChange = "2015-10-24 17:36:10 +0000";
layers = (
{
layerId = "9971B372-118E-4AC7-9904-5BD2E656A77C";
name = Regular;
paths = (
{
closed = 1;
nodes = (
"482 -10 OFFCURVE",
"556 16 OFFCURVE",
"598 43 CURVE",
"598 353 LINE",
"344 353 LINE",
"344 282 LINE",
"505 282 LINE",
"505 102 LINE",
"468 88 OFFCURVE",
"425 82 OFFCURVE",
"366 82 CURVE SMOOTH",
"220 82 OFFCURVE",
"153 161 OFFCURVE",
"153 309 CURVE SMOOTH",
"153 472 OFFCURVE",
"211 561 OFFCURVE",
"375 561 CURVE SMOOTH",
"440 561 OFFCURVE",
"502 551 OFFCURVE",
"557 531 CURVE",
"557 625 LINE",
"502 644 OFFCURVE",
"442 654 OFFCURVE",
"366 654 CURVE SMOOTH",
"146 654 OFFCURVE",
"43 521 OFFCURVE",
"43 309 CURVE SMOOTH",
"43 113 OFFCURVE",
"151 -10 OFFCURVE",
"363 -10 CURVE SMOOTH"
);
},
{
closed = 1;
nodes = (
"374 -231 LINE",
"420 -42 LINE",
"330 -42 LINE",
"301 -231 LINE"
);
}
);
width = 641;
}
);
leftKerningGroup = G;
note = Gcommaaccent;
unicode = 0122;
},
{
glyphname = Gdotaccent;
lastChange = "2015-10-24 17:36:10 +0000";
layers = (
{
layerId = "9971B372-118E-4AC7-9904-5BD2E656A77C";
name = Regular;
paths = (
{
closed = 1;
nodes = (
"482 -10 OFFCURVE",
"556 16 OFFCURVE",
"598 43 CURVE",
"598 353 LINE",
"344 353 LINE",
"344 282 LINE",
"505 282 LINE",
"505 102 LINE",
"468 88 OFFCURVE",
"425 82 OFFCURVE",
"366 82 CURVE SMOOTH",
"220 82 OFFCURVE",
"153 161 OFFCURVE",
"153 309 CURVE SMOOTH",
"153 472 OFFCURVE",
"211 561 OFFCURVE",
"375 561 CURVE SMOOTH",
"440 561 OFFCURVE",
"502 551 OFFCURVE",
"557 531 CURVE",
"557 625 LINE",
"502 644 OFFCURVE",
"442 654 OFFCURVE",
"366 654 CURVE SMOOTH",
"146 654 OFFCURVE",
"43 521 OFFCURVE",
"43 309 CURVE SMOOTH",
"43 113 OFFCURVE",
"151 -10 OFFCURVE",
"363 -10 CURVE SMOOTH"
);
},
{
closed = 1;
nodes = (
"409 711 LINE",
"409 799 LINE",
"317 799 LINE",
"317 711 LINE"
);
}
);
width = 641;
}
);
leftKerningGroup = G;
note = Gdotaccent;
unicode = 0120;
},
{
glyphname = Gmacron;
lastChange = "2015-10-24 17:36:10 +0000";
layers = (
{
layerId = "9971B372-118E-4AC7-9904-5BD2E656A77C";
name = Regular;
paths = (
{
closed = 1;
nodes = (
"482 -10 OFFCURVE",
"556 16 OFFCURVE",
"598 43 CURVE",
"598 353 LINE",
"344 353 LINE",
"344 282 LINE",
"505 282 LINE",
"505 102 LINE",
"468 88 OFFCURVE",
"425 82 OFFCURVE",
"366 82 CURVE SMOOTH",
"220 82 OFFCURVE",
"153 161 OFFCURVE",
"153 309 CURVE SMOOTH",
"153 472 OFFCURVE",
"211 561 OFFCURVE",
"375 561 CURVE SMOOTH",
"440 561 OFFCURVE",
"502 551 OFFCURVE",
"557 531 CURVE",
"557 625 LINE",
"502 644 OFFCURVE",
"442 654 OFFCURVE",
"366 654 CURVE SMOOTH",
"146 654 OFFCURVE",
"43 521 OFFCURVE",
"43 309 CURVE SMOOTH",
"43 113 OFFCURVE",
"151 -10 OFFCURVE",
"363 -10 CURVE SMOOTH"
);
},
{
closed = 1;
nodes = (
"510 717 LINE",
"510 788 LINE",
"212 788 LINE",
"212 717 LINE"
);
}
);
width = 641;
}
);
leftKerningGroup = G;
note = Gmacron;
unicode = 1E20;
},
{
glyphname = H;
lastChange = "2015-10-24 17:36:10 +0000";
layers = (
{
layerId = "9971B372-118E-4AC7-9904-5BD2E656A77C";
name = Regular;
paths = (
{
closed = 1;
nodes = (
"172 0 LINE",
"172 280 LINE",
"482 280 LINE",
"482 0 LINE",
"591 0 LINE",
"591 644 LINE",
"482 644 LINE",
"482 364 LINE",
"172 364 LINE",
"172 644 LINE",
"63 644 LINE",
"63 0 LINE"
);
}
);
width = 654;
}
);
note = H;
unicode = 0048;
},
{
glyphname = Hbar;
lastChange = "2015-11-25 04:33:19 +0000";
layers = (
{
layerId = "9971B372-118E-4AC7-9904-5BD2E656A77C";
name = Regular;
paths = (
{
closed = 1;
nodes = (
"172 0 LINE",
"172 280 LINE",
"482 280 LINE",
"482 0 LINE",
"591 0 LINE",
"591 457 LINE",
"641 457 LINE",
"641 542 LINE",
"591 542 LINE",
"591 644 LINE",
"482 644 LINE",
"482 542 LINE",
"172 542 LINE",
"172 644 LINE",
"63 644 LINE",
"63 542 LINE",
"13 542 LINE",
"13 457 LINE",
"63 457 LINE",
"63 0 LINE"
);
},
{
closed = 1;
nodes = (
"172 457 LINE",
"482 457 LINE",
"482 364 LINE",
"172 364 LINE"
);
}
);
width = 654;
}
);
note = Hbar;
unicode = 0126;
},
{
glyphname = Hbrevebelow;
lastChange = "2015-11-25 04:33:31 +0000";
layers = (
{
layerId = "9971B372-118E-4AC7-9904-5BD2E656A77C";
name = Regular;
paths = (
{
closed = 1;
nodes = (
"172 0 LINE",
"172 280 LINE",
"482 280 LINE",
"482 0 LINE",
"591 0 LINE",
"591 644 LINE",
"482 644 LINE",
"482 364 LINE",
"172 364 LINE",
"172 644 LINE",
"63 644 LINE",
"63 0 LINE"
);
},
{
closed = 1;
nodes = (
"414 -207 OFFCURVE",
"469 -152 OFFCURVE",
"469 -65 CURVE",
"395 -65 LINE",
"395 -112 OFFCURVE",
"370 -142 OFFCURVE",
"325 -142 CURVE SMOOTH",
"282 -142 OFFCURVE",
"258 -112 OFFCURVE",
"258 -65 CURVE",
"184 -65 LINE",
"184 -152 OFFCURVE",
"237 -207 OFFCURVE",
"325 -207 CURVE SMOOTH"
);
}
);
width = 654;
}
);
note = Hbrevebelow;
unicode = 1E2A;
},
{
glyphname = Hcircumflex;
lastChange = "2015-11-25 04:33:39 +0000";
layers = (
{
layerId = "9971B372-118E-4AC7-9904-5BD2E656A77C";
name = Regular;
paths = (
{
closed = 1;
nodes = (
"172 0 LINE",
"172 280 LINE",
"482 280 LINE",
"482 0 LINE",
"591 0 LINE",
"591 644 LINE",
"482 644 LINE",
"482 364 LINE",
"172 364 LINE",
"172 644 LINE",
"63 644 LINE",
"63 0 LINE"
);
},
{
closed = 1;
nodes = (
"252 687 LINE",
"326 788 LINE",
"402 687 LINE",
"489 687 LINE",
"364 848 LINE",
"288 848 LINE",
"163 687 LINE"
);
}
);
width = 654;
}
);
note = Hcircumflex;
unicode = 0124;
},
{
glyphname = Hdotbelow;
lastChange = "2015-11-25 04:33:45 +0000";
layers = (
{
layerId = "9971B372-118E-4AC7-9904-5BD2E656A77C";
name = Regular;
paths = (
{
closed = 1;
nodes = (
"172 0 LINE",
"172 280 LINE",
"482 280 LINE",
"482 0 LINE",
"591 0 LINE",
"591 644 LINE",
"482 644 LINE",
"482 364 LINE",
"172 364 LINE",
"172 644 LINE",
"63 644 LINE",
"63 0 LINE"
);
},
{
closed = 1;
nodes = (
"374 -173 LINE",
"374 -85 LINE",
"280 -85 LINE",
"280 -173 LINE"
);
}
);
width = 654;
}
);
note = Hdotbelow;
unicode = 1E24;
},
{
glyphname = I;
lastChange = "2015-10-24 17:36:10 +0000";
layers = (
{
layerId = "9971B372-118E-4AC7-9904-5BD2E656A77C";
name = Regular;
paths = (
{
closed = 1;
nodes = (
"172 0 LINE",
"172 644 LINE",
"63 644 LINE",
"63 0 LINE"
);
}
);
width = 235;
}
);
note = I;
unicode = 0049;
},
{
glyphname = IJ;
lastChange = "2015-10-24 17:36:10 +0000";
layers = (
{
layerId = "9971B372-118E-4AC7-9904-5BD2E656A77C";
name = Regular;
paths = (
{
closed = 1;
nodes = (
"522 -10 OFFCURVE",
"592 57 OFFCURVE",
"592 180 CURVE SMOOTH",
"592 644 LINE",
"483 644 LINE",
"483 198 LINE SMOOTH",
"483 117 OFFCURVE",
"452 82 OFFCURVE",
"363 82 CURVE SMOOTH",
"320 82 OFFCURVE",
"274 91 OFFCURVE",
"242 105 CURVE",
"242 13 LINE",
"280 -2 OFFCURVE",
"327 -10 OFFCURVE",
"382 -10 CURVE SMOOTH"
);
},
{
closed = 1;
nodes = (
"172 0 LINE",
"172 644 LINE",
"63 644 LINE",
"63 0 LINE"
);
}
);
width = 651;
}
);
note = IJ;
unicode = 0132;
},
{
glyphname = Iacute;
lastChange = "2015-10-24 17:36:09 +0000";
layers = (
{
layerId = "9971B372-118E-4AC7-9904-5BD2E656A77C";
name = Regular;
paths = (
{
closed = 1;
nodes = (
"172 0 LINE",
"172 644 LINE",
"63 644 LINE",
"63 0 LINE"
);
},
{
closed = 1;
nodes = (
"157 688 LINE",
"241 865 LINE",
"145 865 LINE",
"70 688 LINE"
);
}
);
width = 236;
}
);
note = Iacute;
unicode = 00CD;
},
{
glyphname = Ibreve;
lastChange = "2015-11-25 04:35:16 +0000";
layers = (
{
layerId = "9971B372-118E-4AC7-9904-5BD2E656A77C";
name = Regular;
paths = (
{
closed = 1;
nodes = (
"172 0 LINE",
"172 644 LINE",
"63 644 LINE",
"63 0 LINE"
);
},
{
closed = 1;
nodes = (
"205 698 OFFCURVE",
"260 753 OFFCURVE",
"260 839 CURVE",
"186 839 LINE",
"186 793 OFFCURVE",
"161 763 OFFCURVE",
"116 763 CURVE SMOOTH",
"73 763 OFFCURVE",
"49 793 OFFCURVE",
"49 839 CURVE",
"-25 839 LINE",
"-25 753 OFFCURVE",
"28 698 OFFCURVE",
"116 698 CURVE SMOOTH"
);
}
);
width = 235;
}
);
note = Ibreve;
unicode = 012C;
},
{
glyphname = Icaron;
lastChange = "2015-11-25 04:35:01 +0000";
layers = (
{
layerId = "9971B372-118E-4AC7-9904-5BD2E656A77C";
name = Regular;
paths = (
{
closed = 1;
nodes = (
"172 0 LINE",
"172 644 LINE",
"63 644 LINE",
"63 0 LINE"
);
},
{
closed = 1;
nodes = (
"156 687 LINE",
"281 848 LINE",
"194 848 LINE",
"118 747 LINE",
"44 848 LINE",
"-45 848 LINE",
"80 687 LINE"
);
}
);
width = 235;
}
);
note = Icaron;
unicode = 01CF;
},
{
glyphname = Icircumflex;
lastChange = "2015-10-24 17:36:09 +0000";
layers = (
{
layerId = "9971B372-118E-4AC7-9904-5BD2E656A77C";
name = Regular;
paths = (
{
closed = 1;
nodes = (
"172 0 LINE",
"172 644 LINE",
"63 644 LINE",
"63 0 LINE"
);
},
{
closed = 1;
nodes = (
"43 687 LINE",
"117 788 LINE",
"193 687 LINE",
"280 687 LINE",
"155 848 LINE",
"79 848 LINE",
"-46 687 LINE"
);
}
);
width = 235;
}
);
note = Icircumflex;
unicode = 00CE;
},
{
glyphname = Idieresis;
lastChange = "2015-10-24 17:36:10 +0000";
layers = (
{
layerId = "9971B372-118E-4AC7-9904-5BD2E656A77C";
name = Regular;
paths = (
{
closed = 1;
nodes = (
"172 0 LINE",
"172 644 LINE",
"63 644 LINE",
"63 0 LINE"
);
},
{
closed = 1;
nodes = (
"70 715 LINE",
"70 801 LINE",
"-22 801 LINE",
"-22 715 LINE"
);
},
{
closed = 1;
nodes = (
"256 715 LINE",
"256 801 LINE",
"164 801 LINE",
"164 715 LINE"
);
}
);
width = 235;
}
);
note = Idieresis;
unicode = 00CF;
},
{
glyphname = Idotaccent;
lastChange = "2015-10-24 17:36:09 +0000";
layers = (
{
layerId = "9971B372-118E-4AC7-9904-5BD2E656A77C";
name = Regular;
paths = (
{
closed = 1;
nodes = (
"172 0 LINE",
"172 644 LINE",
"63 644 LINE",
"63 0 LINE"
);
},
{
closed = 1;
nodes = (
"163 714 LINE",
"163 802 LINE",
"71 802 LINE",
"71 714 LINE"
);
}
);
width = 235;
}
);
note = Idotaccent;
unicode = 0130;
},
{
glyphname = Idotbelow;
lastChange = "2015-10-24 17:36:11 +0000";
layers = (
{
layerId = "9971B372-118E-4AC7-9904-5BD2E656A77C";
name = Regular;
paths = (
{
closed = 1;
nodes = (
"172 0 LINE",
"172 644 LINE",
"63 644 LINE",
"63 0 LINE"
);
},
{
closed = 1;
nodes = (
"164 -173 LINE",
"164 -85 LINE",
"70 -85 LINE",
"70 -173 LINE"
);
}
);
width = 235;
}
);
note = Idotbelow;
unicode = 1ECA;
},
{
glyphname = Igrave;
lastChange = "2015-10-24 17:36:10 +0000";
layers = (
{
layerId = "9971B372-118E-4AC7-9904-5BD2E656A77C";
name = Regular;
paths = (
{
closed = 1;
nodes = (
"172 0 LINE",
"172 644 LINE",
"63 644 LINE",
"63 0 LINE"
);
},
{
closed = 1;
nodes = (
"162 688 LINE",
"86 865 LINE",
"-9 865 LINE",
"74 688 LINE"
);
}
);
width = 235;
}
);
note = Igrave;
unicode = 00CC;
},
{
glyphname = Ihookabove;
lastChange = "2015-11-25 04:35:29 +0000";
layers = (
{
layerId = "9971B372-118E-4AC7-9904-5BD2E656A77C";
name = Regular;
paths = (
{
closed = 1;
nodes = (
"172 0 LINE",
"172 644 LINE",
"63 644 LINE",
"63 0 LINE"
);
},
{
closed = 1;
nodes = (
"159 687 LINE",
"159 734 LINE",
"224 744 OFFCURVE",
"247 773 OFFCURVE",
"247 828 CURVE SMOOTH",
"247 885 OFFCURVE",
"203 921 OFFCURVE",
"121 921 CURVE SMOOTH",
"87 921 OFFCURVE",
"50 916 OFFCURVE",
"28 908 CURVE",
"28 849 LINE",
"45 856 OFFCURVE",
"72 861 OFFCURVE",
"92 861 CURVE SMOOTH",
"140 861 OFFCURVE",
"166 849 OFFCURVE",
"166 819 CURVE SMOOTH",
"166 786 OFFCURVE",
"150 773 OFFCURVE",
"74 769 CURVE",
"74 687 LINE"
);
}
);
width = 235;
}
);
note = Ihookabove;
unicode = 1EC8;
},
{
glyphname = Imacron;
lastChange = "2015-11-25 04:35:32 +0000";
layers = (
{
layerId = "9971B372-118E-4AC7-9904-5BD2E656A77C";
name = Regular;
paths = (
{
closed = 1;
nodes = (
"172 0 LINE",
"172 644 LINE",
"63 644 LINE",
"63 0 LINE"
);
},
{
closed = 1;
nodes = (
"266 721 LINE",
"266 792 LINE",
"-32 792 LINE",
"-32 721 LINE"
);
}
);
width = 235;
}
);
note = Imacron;
unicode = 012A;
},
{
glyphname = Iogonek;
lastChange = "2015-11-25 04:35:35 +0000";
layers = (
{
layerId = "9971B372-118E-4AC7-9904-5BD2E656A77C";
name = Regular;
paths = (
{
closed = 1;
nodes = (
"172 0 LINE",
"172 644 LINE",
"63 644 LINE",
"63 0 LINE"
);
},
{
closed = 1;
nodes = (
"142 -220 OFFCURVE",
"173 -215 OFFCURVE",
"190 -207 CURVE",
"190 -141 LINE",
"178 -148 OFFCURVE",
"157 -152 OFFCURVE",
"140 -152 CURVE SMOOTH",
"110 -152 OFFCURVE",
"93 -143 OFFCURVE",
"93 -112 CURVE SMOOTH",
"93 -72 OFFCURVE",
"119 -33 OFFCURVE",
"162 0 CURVE",
"80 0 LINE",
"35 -31 OFFCURVE",
"6 -80 OFFCURVE",
"6 -131 CURVE SMOOTH",
"6 -193 OFFCURVE",
"56 -220 OFFCURVE",
"113 -220 CURVE SMOOTH"
);
}
);
width = 235;
}
);
note = Iogonek;
unicode = 012E;
},
{
glyphname = Itilde;
lastChange = "2015-11-25 04:35:37 +0000";
layers = (
{
layerId = "9971B372-118E-4AC7-9904-5BD2E656A77C";
name = Regular;
paths = (
{
closed = 1;
nodes = (
"172 0 LINE",
"172 644 LINE",
"63 644 LINE",
"63 0 LINE"
);
},
{
closed = 1;
nodes = (
"233 696 OFFCURVE",
"263 709 OFFCURVE",
"276 727 CURVE",
"276 807 LINE",
"258 783 OFFCURVE",
"232 770 OFFCURVE",
"196 770 CURVE SMOOTH",
"143 770 OFFCURVE",
"101 809 OFFCURVE",
"43 809 CURVE SMOOTH",
"10 809 OFFCURVE",
"-25 797 OFFCURVE",
"-42 779 CURVE",
"-42 699 LINE",
"-19 725 OFFCURVE",
"10 735 OFFCURVE",
"45 735 CURVE SMOOTH",
"91 735 OFFCURVE",
"142 696 OFFCURVE",
"197 696 CURVE SMOOTH"
);
}
);
width = 235;
}
);
note = Itilde;
unicode = 0128;
},
{
glyphname = J;
lastChange = "2015-10-24 17:36:09 +0000";
layers = (
{
layerId = "9971B372-118E-4AC7-9904-5BD2E656A77C";
name = Regular;
paths = (
{
closed = 1;
nodes = (
"303 -10 OFFCURVE",
"373 57 OFFCURVE",
"373 180 CURVE SMOOTH",
"373 644 LINE",
"264 644 LINE",
"264 198 LINE SMOOTH",
"264 117 OFFCURVE",
"233 82 OFFCURVE",
"144 82 CURVE SMOOTH",
"101 82 OFFCURVE",
"55 91 OFFCURVE",
"23 105 CURVE",
"23 13 LINE",
"61 -2 OFFCURVE",
"108 -10 OFFCURVE",
"163 -10 CURVE SMOOTH"
);
}
);
width = 431;
}
);
note = J;
unicode = 004A;
},
{
glyphname = Jcircumflex;
lastChange = "2015-10-24 17:36:09 +0000";
layers = (
{
layerId = "9971B372-118E-4AC7-9904-5BD2E656A77C";
name = Regular;
paths = (
{
closed = 1;
nodes = (
"303 -10 OFFCURVE",
"373 57 OFFCURVE",
"373 180 CURVE SMOOTH",
"373 644 LINE",
"264 644 LINE",
"264 198 LINE SMOOTH",
"264 117 OFFCURVE",
"233 82 OFFCURVE",
"144 82 CURVE SMOOTH",
"101 82 OFFCURVE",
"55 91 OFFCURVE",
"23 105 CURVE",
"23 13 LINE",
"61 -2 OFFCURVE",
"108 -10 OFFCURVE",
"163 -10 CURVE SMOOTH"
);
},
{
closed = 1;
nodes = (
"244 687 LINE",
"318 788 LINE",
"394 687 LINE",
"481 687 LINE",
"356 848 LINE",
"280 848 LINE",
"155 687 LINE"
);
}
);
width = 431;
}
);
note = Jcircumflex;
unicode = 0134;
},
{
glyphname = K;
lastChange = "2015-10-24 17:36:10 +0000";
layers = (
{
layerId = "9971B372-118E-4AC7-9904-5BD2E656A77C";
name = Regular;
paths = (
{
closed = 1;
nodes = (
"172 0 LINE",
"172 213 LINE",
"267 315 LINE",
"466 0 LINE",
"582 0 LINE",
"335 384 LINE",
"572 644 LINE",
"446 644 LINE",
"172 348 LINE",
"172 644 LINE",
"63 644 LINE",
"63 0 LINE"
);
}
);
width = 625;
}
);
leftKerningGroup = K;
note = K;
rightKerningGroup = K;
unicode = 004B;
},
{
glyphname = Kcommaaccent;
lastChange = "2015-10-24 17:36:11 +0000";
layers = (
{
layerId = "9971B372-118E-4AC7-9904-5BD2E656A77C";
name = Regular;
paths = (
{
closed = 1;
nodes = (
"172 0 LINE",
"172 213 LINE",
"267 315 LINE",
"466 0 LINE",
"582 0 LINE",
"335 384 LINE",
"572 644 LINE",
"446 644 LINE",
"172 348 LINE",
"172 644 LINE",
"63 644 LINE",
"63 0 LINE"
);
},
{
closed = 1;
nodes = (
"317 -226 LINE",
"363 -37 LINE",
"273 -37 LINE",
"244 -226 LINE"
);
}
);
width = 625;
}
);
leftKerningGroup = K;
note = Kcommaaccent;
rightKerningGroup = K;
unicode = 0136;
},
{
glyphname = L;
lastChange = "2015-10-24 17:36:09 +0000";
layers = (
{
layerId = "9971B372-118E-4AC7-9904-5BD2E656A77C";
name = Regular;
paths = (
{
closed = 1;
nodes = (
"502 0 LINE",
"502 84 LINE",
"172 84 LINE",
"172 644 LINE",
"63 644 LINE",
"63 0 LINE"
);
}
);
width = 525;
}
);
note = L;
rightKerningGroup = L;
unicode = 004C;
},
{
glyphname = Lacute;
lastChange = "2015-10-24 17:36:11 +0000";
layers = (
{
layerId = "9971B372-118E-4AC7-9904-5BD2E656A77C";
name = Regular;
paths = (
{
closed = 1;
nodes = (
"502 0 LINE",
"502 84 LINE",
"172 84 LINE",
"172 644 LINE",
"63 644 LINE",
"63 0 LINE"
);
},
{
closed = 1;
nodes = (
"158 688 LINE",
"242 865 LINE",
"146 865 LINE",
"71 688 LINE"
);
}
);
width = 525;
}
);
note = Lacute;
rightKerningGroup = L;
unicode = 0139;
},
{
glyphname = Lcaron;
lastChange = "2015-10-24 17:36:10 +0000";
layers = (
{
layerId = "9971B372-118E-4AC7-9904-5BD2E656A77C";
name = Regular;
paths = (
{
closed = 1;
nodes = (
"502 0 LINE",
"502 84 LINE",
"172 84 LINE",
"172 644 LINE",
"63 644 LINE",
"63 0 LINE"
);
},
{
closed = 1;
nodes = (
"384 566 LINE",
"430 755 LINE",
"340 755 LINE",
"311 566 LINE"
);
}
);
width = 525;
}
);
note = Lcaron;
rightKerningGroup = L;
unicode = 013D;
},
{
glyphname = Lcommaaccent;
lastChange = "2015-10-24 17:36:09 +0000";
layers = (
{
layerId = "9971B372-118E-4AC7-9904-5BD2E656A77C";
name = Regular;
paths = (
{
closed = 1;
nodes = (
"502 0 LINE",
"502 84 LINE",
"172 84 LINE",
"172 644 LINE",
"63 644 LINE",
"63 0 LINE"
);
},
{
closed = 1;
nodes = (
"291 -226 LINE",
"337 -37 LINE",
"247 -37 LINE",
"218 -226 LINE"
);
}
);
width = 525;
}
);
note = Lcommaaccent;
rightKerningGroup = L;
unicode = 013B;
},
{
glyphname = Ldot;
lastChange = "2015-10-24 17:36:09 +0000";
layers = (
{
layerId = "9971B372-118E-4AC7-9904-5BD2E656A77C";
name = Regular;
paths = (
{
closed = 1;
nodes = (
"502 0 LINE",
"502 84 LINE",
"172 84 LINE",
"172 644 LINE",
"63 644 LINE",
"63 0 LINE"
);
},
{
closed = 1;
nodes = (
"408 267 LINE",
"408 355 LINE",
"316 355 LINE",
"316 267 LINE"
);
}
);
width = 525;
}
);
note = Ldot;
rightKerningGroup = L;
unicode = 013F;
},
{
glyphname = Ldotbelow;
lastChange = "2015-11-25 04:36:17 +0000";
layers = (
{
layerId = "9971B372-118E-4AC7-9904-5BD2E656A77C";
name = Regular;
paths = (
{
closed = 1;
nodes = (
"502 0 LINE",
"502 84 LINE",
"172 84 LINE",
"172 644 LINE",
"63 644 LINE",
"63 0 LINE"
);
},
{
closed = 1;
nodes = (
"322 -173 LINE",
"322 -85 LINE",
"228 -85 LINE",
"228 -173 LINE"
);
}
);
width = 525;
}
);
note = Ldotbelow;
rightKerningGroup = L;
unicode = 1E36;
},
{
glyphname = Ldotbelowmacron;
lastChange = "2015-11-25 04:36:09 +0000";
layers = (
{
layerId = "9971B372-118E-4AC7-9904-5BD2E656A77C";
name = Regular;
paths = (
{
closed = 1;
nodes = (
"502 0 LINE",
"502 84 LINE",
"172 84 LINE",
"172 644 LINE",
"63 644 LINE",
"63 0 LINE"
);
},
{
closed = 1;
nodes = (
"322 -173 LINE",
"322 -85 LINE",
"228 -85 LINE",
"228 -173 LINE"
);
},
{
closed = 1;
nodes = (
"285 717 LINE",
"285 788 LINE",
"-13 788 LINE",
"-13 717 LINE"
);
}
);
width = 525;
}
);
note = Ldotbelowmacron;
rightKerningGroup = L;
unicode = 1E38;
},
{
glyphname = Llinebelow;
lastChange = "2015-10-24 17:36:10 +0000";
layers = (
{
layerId = "9971B372-118E-4AC7-9904-5BD2E656A77C";
name = Regular;
paths = (
{
closed = 1;
nodes = (
"502 0 LINE",
"502 84 LINE",
"172 84 LINE",
"172 644 LINE",
"63 644 LINE",
"63 0 LINE"
);
},
{
closed = 1;
nodes = (
"420 -146 LINE",
"420 -75 LINE",
"122 -75 LINE",
"122 -146 LINE"
);
}
);
width = 525;
}
);
note = Llinebelow;
rightKerningGroup = L;
unicode = 1E3A;
},
{
glyphname = Lslash;
lastChange = "2015-10-24 17:36:09 +0000";
layers = (
{
layerId = "9971B372-118E-4AC7-9904-5BD2E656A77C";
name = Regular;
paths = (
{
closed = 1;
nodes = (
"502 0 LINE",
"502 84 LINE",
"172 84 LINE",
"172 315 LINE",
"301 372 LINE",
"301 456 LINE",
"172 399 LINE",
"172 644 LINE",
"63 644 LINE",
"63 351 LINE",
"-24 313 LINE",
"-24 229 LINE",
"63 267 LINE",
"63 0 LINE"
);
}
);
width = 525;
}
);
note = Lslash;
rightKerningGroup = L;
unicode = 0141;
},
{
glyphname = M;
lastChange = "2015-10-24 17:36:09 +0000";
layers = (
{
layerId = "9971B372-118E-4AC7-9904-5BD2E656A77C";
name = Regular;
paths = (
{
closed = 1;
nodes = (
"171 0 LINE",
"171 467 LINE",
"346 111 LINE",
"412 111 LINE",
"586 467 LINE",
"586 0 LINE",
"694 0 LINE",
"694 644 LINE",
"582 644 LINE",
"379 227 LINE",
"175 644 LINE",
"63 644 LINE",
"63 0 LINE"
);
}
);
width = 757;
}
);
note = M;
unicode = 004D;
},
{
glyphname = Mdotbelow;
lastChange = "2015-10-24 17:36:10 +0000";
layers = (
{
layerId = "9971B372-118E-4AC7-9904-5BD2E656A77C";
name = Regular;
paths = (
{
closed = 1;
nodes = (
"171 0 LINE",
"171 467 LINE",
"346 111 LINE",
"412 111 LINE",
"586 467 LINE",
"586 0 LINE",
"694 0 LINE",
"694 644 LINE",
"582 644 LINE",
"379 227 LINE",
"175 644 LINE",
"63 644 LINE",
"63 0 LINE"
);
},
{
closed = 1;
nodes = (
"427 -173 LINE",
"427 -85 LINE",
"333 -85 LINE",
"333 -173 LINE"
);
}
);
width = 757;
}
);
note = Mdotbelow;
unicode = 1E42;
},
{
glyphname = N;
lastChange = "2015-10-24 17:36:10 +0000";
layers = (
{
layerId = "9971B372-118E-4AC7-9904-5BD2E656A77C";
name = Regular;
paths = (
{
closed = 1;
nodes = (
"172 0 LINE",
"172 473 LINE",
"507 0 LINE",
"603 0 LINE",
"603 644 LINE",
"495 644 LINE",
"495 170 LINE",
"159 644 LINE",
"63 644 LINE",
"63 0 LINE"
);
}
);
width = 667;
}
);
note = N;
unicode = 004E;
},
{
glyphname = Nacute;
lastChange = "2015-10-24 17:36:10 +0000";
layers = (
{
layerId = "9971B372-118E-4AC7-9904-5BD2E656A77C";
name = Regular;
paths = (
{
closed = 1;
nodes = (
"172 0 LINE",
"172 473 LINE",
"507 0 LINE",
"603 0 LINE",
"603 644 LINE",
"495 644 LINE",
"495 170 LINE",
"159 644 LINE",
"63 644 LINE",
"63 0 LINE"
);
},
{
closed = 1;
nodes = (
"370 688 LINE",
"454 865 LINE",
"358 865 LINE",
"283 688 LINE"
);
}
);
width = 667;
}
);
note = Nacute;
unicode = 0143;
},
{
glyphname = Ncaron;
lastChange = "2015-10-24 17:36:10 +0000";
layers = (
{
layerId = "9971B372-118E-4AC7-9904-5BD2E656A77C";
name = Regular;
paths = (
{
closed = 1;
nodes = (
"172 0 LINE",
"172 473 LINE",
"507 0 LINE",
"603 0 LINE",
"603 644 LINE",
"495 644 LINE",
"495 170 LINE",
"159 644 LINE",
"63 644 LINE",
"63 0 LINE"
);
},
{
closed = 1;
nodes = (
"379 687 LINE",
"504 848 LINE",
"417 848 LINE",
"341 747 LINE",
"267 848 LINE",
"178 848 LINE",
"303 687 LINE"
);
}
);
width = 667;
}
);
note = Ncaron;
unicode = 0147;
},
{
glyphname = Ncommaaccent;
lastChange = "2015-10-24 17:36:09 +0000";
layers = (
{
layerId = "9971B372-118E-4AC7-9904-5BD2E656A77C";
name = Regular;
paths = (
{
closed = 1;
nodes = (
"172 0 LINE",
"172 473 LINE",
"507 0 LINE",
"603 0 LINE",
"603 644 LINE",
"495 644 LINE",
"495 170 LINE",
"159 644 LINE",
"63 644 LINE",
"63 0 LINE"
);
},
{
closed = 1;
nodes = (
"342 -226 LINE",
"388 -37 LINE",
"298 -37 LINE",
"269 -226 LINE"
);
}
);
width = 667;
}
);
note = Ncommaaccent;
unicode = 0145;
},
{
glyphname = Ndotaccent;
lastChange = "2015-10-24 17:36:10 +0000";
layers = (
{
layerId = "9971B372-118E-4AC7-9904-5BD2E656A77C";
name = Regular;
paths = (
{
closed = 1;
nodes = (
"172 0 LINE",
"172 473 LINE",
"507 0 LINE",
"603 0 LINE",
"603 644 LINE",
"495 644 LINE",
"495 170 LINE",
"159 644 LINE",
"63 644 LINE",
"63 0 LINE"
);
},
{
closed = 1;
nodes = (
"390 711 LINE",
"390 799 LINE",
"298 799 LINE",
"298 711 LINE"
);
}
);
width = 667;
}
);
note = Ndotaccent;
unicode = 1E44;
},
{
glyphname = Ndotbelow;
lastChange = "2015-10-24 17:36:11 +0000";
layers = (
{
layerId = "9971B372-118E-4AC7-9904-5BD2E656A77C";
name = Regular;
paths = (
{
closed = 1;
nodes = (
"172 0 LINE",
"172 473 LINE",
"507 0 LINE",
"603 0 LINE",
"603 644 LINE",
"495 644 LINE",
"495 170 LINE",
"159 644 LINE",
"63 644 LINE",
"63 0 LINE"
);
},
{
closed = 1;
nodes = (
"381 -173 LINE",
"381 -85 LINE",
"287 -85 LINE",
"287 -173 LINE"
);
}
);
width = 667;
}
);
note = Ndotbelow;
unicode = 1E46;
},
{
glyphname = Eng;
lastChange = "2015-10-24 17:36:10 +0000";
layers = (
{
layerId = "9971B372-118E-4AC7-9904-5BD2E656A77C";
name = Regular;
paths = (
{
closed = 1;
nodes = (
"551 -234 OFFCURVE",
"603 -176 OFFCURVE",
"603 -86 CURVE SMOOTH",
"603 644 LINE",
"495 644 LINE",
"495 170 LINE",
"159 644 LINE",
"63 644 LINE",
"63 0 LINE",
"172 0 LINE",
"172 473 LINE",
"495 17 LINE",
"495 -76 LINE SMOOTH",
"495 -128 OFFCURVE",
"474 -149 OFFCURVE",
"411 -149 CURVE SMOOTH",
"393 -149 OFFCURVE",
"372 -146 OFFCURVE",
"350 -139 CURVE",
"350 -218 LINE",
"378 -229 OFFCURVE",
"411 -234 OFFCURVE",
"449 -234 CURVE SMOOTH"
);
}
);
width = 667;
}
);
note = Eng;
unicode = 014A;
},
{
glyphname = Nlinebelow;
lastChange = "2015-10-24 17:36:09 +0000";
layers = (
{
layerId = "9971B372-118E-4AC7-9904-5BD2E656A77C";
name = Regular;
paths = (
{
closed = 1;
nodes = (
"172 0 LINE",
"172 473 LINE",
"507 0 LINE",
"603 0 LINE",
"603 644 LINE",
"495 644 LINE",
"495 170 LINE",
"159 644 LINE",
"63 644 LINE",
"63 0 LINE"
);
},
{
closed = 1;
nodes = (
"486 -143 LINE",
"486 -72 LINE",
"188 -72 LINE",
"188 -143 LINE"
);
}
);
width = 667;
}
);
note = Nlinebelow;
unicode = 1E48;
},
{
glyphname = Ntilde;
lastChange = "2015-10-24 17:36:10 +0000";
layers = (
{
layerId = "9971B372-118E-4AC7-9904-5BD2E656A77C";
name = Regular;
paths = (
{
closed = 1;
nodes = (
"172 0 LINE",
"172 473 LINE",
"507 0 LINE",
"603 0 LINE",
"603 644 LINE",
"495 644 LINE",
"495 170 LINE",
"159 644 LINE",
"63 644 LINE",
"63 0 LINE"
);
},
{
closed = 1;
nodes = (
"452 703 OFFCURVE",
"482 716 OFFCURVE",
"495 734 CURVE",
"495 814 LINE",
"477 790 OFFCURVE",
"451 777 OFFCURVE",
"415 777 CURVE SMOOTH",
"362 777 OFFCURVE",
"320 816 OFFCURVE",
"262 816 CURVE SMOOTH",
"229 816 OFFCURVE",
"194 804 OFFCURVE",
"177 786 CURVE",
"177 706 LINE",
"200 732 OFFCURVE",
"229 742 OFFCURVE",
"264 742 CURVE SMOOTH",
"310 742 OFFCURVE",
"361 703 OFFCURVE",
"416 703 CURVE SMOOTH"
);
}
);
width = 667;
}
);
note = Ntilde;
unicode = 00D1;
},
{
glyphname = O;
lastChange = "2015-10-24 17:36:09 +0000";
layers = (
{
layerId = "9971B372-118E-4AC7-9904-5BD2E656A77C";
name = Regular;
paths = (
{
closed = 1;
nodes = (
"553 -10 OFFCURVE",
"653 94 OFFCURVE",
"653 320 CURVE SMOOTH",
"653 554 OFFCURVE",
"553 654 OFFCURVE",
"348 654 CURVE SMOOTH",
"144 654 OFFCURVE",
"43 554 OFFCURVE",
"43 320 CURVE SMOOTH",
"43 94 OFFCURVE",
"144 -10 OFFCURVE",
"348 -10 CURVE SMOOTH"
);
},
{
closed = 1;
nodes = (
"215 82 OFFCURVE",
"153 151 OFFCURVE",
"153 320 CURVE SMOOTH",
"153 498 OFFCURVE",
"215 561 OFFCURVE",
"348 561 CURVE SMOOTH",
"482 561 OFFCURVE",
"544 498 OFFCURVE",
"544 320 CURVE SMOOTH",
"544 151 OFFCURVE",
"482 82 OFFCURVE",
"348 82 CURVE SMOOTH"
);
}
);
width = 697;
}
);
leftKerningGroup = O;
note = O;
rightKerningGroup = O;
unicode = 004F;
},
{
glyphname = Oacute;
lastChange = "2015-10-24 17:36:10 +0000";
layers = (
{
layerId = "9971B372-118E-4AC7-9904-5BD2E656A77C";
name = Regular;
paths = (
{
closed = 1;
nodes = (
"553 -10 OFFCURVE",
"653 94 OFFCURVE",
"653 320 CURVE SMOOTH",
"653 554 OFFCURVE",
"553 654 OFFCURVE",
"348 654 CURVE SMOOTH",
"144 654 OFFCURVE",
"43 554 OFFCURVE",
"43 320 CURVE SMOOTH",
"43 94 OFFCURVE",
"144 -10 OFFCURVE",
"348 -10 CURVE SMOOTH"
);
},
{
closed = 1;
nodes = (
"215 82 OFFCURVE",
"153 151 OFFCURVE",
"153 320 CURVE SMOOTH",
"153 498 OFFCURVE",
"215 561 OFFCURVE",
"348 561 CURVE SMOOTH",
"482 561 OFFCURVE",
"544 498 OFFCURVE",
"544 320 CURVE SMOOTH",
"544 151 OFFCURVE",
"482 82 OFFCURVE",
"348 82 CURVE SMOOTH"
);
},
{
closed = 1;
nodes = (
"387 688 LINE",
"471 865 LINE",
"375 865 LINE",
"300 688 LINE"
);
}
);
width = 697;
}
);
leftKerningGroup = O;
note = Oacute;
rightKerningGroup = O;
unicode = 00D3;
},
{
glyphname = Obreve;
lastChange = "2015-10-24 17:36:10 +0000";
layers = (
{
layerId = "9971B372-118E-4AC7-9904-5BD2E656A77C";
name = Regular;
paths = (
{
closed = 1;
nodes = (
"553 -10 OFFCURVE",
"653 94 OFFCURVE",
"653 320 CURVE SMOOTH",
"653 554 OFFCURVE",
"553 654 OFFCURVE",
"348 654 CURVE SMOOTH",
"144 654 OFFCURVE",
"43 554 OFFCURVE",
"43 320 CURVE SMOOTH",
"43 94 OFFCURVE",
"144 -10 OFFCURVE",
"348 -10 CURVE SMOOTH"
);
},
{
closed = 1;
nodes = (
"215 82 OFFCURVE",
"153 151 OFFCURVE",
"153 320 CURVE SMOOTH",
"153 498 OFFCURVE",
"215 561 OFFCURVE",
"348 561 CURVE SMOOTH",
"482 561 OFFCURVE",
"544 498 OFFCURVE",
"544 320 CURVE SMOOTH",
"544 151 OFFCURVE",
"482 82 OFFCURVE",
"348 82 CURVE SMOOTH"
);
},
{
closed = 1;
nodes = (
"436 688 OFFCURVE",
"491 743 OFFCURVE",
"491 829 CURVE",
"417 829 LINE",
"417 783 OFFCURVE",
"392 753 OFFCURVE",
"347 753 CURVE SMOOTH",
"304 753 OFFCURVE",
"280 783 OFFCURVE",
"280 829 CURVE",
"206 829 LINE",
"206 743 OFFCURVE",
"259 688 OFFCURVE",
"347 688 CURVE SMOOTH"
);
}
);
width = 697;
}
);
leftKerningGroup = O;
note = Obreve;
rightKerningGroup = O;
unicode = 014E;
},
{
glyphname = Ocaron;
lastChange = "2015-10-24 17:36:09 +0000";
layers = (
{
layerId = "9971B372-118E-4AC7-9904-5BD2E656A77C";
name = Regular;
paths = (
{
closed = 1;
nodes = (
"553 -10 OFFCURVE",
"653 94 OFFCURVE",
"653 320 CURVE SMOOTH",
"653 554 OFFCURVE",
"553 654 OFFCURVE",
"348 654 CURVE SMOOTH",
"144 654 OFFCURVE",
"43 554 OFFCURVE",
"43 320 CURVE SMOOTH",
"43 94 OFFCURVE",
"144 -10 OFFCURVE",
"348 -10 CURVE SMOOTH"
);
},
{
closed = 1;
nodes = (
"215 82 OFFCURVE",
"153 151 OFFCURVE",
"153 320 CURVE SMOOTH",
"153 498 OFFCURVE",
"215 561 OFFCURVE",
"348 561 CURVE SMOOTH",
"482 561 OFFCURVE",
"544 498 OFFCURVE",
"544 320 CURVE SMOOTH",
"544 151 OFFCURVE",
"482 82 OFFCURVE",
"348 82 CURVE SMOOTH"
);
},
{
closed = 1;
nodes = (
"386 687 LINE",
"511 848 LINE",
"424 848 LINE",
"348 747 LINE",
"274 848 LINE",
"185 848 LINE",
"310 687 LINE"
);
}
);
width = 697;
}
);
leftKerningGroup = O;
note = Ocaron;
rightKerningGroup = O;
unicode = 01D1;
},
{
glyphname = Ocircumflex;
lastChange = "2015-10-24 17:36:10 +0000";
layers = (
{
layerId = "9971B372-118E-4AC7-9904-5BD2E656A77C";
name = Regular;
paths = (
{
closed = 1;
nodes = (
"553 -10 OFFCURVE",
"653 94 OFFCURVE",
"653 320 CURVE SMOOTH",
"653 554 OFFCURVE",
"553 654 OFFCURVE",
"348 654 CURVE SMOOTH",
"144 654 OFFCURVE",
"43 554 OFFCURVE",
"43 320 CURVE SMOOTH",
"43 94 OFFCURVE",
"144 -10 OFFCURVE",
"348 -10 CURVE SMOOTH"
);
},
{
closed = 1;
nodes = (
"215 82 OFFCURVE",
"153 151 OFFCURVE",
"153 320 CURVE SMOOTH",
"153 498 OFFCURVE",
"215 561 OFFCURVE",
"348 561 CURVE SMOOTH",
"482 561 OFFCURVE",
"544 498 OFFCURVE",
"544 320 CURVE SMOOTH",
"544 151 OFFCURVE",
"482 82 OFFCURVE",
"348 82 CURVE SMOOTH"
);
},
{
closed = 1;
nodes = (
"274 687 LINE",
"348 788 LINE",
"424 687 LINE",
"511 687 LINE",
"386 848 LINE",
"310 848 LINE",
"185 687 LINE"
);
}
);
width = 697;
}
);
leftKerningGroup = O;
note = Ocircumflex;
rightKerningGroup = O;
unicode = 00D4;
},
{
glyphname = Ocircumflexacute;
lastChange = "2015-10-24 17:36:09 +0000";
layers = (
{
layerId = "9971B372-118E-4AC7-9904-5BD2E656A77C";
name = Regular;
paths = (
{
closed = 1;
nodes = (
"553 -10 OFFCURVE",
"653 94 OFFCURVE",
"653 320 CURVE SMOOTH",
"653 554 OFFCURVE",
"553 654 OFFCURVE",
"348 654 CURVE SMOOTH",
"144 654 OFFCURVE",
"43 554 OFFCURVE",
"43 320 CURVE SMOOTH",
"43 94 OFFCURVE",
"144 -10 OFFCURVE",
"348 -10 CURVE SMOOTH"
);
},
{
closed = 1;
nodes = (
"215 82 OFFCURVE",
"153 151 OFFCURVE",
"153 320 CURVE SMOOTH",
"153 498 OFFCURVE",
"215 561 OFFCURVE",
"348 561 CURVE SMOOTH",
"482 561 OFFCURVE",
"544 498 OFFCURVE",
"544 320 CURVE SMOOTH",
"544 151 OFFCURVE",
"482 82 OFFCURVE",
"348 82 CURVE SMOOTH"
);
},
{
closed = 1;
nodes = (
"281 687 LINE",
"351 769 LINE",
"423 687 LINE",
"512 687 LINE",
"393 814 LINE",
"309 814 LINE",
"190 687 LINE"
);
},
{
closed = 1;
nodes = (
"519 800 LINE",
"589 933 LINE",
"506 933 LINE",
"442 800 LINE"
);
}
);
width = 697;
}
);
leftKerningGroup = O;
note = Ocircumflexacute;
rightKerningGroup = O;
unicode = 1ED0;
},
{
glyphname = Ocircumflexdotbelow;
lastChange = "2015-11-25 04:36:37 +0000";
layers = (
{
layerId = "9971B372-118E-4AC7-9904-5BD2E656A77C";
name = Regular;
paths = (
{
closed = 1;
nodes = (
"553 -10 OFFCURVE",
"653 94 OFFCURVE",
"653 320 CURVE SMOOTH",
"653 554 OFFCURVE",
"553 654 OFFCURVE",
"348 654 CURVE SMOOTH",
"144 654 OFFCURVE",
"43 554 OFFCURVE",
"43 320 CURVE SMOOTH",
"43 94 OFFCURVE",
"144 -10 OFFCURVE",
"348 -10 CURVE SMOOTH"
);
},
{
closed = 1;
nodes = (
"215 82 OFFCURVE",
"153 151 OFFCURVE",
"153 320 CURVE SMOOTH",
"153 498 OFFCURVE",
"215 561 OFFCURVE",
"348 561 CURVE SMOOTH",
"482 561 OFFCURVE",
"544 498 OFFCURVE",
"544 320 CURVE SMOOTH",
"544 151 OFFCURVE",
"482 82 OFFCURVE",
"348 82 CURVE SMOOTH"
);
},
{
closed = 1;
nodes = (
"395 -173 LINE",
"395 -85 LINE",
"301 -85 LINE",
"301 -173 LINE"
);
},
{
closed = 1;
nodes = (
"274 692 LINE",
"348 793 LINE",
"424 692 LINE",
"511 692 LINE",
"386 853 LINE",
"310 853 LINE",
"185 692 LINE"
);
}
);
width = 697;
}
);
leftKerningGroup = O;
note = Ocircumflexdotbelow;
rightKerningGroup = O;
unicode = 1ED8;
},
{
glyphname = Ocircumflexgrave;
lastChange = "2015-11-25 04:36:43 +0000";
layers = (
{
layerId = "9971B372-118E-4AC7-9904-5BD2E656A77C";
name = Regular;
paths = (
{
closed = 1;
nodes = (
"553 -10 OFFCURVE",
"653 94 OFFCURVE",
"653 320 CURVE SMOOTH",
"653 554 OFFCURVE",
"553 654 OFFCURVE",
"348 654 CURVE SMOOTH",
"144 654 OFFCURVE",
"43 554 OFFCURVE",
"43 320 CURVE SMOOTH",
"43 94 OFFCURVE",
"144 -10 OFFCURVE",
"348 -10 CURVE SMOOTH"
);
},
{
closed = 1;
nodes = (
"215 82 OFFCURVE",
"153 151 OFFCURVE",
"153 320 CURVE SMOOTH",
"153 498 OFFCURVE",
"215 561 OFFCURVE",
"348 561 CURVE SMOOTH",
"482 561 OFFCURVE",
"544 498 OFFCURVE",
"544 320 CURVE SMOOTH",
"544 151 OFFCURVE",
"482 82 OFFCURVE",
"348 82 CURVE SMOOTH"
);
},
{
closed = 1;
nodes = (
"257 800 LINE",
"193 933 LINE",
"109 933 LINE",
"180 800 LINE"
);
},
{
closed = 1;
nodes = (
"276 687 LINE",
"347 769 LINE",
"418 687 LINE",
"508 687 LINE",
"390 814 LINE",
"305 814 LINE",
"187 687 LINE"
);
}
);
width = 697;
}
);
leftKerningGroup = O;
note = Ocircumflexgrave;
rightKerningGroup = O;
unicode = 1ED2;
},
{
glyphname = Ocircumflexhookabove;
lastChange = "2015-10-24 17:36:10 +0000";
layers = (
{
layerId = "9971B372-118E-4AC7-9904-5BD2E656A77C";
name = Regular;
paths = (
{
closed = 1;
nodes = (
"553 -10 OFFCURVE",
"653 94 OFFCURVE",
"653 320 CURVE SMOOTH",
"653 554 OFFCURVE",
"553 654 OFFCURVE",
"348 654 CURVE SMOOTH",
"144 654 OFFCURVE",
"43 554 OFFCURVE",
"43 320 CURVE SMOOTH",
"43 94 OFFCURVE",
"144 -10 OFFCURVE",
"348 -10 CURVE SMOOTH"
);
},
{
closed = 1;
nodes = (
"215 82 OFFCURVE",
"153 151 OFFCURVE",
"153 320 CURVE SMOOTH",
"153 498 OFFCURVE",
"215 561 OFFCURVE",
"348 561 CURVE SMOOTH",
"482 561 OFFCURVE",
"544 498 OFFCURVE",
"544 320 CURVE SMOOTH",
"544 151 OFFCURVE",
"482 82 OFFCURVE",
"348 82 CURVE SMOOTH"
);
},
{
closed = 1;
nodes = (
"275 687 LINE",
"346 769 LINE",
"417 687 LINE",
"506 687 LINE",
"388 814 LINE",
"303 814 LINE",
"185 687 LINE"
);
},
{
closed = 1;
nodes = (
"522 779 LINE",
"522 813 LINE",
"576 821 OFFCURVE",
"599 846 OFFCURVE",
"599 890 CURVE SMOOTH",
"599 937 OFFCURVE",
"561 968 OFFCURVE",
"496 968 CURVE SMOOTH",
"463 968 OFFCURVE",
"439 963 OFFCURVE",
"419 956 CURVE",
"419 903 LINE",
"435 910 OFFCURVE",
"453 915 OFFCURVE",
"475 915 CURVE SMOOTH",
"507 915 OFFCURVE",
"522 906 OFFCURVE",
"522 884 CURVE SMOOTH",
"522 860 OFFCURVE",
"509 848 OFFCURVE",
"445 845 CURVE",
"445 779 LINE"
);
}
);
width = 697;
}
);
leftKerningGroup = O;
note = Ocircumflexhookabove;
rightKerningGroup = O;
unicode = 1ED4;
},
{
glyphname = Ocircumflextilde;
lastChange = "2015-10-24 17:36:10 +0000";
layers = (
{
layerId = "9971B372-118E-4AC7-9904-5BD2E656A77C";
name = Regular;
paths = (
{
closed = 1;
nodes = (
"553 -10 OFFCURVE",
"653 94 OFFCURVE",
"653 320 CURVE SMOOTH",
"653 554 OFFCURVE",
"553 654 OFFCURVE",
"348 654 CURVE SMOOTH",
"144 654 OFFCURVE",
"43 554 OFFCURVE",
"43 320 CURVE SMOOTH",
"43 94 OFFCURVE",
"144 -10 OFFCURVE",
"348 -10 CURVE SMOOTH"
);
},
{
closed = 1;
nodes = (
"215 82 OFFCURVE",
"153 151 OFFCURVE",
"153 320 CURVE SMOOTH",
"153 498 OFFCURVE",
"215 561 OFFCURVE",
"348 561 CURVE SMOOTH",
"482 561 OFFCURVE",
"544 498 OFFCURVE",
"544 320 CURVE SMOOTH",
"544 151 OFFCURVE",
"482 82 OFFCURVE",
"348 82 CURVE SMOOTH"
);
},
{
closed = 1;
nodes = (
"435 688 OFFCURVE",
"504 729 OFFCURVE",
"504 836 CURVE",
"438 836 LINE",
"438 777 OFFCURVE",
"403 747 OFFCURVE",
"348 747 CURVE SMOOTH",
"293 747 OFFCURVE",
"258 777 OFFCURVE",
"258 836 CURVE",
"192 836 LINE",
"192 729 OFFCURVE",
"261 688 OFFCURVE",
"348 688 CURVE SMOOTH"
);
},
{
closed = 1;
nodes = (
"460 857 OFFCURVE",
"489 869 OFFCURVE",
"502 886 CURVE",
"502 958 LINE",
"485 934 OFFCURVE",
"459 922 OFFCURVE",
"425 922 CURVE SMOOTH",
"374 922 OFFCURVE",
"334 960 OFFCURVE",
"278 960 CURVE SMOOTH",
"246 960 OFFCURVE",
"213 948 OFFCURVE",
"196 931 CURVE",
"196 860 LINE",
"218 884 OFFCURVE",
"246 894 OFFCURVE",
"279 894 CURVE SMOOTH",
"324 894 OFFCURVE",
"373 857 OFFCURVE",
"426 857 CURVE SMOOTH"
);
}
);
width = 697;
}
);
leftKerningGroup = O;
note = Ocircumflextilde;
rightKerningGroup = O;
unicode = 1ED6;
},
{
glyphname = Odieresis;
lastChange = "2015-10-24 17:36:10 +0000";
layers = (
{
layerId = "9971B372-118E-4AC7-9904-5BD2E656A77C";
name = Regular;
paths = (
{
closed = 1;
nodes = (
"553 -10 OFFCURVE",
"653 94 OFFCURVE",
"653 320 CURVE SMOOTH",
"653 554 OFFCURVE",
"553 654 OFFCURVE",
"348 654 CURVE SMOOTH",
"144 654 OFFCURVE",
"43 554 OFFCURVE",
"43 320 CURVE SMOOTH",
"43 94 OFFCURVE",
"144 -10 OFFCURVE",
"348 -10 CURVE SMOOTH"
);
},
{
closed = 1;
nodes = (
"215 82 OFFCURVE",
"153 151 OFFCURVE",
"153 320 CURVE SMOOTH",
"153 498 OFFCURVE",
"215 561 OFFCURVE",
"348 561 CURVE SMOOTH",
"482 561 OFFCURVE",
"544 498 OFFCURVE",
"544 320 CURVE SMOOTH",
"544 151 OFFCURVE",
"482 82 OFFCURVE",
"348 82 CURVE SMOOTH"
);
},
{
closed = 1;
nodes = (
"301 712 LINE",
"301 798 LINE",
"209 798 LINE",
"209 712 LINE"
);
},
{
closed = 1;
nodes = (
"487 712 LINE",
"487 798 LINE",
"395 798 LINE",
"395 712 LINE"
);
}
);
width = 697;
}
);
leftKerningGroup = O;
note = Odieresis;
rightKerningGroup = O;
unicode = 00D6;
},
{
glyphname = Odotbelow;
lastChange = "2015-11-25 04:36:49 +0000";
layers = (
{
layerId = "9971B372-118E-4AC7-9904-5BD2E656A77C";
name = Regular;
paths = (
{
closed = 1;
nodes = (
"553 -10 OFFCURVE",
"653 94 OFFCURVE",
"653 320 CURVE SMOOTH",
"653 554 OFFCURVE",
"553 654 OFFCURVE",
"348 654 CURVE SMOOTH",
"144 654 OFFCURVE",
"43 554 OFFCURVE",
"43 320 CURVE SMOOTH",
"43 94 OFFCURVE",
"144 -10 OFFCURVE",
"348 -10 CURVE SMOOTH"
);
},
{
closed = 1;
nodes = (
"215 82 OFFCURVE",
"153 151 OFFCURVE",
"153 320 CURVE SMOOTH",
"153 498 OFFCURVE",
"215 561 OFFCURVE",
"348 561 CURVE SMOOTH",
"482 561 OFFCURVE",
"544 498 OFFCURVE",
"544 320 CURVE SMOOTH",
"544 151 OFFCURVE",
"482 82 OFFCURVE",
"348 82 CURVE SMOOTH"
);
},
{
closed = 1;
nodes = (
"395 -173 LINE",
"395 -85 LINE",
"301 -85 LINE",
"301 -173 LINE"
);
}
);
width = 697;
}
);
leftKerningGroup = O;
note = Odotbelow;
rightKerningGroup = O;
unicode = 1ECC;
},
{
glyphname = Ograve;
lastChange = "2015-10-24 17:36:09 +0000";
layers = (
{
layerId = "9971B372-118E-4AC7-9904-5BD2E656A77C";
name = Regular;
paths = (
{
closed = 1;
nodes = (
"553 -10 OFFCURVE",
"653 94 OFFCURVE",
"653 320 CURVE SMOOTH",
"653 554 OFFCURVE",
"553 654 OFFCURVE",
"348 654 CURVE SMOOTH",
"144 654 OFFCURVE",
"43 554 OFFCURVE",
"43 320 CURVE SMOOTH",
"43 94 OFFCURVE",
"144 -10 OFFCURVE",
"348 -10 CURVE SMOOTH"
);
},
{
closed = 1;
nodes = (
"215 82 OFFCURVE",
"153 151 OFFCURVE",
"153 320 CURVE SMOOTH",
"153 498 OFFCURVE",
"215 561 OFFCURVE",
"348 561 CURVE SMOOTH",
"482 561 OFFCURVE",
"544 498 OFFCURVE",
"544 320 CURVE SMOOTH",
"544 151 OFFCURVE",
"482 82 OFFCURVE",
"348 82 CURVE SMOOTH"
);
},
{
closed = 1;
nodes = (
"398 688 LINE",
"322 865 LINE",
"227 865 LINE",
"310 688 LINE"
);
}
);
width = 697;
}
);
leftKerningGroup = O;
note = Ograve;
rightKerningGroup = O;
unicode = 00D2;
},
{
glyphname = Ohookabove;
lastChange = "2015-10-24 17:36:10 +0000";
layers = (
{
layerId = "9971B372-118E-4AC7-9904-5BD2E656A77C";
name = Regular;
paths = (
{
closed = 1;
nodes = (
"553 -10 OFFCURVE",
"653 94 OFFCURVE",
"653 320 CURVE SMOOTH",
"653 554 OFFCURVE",
"553 654 OFFCURVE",
"348 654 CURVE SMOOTH",
"144 654 OFFCURVE",
"43 554 OFFCURVE",
"43 320 CURVE SMOOTH",
"43 94 OFFCURVE",
"144 -10 OFFCURVE",
"348 -10 CURVE SMOOTH"
);
},
{
closed = 1;
nodes = (
"215 82 OFFCURVE",
"153 151 OFFCURVE",
"153 320 CURVE SMOOTH",
"153 498 OFFCURVE",
"215 561 OFFCURVE",
"348 561 CURVE SMOOTH",
"482 561 OFFCURVE",
"544 498 OFFCURVE",
"544 320 CURVE SMOOTH",
"544 151 OFFCURVE",
"482 82 OFFCURVE",
"348 82 CURVE SMOOTH"
);
},
{
closed = 1;
nodes = (
"392 687 LINE",
"392 734 LINE",
"457 744 OFFCURVE",
"480 773 OFFCURVE",
"480 828 CURVE SMOOTH",
"480 885 OFFCURVE",
"436 921 OFFCURVE",
"354 921 CURVE SMOOTH",
"320 921 OFFCURVE",
"283 916 OFFCURVE",
"261 908 CURVE",
"261 849 LINE",
"278 856 OFFCURVE",
"305 861 OFFCURVE",
"325 861 CURVE SMOOTH",
"373 861 OFFCURVE",
"399 849 OFFCURVE",
"399 819 CURVE SMOOTH",
"399 786 OFFCURVE",
"383 773 OFFCURVE",
"307 769 CURVE",
"307 687 LINE"
);
}
);
width = 697;
}
);
leftKerningGroup = O;
note = Ohookabove;
rightKerningGroup = O;
unicode = 1ECE;
},
{
glyphname = Ohorn;
lastChange = "2015-10-24 17:36:09 +0000";
layers = (
{
layerId = "9971B372-118E-4AC7-9904-5BD2E656A77C";
name = Regular;
paths = (
{
closed = 1;
nodes = (
"553 -10 OFFCURVE",
"653 94 OFFCURVE",
"653 320 CURVE SMOOTH",
"653 395 OFFCURVE",
"643 455 OFFCURVE",
"622 503 CURVE",
"709 516 OFFCURVE",
"753 565 OFFCURVE",
"753 688 CURVE",
"669 688 LINE",
"669 604 OFFCURVE",
"646 578 OFFCURVE",
"573 577 CURVE",
"523 629 OFFCURVE",
"448 654 OFFCURVE",
"348 654 CURVE SMOOTH",
"144 654 OFFCURVE",
"43 554 OFFCURVE",
"43 320 CURVE SMOOTH",
"43 94 OFFCURVE",
"144 -10 OFFCURVE",
"348 -10 CURVE SMOOTH"
);
},
{
closed = 1;
nodes = (
"215 82 OFFCURVE",
"153 151 OFFCURVE",
"153 320 CURVE SMOOTH",
"153 498 OFFCURVE",
"215 561 OFFCURVE",
"348 561 CURVE SMOOTH",
"482 561 OFFCURVE",
"544 498 OFFCURVE",
"544 320 CURVE SMOOTH",
"544 151 OFFCURVE",
"482 82 OFFCURVE",
"348 82 CURVE SMOOTH"
);
}
);
width = 770;
}
);
leftKerningGroup = O;
note = Ohorn;
rightKerningGroup = O;
unicode = 01A0;
},
{
glyphname = Ohornacute;
lastChange = "2015-10-24 17:36:11 +0000";
layers = (
{
layerId = "9971B372-118E-4AC7-9904-5BD2E656A77C";
name = Regular;
paths = (
{
closed = 1;
nodes = (
"553 -10 OFFCURVE",
"653 94 OFFCURVE",
"653 320 CURVE SMOOTH",
"653 395 OFFCURVE",
"643 455 OFFCURVE",
"622 503 CURVE",
"709 516 OFFCURVE",
"753 565 OFFCURVE",
"753 688 CURVE",
"669 688 LINE",
"669 604 OFFCURVE",
"646 578 OFFCURVE",
"573 577 CURVE",
"523 629 OFFCURVE",
"448 654 OFFCURVE",
"348 654 CURVE SMOOTH",
"144 654 OFFCURVE",
"43 554 OFFCURVE",
"43 320 CURVE SMOOTH",
"43 94 OFFCURVE",
"144 -10 OFFCURVE",
"348 -10 CURVE SMOOTH"
);
},
{
closed = 1;
nodes = (
"215 82 OFFCURVE",
"153 151 OFFCURVE",
"153 320 CURVE SMOOTH",
"153 498 OFFCURVE",
"215 561 OFFCURVE",
"348 561 CURVE SMOOTH",
"482 561 OFFCURVE",
"544 498 OFFCURVE",
"544 320 CURVE SMOOTH",
"544 151 OFFCURVE",
"482 82 OFFCURVE",
"348 82 CURVE SMOOTH"
);
},
{
closed = 1;
nodes = (
"402 688 LINE",
"486 865 LINE",
"390 865 LINE",
"315 688 LINE"
);
}
);
width = 770;
}
);
leftKerningGroup = O;
note = Ohornacute;
rightKerningGroup = O;
unicode = 1EDA;
},
{
glyphname = Ohorndotbelow;
lastChange = "2015-11-25 04:36:55 +0000";
layers = (
{
layerId = "9971B372-118E-4AC7-9904-5BD2E656A77C";
name = Regular;
paths = (
{
closed = 1;
nodes = (
"553 -10 OFFCURVE",
"653 94 OFFCURVE",
"653 320 CURVE SMOOTH",
"653 395 OFFCURVE",
"643 455 OFFCURVE",
"622 503 CURVE",
"709 516 OFFCURVE",
"753 565 OFFCURVE",
"753 688 CURVE",
"669 688 LINE",
"669 604 OFFCURVE",
"646 578 OFFCURVE",
"573 577 CURVE",
"523 629 OFFCURVE",
"448 654 OFFCURVE",
"348 654 CURVE SMOOTH",
"144 654 OFFCURVE",
"43 554 OFFCURVE",
"43 320 CURVE SMOOTH",
"43 94 OFFCURVE",
"144 -10 OFFCURVE",
"348 -10 CURVE SMOOTH"
);
},
{
closed = 1;
nodes = (
"215 82 OFFCURVE",
"153 151 OFFCURVE",
"153 320 CURVE SMOOTH",
"153 498 OFFCURVE",
"215 561 OFFCURVE",
"348 561 CURVE SMOOTH",
"482 561 OFFCURVE",
"544 498 OFFCURVE",
"544 320 CURVE SMOOTH",
"544 151 OFFCURVE",
"482 82 OFFCURVE",
"348 82 CURVE SMOOTH"
);
},
{
closed = 1;
nodes = (
"399 -173 LINE",
"399 -85 LINE",
"305 -85 LINE",
"305 -173 LINE"
);
}
);
width = 770;
}
);
leftKerningGroup = O;
note = Ohorndotbelow;
rightKerningGroup = O;
unicode = 1EE2;
},
{
glyphname = Ohorngrave;
lastChange = "2015-10-24 17:36:10 +0000";
layers = (
{
layerId = "9971B372-118E-4AC7-9904-5BD2E656A77C";
name = Regular;
paths = (
{
closed = 1;
nodes = (
"553 -10 OFFCURVE",
"653 94 OFFCURVE",
"653 320 CURVE SMOOTH",
"653 395 OFFCURVE",
"643 455 OFFCURVE",
"622 503 CURVE",
"709 516 OFFCURVE",
"753 565 OFFCURVE",
"753 688 CURVE",
"669 688 LINE",
"669 604 OFFCURVE",
"646 578 OFFCURVE",
"573 577 CURVE",
"523 629 OFFCURVE",
"448 654 OFFCURVE",
"348 654 CURVE SMOOTH",
"144 654 OFFCURVE",
"43 554 OFFCURVE",
"43 320 CURVE SMOOTH",
"43 94 OFFCURVE",
"144 -10 OFFCURVE",
"348 -10 CURVE SMOOTH"
);
},
{
closed = 1;
nodes = (
"215 82 OFFCURVE",
"153 151 OFFCURVE",
"153 320 CURVE SMOOTH",
"153 498 OFFCURVE",
"215 561 OFFCURVE",
"348 561 CURVE SMOOTH",
"482 561 OFFCURVE",
"544 498 OFFCURVE",
"544 320 CURVE SMOOTH",
"544 151 OFFCURVE",
"482 82 OFFCURVE",
"348 82 CURVE SMOOTH"
);
},
{
closed = 1;
nodes = (
"413 688 LINE",
"337 865 LINE",
"242 865 LINE",
"325 688 LINE"
);
}
);
width = 770;
}
);
leftKerningGroup = O;
note = Ohorngrave;
rightKerningGroup = O;
unicode = 1EDC;
},
{
glyphname = Ohornhookabove;
lastChange = "2015-10-24 17:36:10 +0000";
layers = (
{
layerId = "9971B372-118E-4AC7-9904-5BD2E656A77C";
name = Regular;
paths = (
{
closed = 1;
nodes = (
"553 -10 OFFCURVE",
"653 94 OFFCURVE",
"653 320 CURVE SMOOTH",
"653 395 OFFCURVE",
"643 455 OFFCURVE",
"622 503 CURVE",
"709 516 OFFCURVE",
"753 565 OFFCURVE",
"753 688 CURVE",
"669 688 LINE",
"669 604 OFFCURVE",
"646 578 OFFCURVE",
"573 577 CURVE",
"523 629 OFFCURVE",
"448 654 OFFCURVE",
"348 654 CURVE SMOOTH",
"144 654 OFFCURVE",
"43 554 OFFCURVE",
"43 320 CURVE SMOOTH",
"43 94 OFFCURVE",
"144 -10 OFFCURVE",
"348 -10 CURVE SMOOTH"
);
},
{
closed = 1;
nodes = (
"215 82 OFFCURVE",
"153 151 OFFCURVE",
"153 320 CURVE SMOOTH",
"153 498 OFFCURVE",
"215 561 OFFCURVE",
"348 561 CURVE SMOOTH",
"482 561 OFFCURVE",
"544 498 OFFCURVE",
"544 320 CURVE SMOOTH",
"544 151 OFFCURVE",
"482 82 OFFCURVE",
"348 82 CURVE SMOOTH"
);
},
{
closed = 1;
nodes = (
"397 687 LINE",
"397 734 LINE",
"462 744 OFFCURVE",
"485 773 OFFCURVE",
"485 828 CURVE SMOOTH",
"485 885 OFFCURVE",
"441 921 OFFCURVE",
"359 921 CURVE SMOOTH",
"325 921 OFFCURVE",
"288 916 OFFCURVE",
"266 908 CURVE",
"266 849 LINE",
"283 856 OFFCURVE",
"310 861 OFFCURVE",
"330 861 CURVE SMOOTH",
"378 861 OFFCURVE",
"404 849 OFFCURVE",
"404 819 CURVE SMOOTH",
"404 786 OFFCURVE",
"388 773 OFFCURVE",
"312 769 CURVE",
"312 687 LINE"
);
}
);
width = 770;
}
);
leftKerningGroup = O;
note = Ohornhookabove;
rightKerningGroup = O;
unicode = 1EDE;
},
{
glyphname = Ohorntilde;
lastChange = "2015-10-24 17:36:09 +0000";
layers = (
{
layerId = "9971B372-118E-4AC7-9904-5BD2E656A77C";
name = Regular;
paths = (
{
closed = 1;
nodes = (
"553 -10 OFFCURVE",
"653 94 OFFCURVE",
"653 320 CURVE SMOOTH",
"653 395 OFFCURVE",
"643 455 OFFCURVE",
"622 503 CURVE",
"709 516 OFFCURVE",
"753 565 OFFCURVE",
"753 688 CURVE",
"669 688 LINE",
"669 604 OFFCURVE",
"646 578 OFFCURVE",
"573 577 CURVE",
"523 629 OFFCURVE",
"448 654 OFFCURVE",
"348 654 CURVE SMOOTH",
"144 654 OFFCURVE",
"43 554 OFFCURVE",
"43 320 CURVE SMOOTH",
"43 94 OFFCURVE",
"144 -10 OFFCURVE",
"348 -10 CURVE SMOOTH"
);
},
{
closed = 1;
nodes = (
"215 82 OFFCURVE",
"153 151 OFFCURVE",
"153 320 CURVE SMOOTH",
"153 498 OFFCURVE",
"215 561 OFFCURVE",
"348 561 CURVE SMOOTH",
"482 561 OFFCURVE",
"544 498 OFFCURVE",
"544 320 CURVE SMOOTH",
"544 151 OFFCURVE",
"482 82 OFFCURVE",
"348 82 CURVE SMOOTH"
);
},
{
closed = 1;
nodes = (
"478 701 OFFCURVE",
"508 714 OFFCURVE",
"521 732 CURVE",
"521 812 LINE",
"503 788 OFFCURVE",
"477 775 OFFCURVE",
"441 775 CURVE SMOOTH",
"388 775 OFFCURVE",
"346 814 OFFCURVE",
"288 814 CURVE SMOOTH",
"255 814 OFFCURVE",
"220 802 OFFCURVE",
"203 784 CURVE",
"203 704 LINE",
"226 730 OFFCURVE",
"255 740 OFFCURVE",
"290 740 CURVE SMOOTH",
"336 740 OFFCURVE",
"387 701 OFFCURVE",
"442 701 CURVE SMOOTH"
);
}
);
width = 770;
}
);
leftKerningGroup = O;
note = Ohorntilde;
rightKerningGroup = O;
unicode = 1EE0;
},
{
glyphname = Ohungarumlaut;
lastChange = "2015-10-24 17:36:11 +0000";
layers = (
{
layerId = "9971B372-118E-4AC7-9904-5BD2E656A77C";
name = Regular;
paths = (
{
closed = 1;
nodes = (
"553 -10 OFFCURVE",
"653 94 OFFCURVE",
"653 320 CURVE SMOOTH",
"653 554 OFFCURVE",
"553 654 OFFCURVE",
"348 654 CURVE SMOOTH",
"144 654 OFFCURVE",
"43 554 OFFCURVE",
"43 320 CURVE SMOOTH",
"43 94 OFFCURVE",
"144 -10 OFFCURVE",
"348 -10 CURVE SMOOTH"
);
},
{
closed = 1;
nodes = (
"215 82 OFFCURVE",
"153 151 OFFCURVE",
"153 320 CURVE SMOOTH",
"153 498 OFFCURVE",
"215 561 OFFCURVE",
"348 561 CURVE SMOOTH",
"482 561 OFFCURVE",
"544 498 OFFCURVE",
"544 320 CURVE SMOOTH",
"544 151 OFFCURVE",
"482 82 OFFCURVE",
"348 82 CURVE SMOOTH"
);
},
{
closed = 1;
nodes = (
"258 687 LINE",
"344 851 LINE",
"245 851 LINE",
"170 687 LINE"
);
},
{
closed = 1;
nodes = (
"475 687 LINE",
"561 851 LINE",
"462 851 LINE",
"387 687 LINE"
);
}
);
width = 697;
}
);
leftKerningGroup = O;
note = Ohungarumlaut;
rightKerningGroup = O;
unicode = 0150;
},
{
glyphname = Omacron;
lastChange = "2015-10-24 17:36:10 +0000";
layers = (
{
layerId = "9971B372-118E-4AC7-9904-5BD2E656A77C";
name = Regular;
paths = (
{
closed = 1;
nodes = (
"553 -10 OFFCURVE",
"653 94 OFFCURVE",
"653 320 CURVE SMOOTH",
"653 554 OFFCURVE",
"553 654 OFFCURVE",
"348 654 CURVE SMOOTH",
"144 654 OFFCURVE",
"43 554 OFFCURVE",
"43 320 CURVE SMOOTH",
"43 94 OFFCURVE",
"144 -10 OFFCURVE",
"348 -10 CURVE SMOOTH"
);
},
{
closed = 1;
nodes = (
"215 82 OFFCURVE",
"153 151 OFFCURVE",
"153 320 CURVE SMOOTH",
"153 498 OFFCURVE",
"215 561 OFFCURVE",
"348 561 CURVE SMOOTH",
"482 561 OFFCURVE",
"544 498 OFFCURVE",
"544 320 CURVE SMOOTH",
"544 151 OFFCURVE",
"482 82 OFFCURVE",
"348 82 CURVE SMOOTH"
);
},
{
closed = 1;
nodes = (
"495 721 LINE",
"495 792 LINE",
"197 792 LINE",
"197 721 LINE"
);
}
);
width = 697;
}
);
leftKerningGroup = O;
note = Omacron;
rightKerningGroup = O;
unicode = 014C;
},
{
glyphname = Oslash;
lastChange = "2015-10-24 17:36:10 +0000";
layers = (
{
layerId = "9971B372-118E-4AC7-9904-5BD2E656A77C";
name = Regular;
paths = (
{
closed = 1;
nodes = (
"239 -53 LINE",
"258 -2 LINE",
"285 -7 OFFCURVE",
"315 -10 OFFCURVE",
"348 -10 CURVE SMOOTH",
"553 -10 OFFCURVE",
"653 94 OFFCURVE",
"653 320 CURVE SMOOTH",
"653 489 OFFCURVE",
"601 588 OFFCURVE",
"494 630 CURVE",
"518 693 LINE",
"444 693 LINE",
"427 648 LINE",
"402 652 OFFCURVE",
"376 654 OFFCURVE",
"348 654 CURVE SMOOTH",
"144 654 OFFCURVE",
"43 554 OFFCURVE",
"43 320 CURVE SMOOTH",
"43 162 OFFCURVE",
"92 63 OFFCURVE",
"192 18 CURVE",
"165 -53 LINE"
);
},
{
closed = 1;
nodes = (
"177 148 OFFCURVE",
"153 215 OFFCURVE",
"153 320 CURVE SMOOTH",
"153 498 OFFCURVE",
"215 561 OFFCURVE",
"348 561 CURVE SMOOTH",
"364 561 OFFCURVE",
"379 560 OFFCURVE",
"393 558 CURVE",
"227 113 LINE"
);
},
{
closed = 1;
nodes = (
"327 82 OFFCURVE",
"308 84 OFFCURVE",
"291 87 CURVE",
"459 537 LINE",
"516 505 OFFCURVE",
"544 437 OFFCURVE",
"544 320 CURVE SMOOTH",
"544 151 OFFCURVE",
"482 82 OFFCURVE",
"348 82 CURVE SMOOTH"
);
}
);
width = 697;
}
);
leftKerningGroup = O;
note = Oslash;
rightKerningGroup = O;
unicode = 00D8;
},
{
glyphname = Oslashacute;
lastChange = "2015-10-24 17:36:10 +0000";
layers = (
{
layerId = "9971B372-118E-4AC7-9904-5BD2E656A77C";
name = Regular;
paths = (
{
closed = 1;
nodes = (
"239 -53 LINE",
"258 -2 LINE",
"285 -7 OFFCURVE",
"315 -10 OFFCURVE",
"348 -10 CURVE SMOOTH",
"553 -10 OFFCURVE",
"653 94 OFFCURVE",
"653 320 CURVE SMOOTH",
"653 489 OFFCURVE",
"601 588 OFFCURVE",
"494 630 CURVE",
"518 693 LINE",
"444 693 LINE",
"427 648 LINE",
"402 652 OFFCURVE",
"376 654 OFFCURVE",
"348 654 CURVE SMOOTH",
"144 654 OFFCURVE",
"43 554 OFFCURVE",
"43 320 CURVE SMOOTH",
"43 162 OFFCURVE",
"92 63 OFFCURVE",
"192 18 CURVE",
"165 -53 LINE"
);
},
{
closed = 1;
nodes = (
"177 148 OFFCURVE",
"153 215 OFFCURVE",
"153 320 CURVE SMOOTH",
"153 498 OFFCURVE",
"215 561 OFFCURVE",
"348 561 CURVE SMOOTH",
"364 561 OFFCURVE",
"379 560 OFFCURVE",
"393 558 CURVE",
"227 113 LINE"
);
},
{
closed = 1;
nodes = (
"327 82 OFFCURVE",
"308 84 OFFCURVE",
"291 87 CURVE",
"459 537 LINE",
"516 505 OFFCURVE",
"544 437 OFFCURVE",
"544 320 CURVE SMOOTH",
"544 151 OFFCURVE",
"482 82 OFFCURVE",
"348 82 CURVE SMOOTH"
);
},
{
closed = 1;
nodes = (
"372 688 LINE",
"456 865 LINE",
"360 865 LINE",
"285 688 LINE"
);
}
);
width = 697;
}
);
leftKerningGroup = O;
note = Oslashacute;
rightKerningGroup = O;
unicode = 01FE;
},
{
glyphname = Otilde;
lastChange = "2015-10-24 17:36:10 +0000";
layers = (
{
layerId = "9971B372-118E-4AC7-9904-5BD2E656A77C";
name = Regular;
paths = (
{
closed = 1;
nodes = (
"553 -10 OFFCURVE",
"653 94 OFFCURVE",
"653 320 CURVE SMOOTH",
"653 554 OFFCURVE",
"553 654 OFFCURVE",
"348 654 CURVE SMOOTH",
"144 654 OFFCURVE",
"43 554 OFFCURVE",
"43 320 CURVE SMOOTH",
"43 94 OFFCURVE",
"144 -10 OFFCURVE",
"348 -10 CURVE SMOOTH"
);
},
{
closed = 1;
nodes = (
"215 82 OFFCURVE",
"153 151 OFFCURVE",
"153 320 CURVE SMOOTH",
"153 498 OFFCURVE",
"215 561 OFFCURVE",
"348 561 CURVE SMOOTH",
"482 561 OFFCURVE",
"544 498 OFFCURVE",
"544 320 CURVE SMOOTH",
"544 151 OFFCURVE",
"482 82 OFFCURVE",
"348 82 CURVE SMOOTH"
);
},
{
closed = 1;
nodes = (
"464 695 OFFCURVE",
"494 708 OFFCURVE",
"507 726 CURVE",
"507 806 LINE",
"489 782 OFFCURVE",
"463 769 OFFCURVE",
"427 769 CURVE SMOOTH",
"374 769 OFFCURVE",
"332 808 OFFCURVE",
"274 808 CURVE SMOOTH",
"241 808 OFFCURVE",
"206 796 OFFCURVE",
"189 778 CURVE",
"189 698 LINE",
"212 724 OFFCURVE",
"241 734 OFFCURVE",
"276 734 CURVE SMOOTH",
"322 734 OFFCURVE",
"373 695 OFFCURVE",
"428 695 CURVE SMOOTH"
);
}
);
width = 697;
}
);
leftKerningGroup = O;
note = Otilde;
rightKerningGroup = O;
unicode = 00D5;
},
{
glyphname = OE;
lastChange = "2015-10-24 17:36:10 +0000";
layers = (
{
layerId = "9971B372-118E-4AC7-9904-5BD2E656A77C";
name = Regular;
paths = (
{
closed = 1;
nodes = (
"553 -10 OFFCURVE",
"653 94 OFFCURVE",
"653 320 CURVE SMOOTH",
"653 554 OFFCURVE",
"553 654 OFFCURVE",
"348 654 CURVE SMOOTH",
"144 654 OFFCURVE",
"43 554 OFFCURVE",
"43 320 CURVE SMOOTH",
"43 94 OFFCURVE",
"144 -10 OFFCURVE",
"348 -10 CURVE SMOOTH"
);
},
{
closed = 1;
nodes = (
"215 82 OFFCURVE",
"153 151 OFFCURVE",
"153 320 CURVE SMOOTH",
"153 498 OFFCURVE",
"215 561 OFFCURVE",
"348 561 CURVE SMOOTH",
"482 561 OFFCURVE",
"544 498 OFFCURVE",
"544 320 CURVE SMOOTH",
"544 151 OFFCURVE",
"482 82 OFFCURVE",
"348 82 CURVE SMOOTH"
);
},
{
closed = 1;
nodes = (
"993 0 LINE",
"993 84 LINE",
"653 84 LINE",
"653 280 LINE",
"956 280 LINE",
"956 364 LINE",
"653 364 LINE",
"653 559 LINE",
"993 559 LINE",
"993 644 LINE",
"544 644 LINE",
"544 0 LINE"
);
}
);
width = 1037;
}
);
leftKerningGroup = O;
note = OE;
rightKerningGroup = E;
unicode = 0152;
},
{
glyphname = P;
lastChange = "2015-10-24 17:36:09 +0000";
layers = (
{
layerId = "9971B372-118E-4AC7-9904-5BD2E656A77C";
name = Regular;
paths = (
{
closed = 1;
nodes = (
"172 0 LINE",
"172 217 LINE",
"346 217 LINE SMOOTH",
"481 217 OFFCURVE",
"566 301 OFFCURVE",
"566 429 CURVE SMOOTH",
"566 553 OFFCURVE",
"498 644 OFFCURVE",
"350 644 CURVE SMOOTH",
"63 644 LINE",
"63 0 LINE"
);
},
{
closed = 1;
nodes = (
"172 559 LINE",
"331 559 LINE SMOOTH",
"415 559 OFFCURVE",
"457 511 OFFCURVE",
"457 429 CURVE SMOOTH",
"457 352 OFFCURVE",
"412 303 OFFCURVE",
"326 303 CURVE SMOOTH",
"172 303 LINE"
);
}
);
width = 590;
}
);
note = P;
unicode = 0050;
},
{
glyphname = Thorn;
lastChange = "2015-11-25 04:37:08 +0000";
layers = (
{
layerId = "9971B372-118E-4AC7-9904-5BD2E656A77C";
name = Regular;
paths = (
{
closed = 1;
nodes = (
"172 0 LINE",
"172 107 LINE",
"346 107 LINE SMOOTH",
"481 107 OFFCURVE",
"566 192 OFFCURVE",
"566 320 CURVE SMOOTH",
"566 444 OFFCURVE",
"498 534 OFFCURVE",
"350 534 CURVE SMOOTH",
"172 534 LINE",
"172 644 LINE",
"63 644 LINE",
"63 0 LINE"
);
},
{
closed = 1;
nodes = (
"172 448 LINE",
"331 448 LINE SMOOTH",
"415 448 OFFCURVE",
"457 402 OFFCURVE",
"457 320 CURVE SMOOTH",
"457 243 OFFCURVE",
"412 193 OFFCURVE",
"326 193 CURVE SMOOTH",
"172 193 LINE"
);
}
);
width = 590;
}
);
note = Thorn;
unicode = 00DE;
},
{
glyphname = Q;
lastChange = "2015-10-24 17:36:09 +0000";
layers = (
{
layerId = "9971B372-118E-4AC7-9904-5BD2E656A77C";
name = Regular;
paths = (
{
closed = 1;
nodes = (
"475 -172 OFFCURVE",
"513 -167 OFFCURVE",
"535 -160 CURVE",
"535 -79 LINE",
"514 -85 OFFCURVE",
"486 -89 OFFCURVE",
"464 -89 CURVE SMOOTH",
"411 -89 OFFCURVE",
"391 -70 OFFCURVE",
"390 -8 CURVE",
"566 6 OFFCURVE",
"653 110 OFFCURVE",
"653 320 CURVE SMOOTH",
"653 554 OFFCURVE",
"553 654 OFFCURVE",
"348 654 CURVE SMOOTH",
"144 654 OFFCURVE",
"43 554 OFFCURVE",
"43 320 CURVE SMOOTH",
"43 115 OFFCURVE",
"126 11 OFFCURVE",
"293 -7 CURVE",
"295 -113 OFFCURVE",
"340 -172 OFFCURVE",
"441 -172 CURVE SMOOTH"
);
},
{
closed = 1;
nodes = (
"215 82 OFFCURVE",
"153 151 OFFCURVE",
"153 320 CURVE SMOOTH",
"153 498 OFFCURVE",
"215 561 OFFCURVE",
"348 561 CURVE SMOOTH",
"482 561 OFFCURVE",
"544 498 OFFCURVE",
"544 320 CURVE SMOOTH",
"544 151 OFFCURVE",
"482 82 OFFCURVE",
"348 82 CURVE SMOOTH"
);
}
);
width = 697;
}
);
leftKerningGroup = O;
note = Q;
rightKerningGroup = O;
unicode = 0051;
},
{
glyphname = R;
lastChange = "2015-10-24 17:36:10 +0000";
layers = (
{
layerId = "9971B372-118E-4AC7-9904-5BD2E656A77C";
name = Regular;
paths = (
{
closed = 1;
nodes = (
"172 0 LINE",
"172 228 LINE",
"293 228 LINE SMOOTH",
"342 228 OFFCURVE",
"357 214 OFFCURVE",
"372 180 CURVE SMOOTH",
"451 0 LINE",
"563 0 LINE",
"482 187 LINE SMOOTH",
"468 220 OFFCURVE",
"458 238 OFFCURVE",
"434 255 CURVE",
"519 280 OFFCURVE",
"566 347 OFFCURVE",
"566 438 CURVE SMOOTH",
"566 565 OFFCURVE",
"503 644 OFFCURVE",
"359 644 CURVE SMOOTH",
"63 644 LINE",
"63 0 LINE"
);
},
{
closed = 1;
nodes = (
"172 559 LINE",
"340 559 LINE SMOOTH",
"418 559 OFFCURVE",
"457 518 OFFCURVE",
"457 438 CURVE SMOOTH",
"457 352 OFFCURVE",
"409 316 OFFCURVE",
"330 316 CURVE SMOOTH",
"172 316 LINE"
);
}
);
width = 610;
}
);
note = R;
rightKerningGroup = R;
unicode = 0052;
},
{
glyphname = Racute;
lastChange = "2015-10-24 17:36:10 +0000";
layers = (
{
layerId = "9971B372-118E-4AC7-9904-5BD2E656A77C";
name = Regular;
paths = (
{
closed = 1;
nodes = (
"172 0 LINE",
"172 228 LINE",
"293 228 LINE SMOOTH",
"342 228 OFFCURVE",
"357 214 OFFCURVE",
"372 180 CURVE SMOOTH",
"451 0 LINE",
"563 0 LINE",
"482 187 LINE SMOOTH",
"468 220 OFFCURVE",
"458 238 OFFCURVE",
"434 255 CURVE",
"519 280 OFFCURVE",
"566 347 OFFCURVE",
"566 438 CURVE SMOOTH",
"566 565 OFFCURVE",
"503 644 OFFCURVE",
"359 644 CURVE SMOOTH",
"63 644 LINE",
"63 0 LINE"
);
},
{
closed = 1;
nodes = (
"172 559 LINE",
"340 559 LINE SMOOTH",
"418 559 OFFCURVE",
"457 518 OFFCURVE",
"457 438 CURVE SMOOTH",
"457 352 OFFCURVE",
"409 316 OFFCURVE",
"330 316 CURVE SMOOTH",
"172 316 LINE"
);
},
{
closed = 1;
nodes = (
"326 688 LINE",
"410 865 LINE",
"314 865 LINE",
"239 688 LINE"
);
}
);
width = 610;
}
);
note = Racute;
rightKerningGroup = R;
unicode = 0154;
},
{
glyphname = Rcaron;
lastChange = "2015-10-24 17:36:09 +0000";
layers = (
{
layerId = "9971B372-118E-4AC7-9904-5BD2E656A77C";
name = Regular;
paths = (
{
closed = 1;
nodes = (
"172 0 LINE",
"172 228 LINE",
"293 228 LINE SMOOTH",
"342 228 OFFCURVE",
"357 214 OFFCURVE",
"372 180 CURVE SMOOTH",
"451 0 LINE",
"563 0 LINE",
"482 187 LINE SMOOTH",
"468 220 OFFCURVE",
"458 238 OFFCURVE",
"434 255 CURVE",
"519 280 OFFCURVE",
"566 347 OFFCURVE",
"566 438 CURVE SMOOTH",
"566 565 OFFCURVE",
"503 644 OFFCURVE",
"359 644 CURVE SMOOTH",
"63 644 LINE",
"63 0 LINE"
);
},
{
closed = 1;
nodes = (
"172 559 LINE",
"340 559 LINE SMOOTH",
"418 559 OFFCURVE",
"457 518 OFFCURVE",
"457 438 CURVE SMOOTH",
"457 352 OFFCURVE",
"409 316 OFFCURVE",
"330 316 CURVE SMOOTH",
"172 316 LINE"
);
},
{
closed = 1;
nodes = (
"332 687 LINE",
"457 848 LINE",
"370 848 LINE",
"294 747 LINE",
"220 848 LINE",
"131 848 LINE",
"256 687 LINE"
);
}
);
width = 610;
}
);
note = Rcaron;
rightKerningGroup = R;
unicode = 0158;
},
{
glyphname = Rcommaaccent;
lastChange = "2015-11-25 04:37:18 +0000";
layers = (
{
layerId = "9971B372-118E-4AC7-9904-5BD2E656A77C";
name = Regular;
paths = (
{
closed = 1;
nodes = (
"172 0 LINE",
"172 228 LINE",
"293 228 LINE SMOOTH",
"342 228 OFFCURVE",
"357 214 OFFCURVE",
"372 180 CURVE SMOOTH",
"451 0 LINE",
"563 0 LINE",
"482 187 LINE SMOOTH",
"468 220 OFFCURVE",
"458 238 OFFCURVE",
"434 255 CURVE",
"519 280 OFFCURVE",
"566 347 OFFCURVE",
"566 438 CURVE SMOOTH",
"566 565 OFFCURVE",
"503 644 OFFCURVE",
"359 644 CURVE SMOOTH",
"63 644 LINE",
"63 0 LINE"
);
},
{
closed = 1;
nodes = (
"172 559 LINE",
"340 559 LINE SMOOTH",
"418 559 OFFCURVE",
"457 518 OFFCURVE",
"457 438 CURVE SMOOTH",
"457 352 OFFCURVE",
"409 316 OFFCURVE",
"330 316 CURVE SMOOTH",
"172 316 LINE"
);
},
{
closed = 1;
nodes = (
"291 -226 LINE",
"337 -37 LINE",
"247 -37 LINE",
"218 -226 LINE"
);
}
);
width = 610;
}
);
note = Rcommaaccent;
rightKerningGroup = R;
unicode = 0156;
},
{
glyphname = Rdotbelow;
lastChange = "2015-11-25 04:37:20 +0000";
layers = (
{
layerId = "9971B372-118E-4AC7-9904-5BD2E656A77C";
name = Regular;
paths = (
{
closed = 1;
nodes = (
"172 0 LINE",
"172 228 LINE",
"293 228 LINE SMOOTH",
"342 228 OFFCURVE",
"357 214 OFFCURVE",
"372 180 CURVE SMOOTH",
"451 0 LINE",
"563 0 LINE",
"482 187 LINE SMOOTH",
"468 220 OFFCURVE",
"458 238 OFFCURVE",
"434 255 CURVE",
"519 280 OFFCURVE",
"566 347 OFFCURVE",
"566 438 CURVE SMOOTH",
"566 565 OFFCURVE",
"503 644 OFFCURVE",
"359 644 CURVE SMOOTH",
"63 644 LINE",
"63 0 LINE"
);
},
{
closed = 1;
nodes = (
"172 559 LINE",
"340 559 LINE SMOOTH",
"418 559 OFFCURVE",
"457 518 OFFCURVE",
"457 438 CURVE SMOOTH",
"457 352 OFFCURVE",
"409 316 OFFCURVE",
"330 316 CURVE SMOOTH",
"172 316 LINE"
);
},
{
closed = 1;
nodes = (
"353 -173 LINE",
"353 -85 LINE",
"259 -85 LINE",
"259 -173 LINE"
);
}
);
width = 610;
}
);
note = Rdotbelow;
rightKerningGroup = R;
unicode = 1E5A;
},
{
glyphname = Rdotbelowmacron;
lastChange = "2015-11-25 04:37:32 +0000";
layers = (
{
layerId = "9971B372-118E-4AC7-9904-5BD2E656A77C";
name = Regular;
paths = (
{
closed = 1;
nodes = (
"172 0 LINE",
"172 228 LINE",
"293 228 LINE SMOOTH",
"342 228 OFFCURVE",
"357 214 OFFCURVE",
"372 180 CURVE SMOOTH",
"451 0 LINE",
"563 0 LINE",
"482 187 LINE SMOOTH",
"468 220 OFFCURVE",
"458 238 OFFCURVE",
"434 255 CURVE",
"519 280 OFFCURVE",
"566 347 OFFCURVE",
"566 438 CURVE SMOOTH",
"566 565 OFFCURVE",
"503 644 OFFCURVE",
"359 644 CURVE SMOOTH",
"63 644 LINE",
"63 0 LINE"
);
},
{
closed = 1;
nodes = (
"172 559 LINE",
"340 559 LINE SMOOTH",
"418 559 OFFCURVE",
"457 518 OFFCURVE",
"457 438 CURVE SMOOTH",
"457 352 OFFCURVE",
"409 316 OFFCURVE",
"330 316 CURVE SMOOTH",
"172 316 LINE"
);
},
{
closed = 1;
nodes = (
"353 -173 LINE",
"353 -85 LINE",
"259 -85 LINE",
"259 -173 LINE"
);
},
{
closed = 1;
nodes = (
"442 717 LINE",
"442 788 LINE",
"144 788 LINE",
"144 717 LINE"
);
}
);
width = 610;
}
);
note = Rdotbelowmacron;
rightKerningGroup = R;
unicode = 1E5C;
},
{
glyphname = Rlinebelow;
lastChange = "2015-11-25 04:37:35 +0000";
layers = (
{
layerId = "9971B372-118E-4AC7-9904-5BD2E656A77C";
name = Regular;
paths = (
{
closed = 1;
nodes = (
"172 0 LINE",
"172 228 LINE",
"293 228 LINE SMOOTH",
"342 228 OFFCURVE",
"357 214 OFFCURVE",
"372 180 CURVE SMOOTH",
"451 0 LINE",
"563 0 LINE",
"482 187 LINE SMOOTH",
"468 220 OFFCURVE",
"458 238 OFFCURVE",
"434 255 CURVE",
"519 280 OFFCURVE",
"566 347 OFFCURVE",
"566 438 CURVE SMOOTH",
"566 565 OFFCURVE",
"503 644 OFFCURVE",
"359 644 CURVE SMOOTH",
"63 644 LINE",
"63 0 LINE"
);
},
{
closed = 1;
nodes = (
"172 559 LINE",
"340 559 LINE SMOOTH",
"418 559 OFFCURVE",
"457 518 OFFCURVE",
"457 438 CURVE SMOOTH",
"457 352 OFFCURVE",
"409 316 OFFCURVE",
"330 316 CURVE SMOOTH",
"172 316 LINE"
);
},
{
closed = 1;
nodes = (
"443 -143 LINE",
"443 -72 LINE",
"145 -72 LINE",
"145 -143 LINE"
);
}
);
width = 610;
}
);
note = Rlinebelow;
rightKerningGroup = R;
unicode = 1E5E;
},
{
glyphname = S;
lastChange = "2015-10-24 17:36:10 +0000";
layers = (
{
layerId = "9971B372-118E-4AC7-9904-5BD2E656A77C";
name = Regular;
paths = (
{
closed = 1;
nodes = (
"428 -10 OFFCURVE",
"512 59 OFFCURVE",
"512 172 CURVE SMOOTH",
"512 264 OFFCURVE",
"469 326 OFFCURVE",
"311 366 CURVE SMOOTH",
"188 397 OFFCURVE",
"153 415 OFFCURVE",
"153 473 CURVE SMOOTH",
"153 540 OFFCURVE",
"209 561 OFFCURVE",
"305 561 CURVE SMOOTH",
"364 561 OFFCURVE",
"423 551 OFFCURVE",
"473 532 CURVE",
"473 628 LINE",
"435 641 OFFCURVE",
"365 654 OFFCURVE",
"290 654 CURVE SMOOTH",
"126 654 OFFCURVE",
"43 586 OFFCURVE",
"43 473 CURVE SMOOTH",
"43 376 OFFCURVE",
"92 326 OFFCURVE",
"231 290 CURVE SMOOTH",
"360 257 OFFCURVE",
"402 238 OFFCURVE",
"402 172 CURVE SMOOTH",
"402 100 OFFCURVE",
"351 82 OFFCURVE",
"248 82 CURVE SMOOTH",
"182 82 OFFCURVE",
"114 96 OFFCURVE",
"57 118 CURVE",
"57 22 LINE",
"107 1 OFFCURVE",
"176 -10 OFFCURVE",
"258 -10 CURVE SMOOTH"
);
}
);
width = 555;
}
);
leftKerningGroup = S;
note = S;
rightKerningGroup = S;
unicode = 0053;
},
{
glyphname = Sacute;
lastChange = "2015-10-24 17:36:10 +0000";
layers = (
{
layerId = "9971B372-118E-4AC7-9904-5BD2E656A77C";
name = Regular;
paths = (
{
closed = 1;
nodes = (
"428 -10 OFFCURVE",
"512 59 OFFCURVE",
"512 172 CURVE SMOOTH",
"512 264 OFFCURVE",
"469 326 OFFCURVE",
"311 366 CURVE SMOOTH",
"188 397 OFFCURVE",
"153 415 OFFCURVE",
"153 473 CURVE SMOOTH",
"153 540 OFFCURVE",
"209 561 OFFCURVE",
"305 561 CURVE SMOOTH",
"364 561 OFFCURVE",
"423 551 OFFCURVE",
"473 532 CURVE",
"473 628 LINE",
"435 641 OFFCURVE",
"365 654 OFFCURVE",
"290 654 CURVE SMOOTH",
"126 654 OFFCURVE",
"43 586 OFFCURVE",
"43 473 CURVE SMOOTH",
"43 376 OFFCURVE",
"92 326 OFFCURVE",
"231 290 CURVE SMOOTH",
"360 257 OFFCURVE",
"402 238 OFFCURVE",
"402 172 CURVE SMOOTH",
"402 100 OFFCURVE",
"351 82 OFFCURVE",
"248 82 CURVE SMOOTH",
"182 82 OFFCURVE",
"114 96 OFFCURVE",
"57 118 CURVE",
"57 22 LINE",
"107 1 OFFCURVE",
"176 -10 OFFCURVE",
"258 -10 CURVE SMOOTH"
);
},
{
closed = 1;
nodes = (
"304 691 LINE",
"388 868 LINE",
"292 868 LINE",
"217 691 LINE"
);
}
);
width = 555;
}
);
leftKerningGroup = S;
note = Sacute;
rightKerningGroup = S;
unicode = 015A;
},
{
glyphname = Scaron;
lastChange = "2015-10-24 17:36:11 +0000";
layers = (
{
layerId = "9971B372-118E-4AC7-9904-5BD2E656A77C";
name = Regular;
paths = (
{
closed = 1;
nodes = (
"428 -10 OFFCURVE",
"512 59 OFFCURVE",
"512 172 CURVE SMOOTH",
"512 264 OFFCURVE",
"469 326 OFFCURVE",
"311 366 CURVE SMOOTH",
"188 397 OFFCURVE",
"153 415 OFFCURVE",
"153 473 CURVE SMOOTH",
"153 540 OFFCURVE",
"209 561 OFFCURVE",
"305 561 CURVE SMOOTH",
"364 561 OFFCURVE",
"423 551 OFFCURVE",
"473 532 CURVE",
"473 628 LINE",
"435 641 OFFCURVE",
"365 654 OFFCURVE",
"290 654 CURVE SMOOTH",
"126 654 OFFCURVE",
"43 586 OFFCURVE",
"43 473 CURVE SMOOTH",
"43 376 OFFCURVE",
"92 326 OFFCURVE",
"231 290 CURVE SMOOTH",
"360 257 OFFCURVE",
"402 238 OFFCURVE",
"402 172 CURVE SMOOTH",
"402 100 OFFCURVE",
"351 82 OFFCURVE",
"248 82 CURVE SMOOTH",
"182 82 OFFCURVE",
"114 96 OFFCURVE",
"57 118 CURVE",
"57 22 LINE",
"107 1 OFFCURVE",
"176 -10 OFFCURVE",
"258 -10 CURVE SMOOTH"
);
},
{
closed = 1;
nodes = (
"328 687 LINE",
"453 848 LINE",
"366 848 LINE",
"290 747 LINE",
"216 848 LINE",
"127 848 LINE",
"252 687 LINE"
);
}
);
width = 555;
}
);
leftKerningGroup = S;
note = Scaron;
rightKerningGroup = S;
unicode = 0160;
},
{
glyphname = Scedilla;
lastChange = "2015-10-24 17:36:10 +0000";
layers = (
{
layerId = "9971B372-118E-4AC7-9904-5BD2E656A77C";
name = Regular;
paths = (
{
closed = 1;
nodes = (
"428 -10 OFFCURVE",
"512 59 OFFCURVE",
"512 172 CURVE SMOOTH",
"512 264 OFFCURVE",
"469 326 OFFCURVE",
"311 366 CURVE SMOOTH",
"188 397 OFFCURVE",
"153 415 OFFCURVE",
"153 473 CURVE SMOOTH",
"153 540 OFFCURVE",
"209 561 OFFCURVE",
"305 561 CURVE SMOOTH",
"364 561 OFFCURVE",
"423 551 OFFCURVE",
"473 532 CURVE",
"473 628 LINE",
"435 641 OFFCURVE",
"365 654 OFFCURVE",
"290 654 CURVE SMOOTH",
"126 654 OFFCURVE",
"43 586 OFFCURVE",
"43 473 CURVE SMOOTH",
"43 376 OFFCURVE",
"92 326 OFFCURVE",
"231 290 CURVE SMOOTH",
"360 257 OFFCURVE",
"402 238 OFFCURVE",
"402 172 CURVE SMOOTH",
"402 100 OFFCURVE",
"351 82 OFFCURVE",
"248 82 CURVE SMOOTH",
"182 82 OFFCURVE",
"114 96 OFFCURVE",
"57 118 CURVE",
"57 22 LINE",
"107 1 OFFCURVE",
"176 -10 OFFCURVE",
"258 -10 CURVE SMOOTH"
);
},
{
closed = 1;
nodes = (
"346 -240 OFFCURVE",
"392 -203 OFFCURVE",
"392 -137 CURVE SMOOTH",
"392 -81 OFFCURVE",
"355 -47 OFFCURVE",
"283 -47 CURVE",
"299 0 LINE",
"226 0 LINE",
"197 -95 LINE",
"237 -95 LINE SMOOTH",
"289 -95 OFFCURVE",
"318 -99 OFFCURVE",
"318 -136 CURVE SMOOTH",
"318 -173 OFFCURVE",
"293 -181 OFFCURVE",
"233 -181 CURVE SMOOTH",
"212 -181 OFFCURVE",
"189 -178 OFFCURVE",
"171 -173 CURVE",
"171 -232 LINE",
"186 -236 OFFCURVE",
"222 -240 OFFCURVE",
"244 -240 CURVE SMOOTH"
);
}
);
width = 555;
}
);
leftKerningGroup = S;
note = Scedilla;
rightKerningGroup = S;
unicode = 015E;
},
{
glyphname = Scircumflex;
lastChange = "2015-10-24 17:36:10 +0000";
layers = (
{
layerId = "9971B372-118E-4AC7-9904-5BD2E656A77C";
name = Regular;
paths = (
{
closed = 1;
nodes = (
"428 -10 OFFCURVE",
"512 59 OFFCURVE",
"512 172 CURVE SMOOTH",
"512 264 OFFCURVE",
"469 326 OFFCURVE",
"311 366 CURVE SMOOTH",
"188 397 OFFCURVE",
"153 415 OFFCURVE",
"153 473 CURVE SMOOTH",
"153 540 OFFCURVE",
"209 561 OFFCURVE",
"305 561 CURVE SMOOTH",
"364 561 OFFCURVE",
"423 551 OFFCURVE",
"473 532 CURVE",
"473 628 LINE",
"435 641 OFFCURVE",
"365 654 OFFCURVE",
"290 654 CURVE SMOOTH",
"126 654 OFFCURVE",
"43 586 OFFCURVE",
"43 473 CURVE SMOOTH",
"43 376 OFFCURVE",
"92 326 OFFCURVE",
"231 290 CURVE SMOOTH",
"360 257 OFFCURVE",
"402 238 OFFCURVE",
"402 172 CURVE SMOOTH",
"402 100 OFFCURVE",
"351 82 OFFCURVE",
"248 82 CURVE SMOOTH",
"182 82 OFFCURVE",
"114 96 OFFCURVE",
"57 118 CURVE",
"57 22 LINE",
"107 1 OFFCURVE",
"176 -10 OFFCURVE",
"258 -10 CURVE SMOOTH"
);
},
{
closed = 1;
nodes = (
"201 695 LINE",
"275 796 LINE",
"351 695 LINE",
"438 695 LINE",
"313 856 LINE",
"237 856 LINE",
"112 695 LINE"
);
}
);
width = 555;
}
);
leftKerningGroup = S;
note = Scircumflex;
rightKerningGroup = S;
unicode = 015C;
},
{
glyphname = Scommaaccent;
lastChange = "2015-10-24 17:36:10 +0000";
layers = (
{
layerId = "9971B372-118E-4AC7-9904-5BD2E656A77C";
name = Regular;
paths = (
{
closed = 1;
nodes = (
"428 -10 OFFCURVE",
"512 59 OFFCURVE",
"512 172 CURVE SMOOTH",
"512 264 OFFCURVE",
"469 326 OFFCURVE",
"311 366 CURVE SMOOTH",
"188 397 OFFCURVE",
"153 415 OFFCURVE",
"153 473 CURVE SMOOTH",
"153 540 OFFCURVE",
"209 561 OFFCURVE",
"305 561 CURVE SMOOTH",
"364 561 OFFCURVE",
"423 551 OFFCURVE",
"473 532 CURVE",
"473 628 LINE",
"435 641 OFFCURVE",
"365 654 OFFCURVE",
"290 654 CURVE SMOOTH",
"126 654 OFFCURVE",
"43 586 OFFCURVE",
"43 473 CURVE SMOOTH",
"43 376 OFFCURVE",
"92 326 OFFCURVE",
"231 290 CURVE SMOOTH",
"360 257 OFFCURVE",
"402 238 OFFCURVE",
"402 172 CURVE SMOOTH",
"402 100 OFFCURVE",
"351 82 OFFCURVE",
"248 82 CURVE SMOOTH",
"182 82 OFFCURVE",
"114 96 OFFCURVE",
"57 118 CURVE",
"57 22 LINE",
"107 1 OFFCURVE",
"176 -10 OFFCURVE",
"258 -10 CURVE SMOOTH"
);
},
{
closed = 1;
nodes = (
"283 -223 LINE",
"324 -50 LINE",
"228 -50 LINE",
"200 -223 LINE"
);
}
);
width = 555;
}
);
leftKerningGroup = S;
note = Scommaaccent;
rightKerningGroup = S;
unicode = 0218;
},
{
glyphname = Sdotaccent;
lastChange = "2015-10-24 17:36:11 +0000";
layers = (
{
layerId = "9971B372-118E-4AC7-9904-5BD2E656A77C";
name = Regular;
paths = (
{
closed = 1;
nodes = (
"428 -10 OFFCURVE",
"512 59 OFFCURVE",
"512 172 CURVE SMOOTH",
"512 264 OFFCURVE",
"469 326 OFFCURVE",
"311 366 CURVE SMOOTH",
"188 397 OFFCURVE",
"153 415 OFFCURVE",
"153 473 CURVE SMOOTH",
"153 540 OFFCURVE",
"209 561 OFFCURVE",
"305 561 CURVE SMOOTH",
"364 561 OFFCURVE",
"423 551 OFFCURVE",
"473 532 CURVE",
"473 628 LINE",
"435 641 OFFCURVE",
"365 654 OFFCURVE",
"290 654 CURVE SMOOTH",
"126 654 OFFCURVE",
"43 586 OFFCURVE",
"43 473 CURVE SMOOTH",
"43 376 OFFCURVE",
"92 326 OFFCURVE",
"231 290 CURVE SMOOTH",
"360 257 OFFCURVE",
"402 238 OFFCURVE",
"402 172 CURVE SMOOTH",
"402 100 OFFCURVE",
"351 82 OFFCURVE",
"248 82 CURVE SMOOTH",
"182 82 OFFCURVE",
"114 96 OFFCURVE",
"57 118 CURVE",
"57 22 LINE",
"107 1 OFFCURVE",
"176 -10 OFFCURVE",
"258 -10 CURVE SMOOTH"
);
},
{
closed = 1;
nodes = (
"321 711 LINE",
"321 799 LINE",
"229 799 LINE",
"229 711 LINE"
);
}
);
width = 555;
}
);
leftKerningGroup = S;
note = Sdotaccent;
rightKerningGroup = S;
unicode = 1E60;
},
{
glyphname = Sdotbelow;
lastChange = "2015-10-24 17:36:10 +0000";
layers = (
{
layerId = "9971B372-118E-4AC7-9904-5BD2E656A77C";
name = Regular;
paths = (
{
closed = 1;
nodes = (
"428 -10 OFFCURVE",
"512 59 OFFCURVE",
"512 172 CURVE SMOOTH",
"512 264 OFFCURVE",
"469 326 OFFCURVE",
"311 366 CURVE SMOOTH",
"188 397 OFFCURVE",
"153 415 OFFCURVE",
"153 473 CURVE SMOOTH",
"153 540 OFFCURVE",
"209 561 OFFCURVE",
"305 561 CURVE SMOOTH",
"364 561 OFFCURVE",
"423 551 OFFCURVE",
"473 532 CURVE",
"473 628 LINE",
"435 641 OFFCURVE",
"365 654 OFFCURVE",
"290 654 CURVE SMOOTH",
"126 654 OFFCURVE",
"43 586 OFFCURVE",
"43 473 CURVE SMOOTH",
"43 376 OFFCURVE",
"92 326 OFFCURVE",
"231 290 CURVE SMOOTH",
"360 257 OFFCURVE",
"402 238 OFFCURVE",
"402 172 CURVE SMOOTH",
"402 100 OFFCURVE",
"351 82 OFFCURVE",
"248 82 CURVE SMOOTH",
"182 82 OFFCURVE",
"114 96 OFFCURVE",
"57 118 CURVE",
"57 22 LINE",
"107 1 OFFCURVE",
"176 -10 OFFCURVE",
"258 -10 CURVE SMOOTH"
);
},
{
closed = 1;
nodes = (
"316 -173 LINE",
"316 -85 LINE",
"222 -85 LINE",
"222 -173 LINE"
);
}
);
width = 555;
}
);
leftKerningGroup = S;
note = Sdotbelow;
rightKerningGroup = S;
unicode = 1E62;
},
{
glyphname = Germandbls;
lastChange = "2015-10-24 17:36:09 +0000";
layers = (
{
layerId = "9971B372-118E-4AC7-9904-5BD2E656A77C";
name = Regular;
paths = (
{
closed = 1;
nodes = (
"508 -10 OFFCURVE",
"581 69 OFFCURVE",
"581 183 CURVE SMOOTH",
"581 277 OFFCURVE",
"519 341 OFFCURVE",
"422 341 CURVE SMOOTH",
"386 341 LINE",
"556 444 LINE",
"556 559 OFFCURVE",
"484 654 OFFCURVE",
"311 654 CURVE SMOOTH",
"148 654 OFFCURVE",
"58 571 OFFCURVE",
"58 426 CURVE SMOOTH",
"58 0 LINE",
"163 0 LINE",
"163 429 LINE SMOOTH",
"163 520 OFFCURVE",
"209 564 OFFCURVE",
"311 564 CURVE SMOOTH",
"411 564 OFFCURVE",
"453 523 OFFCURVE",
"453 472 CURVE",
"275 361 LINE",
"275 269 LINE",
"371 269 LINE SMOOTH",
"441 269 OFFCURVE",
"477 247 OFFCURVE",
"477 184 CURVE SMOOTH",
"477 117 OFFCURVE",
"440 82 OFFCURVE",
"365 82 CURVE SMOOTH",
"323 82 OFFCURVE",
"275 89 OFFCURVE",
"241 104 CURVE",
"241 12 LINE",
"281 -3 OFFCURVE",
"331 -10 OFFCURVE",
"385 -10 CURVE SMOOTH"
);
}
);
width = 625;
}
);
note = uni1E9E;
unicode = 1E9E;
},
{
glyphname = Schwa;
lastChange = "2015-10-24 17:36:09 +0000";
layers = (
{
layerId = "9971B372-118E-4AC7-9904-5BD2E656A77C";
name = Regular;
paths = (
{
closed = 1;
nodes = (
"541 -10 OFFCURVE",
"631 114 OFFCURVE",
"631 314 CURVE SMOOTH",
"631 537 OFFCURVE",
"522 654 OFFCURVE",
"295 654 CURVE SMOOTH",
"218 654 OFFCURVE",
"139 637 OFFCURVE",
"82 615 CURVE",
"82 532 LINE",
"134 555 OFFCURVE",
"212 570 OFFCURVE",
"272 570 CURVE SMOOTH",
"454 570 OFFCURVE",
"523 514 OFFCURVE",
"531 370 CURVE",
"43 370 LINE",
"43 259 LINE SMOOTH",
"43 99 OFFCURVE",
"135 -10 OFFCURVE",
"325 -10 CURVE SMOOTH"
);
},
{
closed = 1;
nodes = (
"208 71 OFFCURVE",
"139 130 OFFCURVE",
"139 238 CURVE SMOOTH",
"139 292 LINE",
"531 292 LINE",
"531 145 OFFCURVE",
"465 71 OFFCURVE",
"325 71 CURVE SMOOTH"
);
}
);
width = 674;
}
);
note = uni018F;
unicode = 018F;
},
{
glyphname = T;
lastChange = "2015-11-25 04:37:57 +0000";
layers = (
{
layerId = "9971B372-118E-4AC7-9904-5BD2E656A77C";
name = Regular;
paths = (
{
closed = 1;
nodes = (
"339 0 LINE",
"339 559 LINE",
"544 559 LINE",
"544 644 LINE",
"24 644 LINE",
"24 559 LINE",
"230 559 LINE",
"230 0 LINE"
);
}
);
width = 568;
}
);
leftKerningGroup = T;
note = T;
rightKerningGroup = T;
unicode = 0054;
},
{
glyphname = Tbar;
lastChange = "2015-11-25 04:38:00 +0000";
layers = (
{
layerId = "9971B372-118E-4AC7-9904-5BD2E656A77C";
name = Regular;
paths = (
{
closed = 1;
nodes = (
"339 0 LINE",
"339 306 LINE",
"458 306 LINE",
"458 387 LINE",
"339 387 LINE",
"339 559 LINE",
"544 559 LINE",
"544 644 LINE",
"24 644 LINE",
"24 559 LINE",
"230 559 LINE",
"230 387 LINE",
"92 387 LINE",
"92 306 LINE",
"230 306 LINE",
"230 0 LINE"
);
}
);
width = 568;
}
);
leftKerningGroup = T;
note = Tbar;
rightKerningGroup = T;
unicode = 0166;
},
{
glyphname = Tcaron;
lastChange = "2015-11-25 04:38:02 +0000";
layers = (
{
layerId = "9971B372-118E-4AC7-9904-5BD2E656A77C";
name = Regular;
paths = (
{
closed = 1;
nodes = (
"339 0 LINE",
"339 559 LINE",
"544 559 LINE",
"544 644 LINE",
"24 644 LINE",
"24 559 LINE",
"230 559 LINE",
"230 0 LINE"
);
},
{
closed = 1;
nodes = (
"322 695 LINE",
"447 856 LINE",
"360 856 LINE",
"284 755 LINE",
"210 856 LINE",
"121 856 LINE",
"246 695 LINE"
);
}
);
width = 568;
}
);
leftKerningGroup = T;
note = Tcaron;
rightKerningGroup = T;
unicode = 0164;
},
{
glyphname = Tcedilla;
lastChange = "2015-11-25 04:38:04 +0000";
layers = (
{
layerId = "9971B372-118E-4AC7-9904-5BD2E656A77C";
name = Regular;
paths = (
{
closed = 1;
nodes = (
"339 0 LINE",
"339 559 LINE",
"544 559 LINE",
"544 644 LINE",
"24 644 LINE",
"24 559 LINE",
"230 559 LINE",
"230 0 LINE"
);
},
{
closed = 1;
nodes = (
"366 -240 OFFCURVE",
"412 -203 OFFCURVE",
"412 -137 CURVE SMOOTH",
"412 -81 OFFCURVE",
"375 -47 OFFCURVE",
"303 -47 CURVE",
"319 0 LINE",
"246 0 LINE",
"217 -95 LINE",
"257 -95 LINE SMOOTH",
"309 -95 OFFCURVE",
"338 -99 OFFCURVE",
"338 -136 CURVE SMOOTH",
"338 -173 OFFCURVE",
"313 -181 OFFCURVE",
"253 -181 CURVE SMOOTH",
"232 -181 OFFCURVE",
"209 -178 OFFCURVE",
"191 -173 CURVE",
"191 -232 LINE",
"206 -236 OFFCURVE",
"242 -240 OFFCURVE",
"264 -240 CURVE SMOOTH"
);
}
);
width = 568;
}
);
leftKerningGroup = T;
note = Tcedilla;
rightKerningGroup = T;
unicode = 0162;
},
{
glyphname = Tcommaaccent;
lastChange = "2015-11-25 04:38:09 +0000";
layers = (
{
layerId = "9971B372-118E-4AC7-9904-5BD2E656A77C";
name = Regular;
paths = (
{
closed = 1;
nodes = (
"339 0 LINE",
"339 559 LINE",
"544 559 LINE",
"544 644 LINE",
"24 644 LINE",
"24 559 LINE",
"230 559 LINE",
"230 0 LINE"
);
},
{
closed = 1;
nodes = (
"286 -234 LINE",
"332 -45 LINE",
"242 -45 LINE",
"213 -234 LINE"
);
}
);
width = 568;
}
);
leftKerningGroup = T;
note = Tcommaaccent;
rightKerningGroup = T;
unicode = 021A;
},
{
glyphname = Tdotbelow;
lastChange = "2015-11-25 04:38:14 +0000";
layers = (
{
layerId = "9971B372-118E-4AC7-9904-5BD2E656A77C";
name = Regular;
paths = (
{
closed = 1;
nodes = (
"339 0 LINE",
"339 559 LINE",
"544 559 LINE",
"544 644 LINE",
"24 644 LINE",
"24 559 LINE",
"230 559 LINE",
"230 0 LINE"
);
},
{
closed = 1;
nodes = (
"331 -166 LINE",
"331 -78 LINE",
"237 -78 LINE",
"237 -166 LINE"
);
}
);
width = 568;
}
);
leftKerningGroup = T;
note = Tdotbelow;
rightKerningGroup = T;
unicode = 1E6C;
},
{
glyphname = Tlinebelow;
lastChange = "2015-11-25 04:38:18 +0000";
layers = (
{
layerId = "9971B372-118E-4AC7-9904-5BD2E656A77C";
name = Regular;
paths = (
{
closed = 1;
nodes = (
"339 0 LINE",
"339 559 LINE",
"544 559 LINE",
"544 644 LINE",
"24 644 LINE",
"24 559 LINE",
"230 559 LINE",
"230 0 LINE"
);
},
{
closed = 1;
nodes = (
"433 -136 LINE",
"433 -65 LINE",
"135 -65 LINE",
"135 -136 LINE"
);
}
);
width = 568;
}
);
leftKerningGroup = T;
note = Tlinebelow;
rightKerningGroup = T;
unicode = 1E6E;
},
{
glyphname = U;
lastChange = "2015-11-25 04:38:37 +0000";
layers = (
{
layerId = "9971B372-118E-4AC7-9904-5BD2E656A77C";
name = Regular;
paths = (
{
closed = 1;
nodes = (
"514 -10 OFFCURVE",
"616 77 OFFCURVE",
"616 239 CURVE SMOOTH",
"616 644 LINE",
"508 644 LINE",
"508 243 LINE SMOOTH",
"508 135 OFFCURVE",
"446 82 OFFCURVE",
"338 82 CURVE SMOOTH",
"229 82 OFFCURVE",
"167 135 OFFCURVE",
"167 243 CURVE SMOOTH",
"167 644 LINE",
"58 644 LINE",
"58 239 LINE SMOOTH",
"58 77 OFFCURVE",
"161 -10 OFFCURVE",
"338 -10 CURVE SMOOTH"
);
}
);
width = 674;
}
);
leftKerningGroup = U;
note = U;
rightKerningGroup = U;
unicode = 0055;
},
{
glyphname = Uacute;
lastChange = "2015-11-25 04:38:37 +0000";
layers = (
{
layerId = "9971B372-118E-4AC7-9904-5BD2E656A77C";
name = Regular;
paths = (
{
closed = 1;
nodes = (
"514 -10 OFFCURVE",
"616 77 OFFCURVE",
"616 239 CURVE SMOOTH",
"616 644 LINE",
"508 644 LINE",
"508 243 LINE SMOOTH",
"508 135 OFFCURVE",
"446 82 OFFCURVE",
"338 82 CURVE SMOOTH",
"229 82 OFFCURVE",
"167 135 OFFCURVE",
"167 243 CURVE SMOOTH",
"167 644 LINE",
"58 644 LINE",
"58 239 LINE SMOOTH",
"58 77 OFFCURVE",
"161 -10 OFFCURVE",
"338 -10 CURVE SMOOTH"
);
},
{
closed = 1;
nodes = (
"375 688 LINE",
"459 865 LINE",
"363 865 LINE",
"288 688 LINE"
);
}
);
width = 674;
}
);
leftKerningGroup = U;
note = Uacute;
rightKerningGroup = U;
unicode = 00DA;
},
{
glyphname = Ubreve;
lastChange = "2015-11-25 04:38:37 +0000";
layers = (
{
layerId = "9971B372-118E-4AC7-9904-5BD2E656A77C";
name = Regular;
paths = (
{
closed = 1;
nodes = (
"514 -10 OFFCURVE",
"616 77 OFFCURVE",
"616 239 CURVE SMOOTH",
"616 644 LINE",
"508 644 LINE",
"508 243 LINE SMOOTH",
"508 135 OFFCURVE",
"446 82 OFFCURVE",
"338 82 CURVE SMOOTH",
"229 82 OFFCURVE",
"167 135 OFFCURVE",
"167 243 CURVE SMOOTH",
"167 644 LINE",
"58 644 LINE",
"58 239 LINE SMOOTH",
"58 77 OFFCURVE",
"161 -10 OFFCURVE",
"338 -10 CURVE SMOOTH"
);
},
{
closed = 1;
nodes = (
"413 688 OFFCURVE",
"468 743 OFFCURVE",
"468 829 CURVE",
"394 829 LINE",
"394 783 OFFCURVE",
"369 753 OFFCURVE",
"324 753 CURVE SMOOTH",
"281 753 OFFCURVE",
"257 783 OFFCURVE",
"257 829 CURVE",
"183 829 LINE",
"183 743 OFFCURVE",
"236 688 OFFCURVE",
"324 688 CURVE SMOOTH"
);
}
);
width = 674;
}
);
leftKerningGroup = U;
note = Ubreve;
rightKerningGroup = U;
unicode = 016C;
},
{
glyphname = Ucaron;
lastChange = "2015-11-25 04:38:37 +0000";
layers = (
{
layerId = "9971B372-118E-4AC7-9904-5BD2E656A77C";
name = Regular;
paths = (
{
closed = 1;
nodes = (
"514 -10 OFFCURVE",
"616 77 OFFCURVE",
"616 239 CURVE SMOOTH",
"616 644 LINE",
"508 644 LINE",
"508 243 LINE SMOOTH",
"508 135 OFFCURVE",
"446 82 OFFCURVE",
"338 82 CURVE SMOOTH",
"229 82 OFFCURVE",
"167 135 OFFCURVE",
"167 243 CURVE SMOOTH",
"167 644 LINE",
"58 644 LINE",
"58 239 LINE SMOOTH",
"58 77 OFFCURVE",
"161 -10 OFFCURVE",
"338 -10 CURVE SMOOTH"
);
},
{
closed = 1;
nodes = (
"375 687 LINE",
"500 848 LINE",
"413 848 LINE",
"337 747 LINE",
"263 848 LINE",
"174 848 LINE",
"299 687 LINE"
);
}
);
width = 674;
}
);
leftKerningGroup = U;
note = Ucaron;
rightKerningGroup = U;
unicode = 01D3;
},
{
glyphname = Ucircumflex;
lastChange = "2015-11-25 04:38:37 +0000";
layers = (
{
layerId = "9971B372-118E-4AC7-9904-5BD2E656A77C";
name = Regular;
paths = (
{
closed = 1;
nodes = (
"514 -10 OFFCURVE",
"616 77 OFFCURVE",
"616 239 CURVE SMOOTH",
"616 644 LINE",
"508 644 LINE",
"508 243 LINE SMOOTH",
"508 135 OFFCURVE",
"446 82 OFFCURVE",
"338 82 CURVE SMOOTH",
"229 82 OFFCURVE",
"167 135 OFFCURVE",
"167 243 CURVE SMOOTH",
"167 644 LINE",
"58 644 LINE",
"58 239 LINE SMOOTH",
"58 77 OFFCURVE",
"161 -10 OFFCURVE",
"338 -10 CURVE SMOOTH"
);
},
{
closed = 1;
nodes = (
"263 687 LINE",
"337 788 LINE",
"413 687 LINE",
"500 687 LINE",
"375 848 LINE",
"299 848 LINE",
"174 687 LINE"
);
}
);
width = 674;
}
);
leftKerningGroup = U;
note = Ucircumflex;
rightKerningGroup = U;
unicode = 00DB;
},
{
glyphname = Udieresis;
lastChange = "2015-11-25 04:38:37 +0000";
layers = (
{
layerId = "9971B372-118E-4AC7-9904-5BD2E656A77C";
name = Regular;
paths = (
{
closed = 1;
nodes = (
"514 -10 OFFCURVE",
"616 77 OFFCURVE",
"616 239 CURVE SMOOTH",
"616 644 LINE",
"508 644 LINE",
"508 243 LINE SMOOTH",
"508 135 OFFCURVE",
"446 82 OFFCURVE",
"338 82 CURVE SMOOTH",
"229 82 OFFCURVE",
"167 135 OFFCURVE",
"167 243 CURVE SMOOTH",
"167 644 LINE",
"58 644 LINE",
"58 239 LINE SMOOTH",
"58 77 OFFCURVE",
"161 -10 OFFCURVE",
"338 -10 CURVE SMOOTH"
);
},
{
closed = 1;
nodes = (
"284 712 LINE",
"284 798 LINE",
"192 798 LINE",
"192 712 LINE"
);
},
{
closed = 1;
nodes = (
"470 712 LINE",
"470 798 LINE",
"378 798 LINE",
"378 712 LINE"
);
}
);
width = 674;
}
);
leftKerningGroup = U;
note = Udieresis;
rightKerningGroup = U;
unicode = 00DC;
},
{
glyphname = Udieresisacute;
lastChange = "2015-11-25 04:38:37 +0000";
layers = (
{
layerId = "9971B372-118E-4AC7-9904-5BD2E656A77C";
name = Regular;
paths = (
{
closed = 1;
nodes = (
"514 -10 OFFCURVE",
"616 77 OFFCURVE",
"616 239 CURVE SMOOTH",
"616 644 LINE",
"508 644 LINE",
"508 243 LINE SMOOTH",
"508 135 OFFCURVE",
"446 82 OFFCURVE",
"338 82 CURVE SMOOTH",
"229 82 OFFCURVE",
"167 135 OFFCURVE",
"167 243 CURVE SMOOTH",
"167 644 LINE",
"58 644 LINE",
"58 239 LINE SMOOTH",
"58 77 OFFCURVE",
"161 -10 OFFCURVE",
"338 -10 CURVE SMOOTH"
);
},
{
closed = 1;
nodes = (
"283 688 LINE",
"283 772 LINE",
"193 772 LINE",
"193 688 LINE"
);
},
{
closed = 1;
nodes = (
"481 688 LINE",
"481 772 LINE",
"392 772 LINE",
"392 688 LINE"
);
},
{
closed = 1;
nodes = (
"373 786 LINE",
"440 913 LINE",
"357 913 LINE",
"296 786 LINE"
);
}
);
width = 674;
}
);
leftKerningGroup = U;
note = Udieresisacute;
rightKerningGroup = U;
unicode = 01D7;
},
{
glyphname = Udieresiscaron;
lastChange = "2015-11-25 04:38:37 +0000";
layers = (
{
layerId = "9971B372-118E-4AC7-9904-5BD2E656A77C";
name = Regular;
paths = (
{
closed = 1;
nodes = (
"514 -10 OFFCURVE",
"616 77 OFFCURVE",
"616 239 CURVE SMOOTH",
"616 644 LINE",
"508 644 LINE",
"508 243 LINE SMOOTH",
"508 135 OFFCURVE",
"446 82 OFFCURVE",
"338 82 CURVE SMOOTH",
"229 82 OFFCURVE",
"167 135 OFFCURVE",
"167 243 CURVE SMOOTH",
"167 644 LINE",
"58 644 LINE",
"58 239 LINE SMOOTH",
"58 77 OFFCURVE",
"161 -10 OFFCURVE",
"338 -10 CURVE SMOOTH"
);
},
{
closed = 1;
nodes = (
"281 688 LINE",
"281 772 LINE",
"191 772 LINE",
"191 688 LINE"
);
},
{
closed = 1;
nodes = (
"479 688 LINE",
"479 772 LINE",
"390 772 LINE",
"390 688 LINE"
);
},
{
closed = 1;
nodes = (
"377 784 LINE",
"489 904 LINE",
"406 904 LINE",
"338 826 LINE",
"271 904 LINE",
"186 904 LINE",
"298 784 LINE"
);
}
);
width = 674;
}
);
leftKerningGroup = U;
note = Udieresiscaron;
rightKerningGroup = U;
unicode = 01D9;
},
{
glyphname = Udieresisgrave;
lastChange = "2015-11-25 04:38:37 +0000";
layers = (
{
layerId = "9971B372-118E-4AC7-9904-5BD2E656A77C";
name = Regular;
paths = (
{
closed = 1;
nodes = (
"514 -10 OFFCURVE",
"616 77 OFFCURVE",
"616 239 CURVE SMOOTH",
"616 644 LINE",
"508 644 LINE",
"508 243 LINE SMOOTH",
"508 135 OFFCURVE",
"446 82 OFFCURVE",
"338 82 CURVE SMOOTH",
"229 82 OFFCURVE",
"167 135 OFFCURVE",
"167 243 CURVE SMOOTH",
"167 644 LINE",
"58 644 LINE",
"58 239 LINE SMOOTH",
"58 77 OFFCURVE",
"161 -10 OFFCURVE",
"338 -10 CURVE SMOOTH"
);
},
{
closed = 1;
nodes = (
"281 688 LINE",
"281 772 LINE",
"191 772 LINE",
"191 688 LINE"
);
},
{
closed = 1;
nodes = (
"376 786 LINE",
"316 913 LINE",
"232 913 LINE",
"299 786 LINE"
);
},
{
closed = 1;
nodes = (
"479 688 LINE",
"479 772 LINE",
"390 772 LINE",
"390 688 LINE"
);
}
);
width = 674;
}
);
leftKerningGroup = U;
note = Udieresisgrave;
rightKerningGroup = U;
unicode = 01DB;
},
{
glyphname = Udieresismacron;
lastChange = "2015-11-25 04:38:37 +0000";
layers = (
{
layerId = "9971B372-118E-4AC7-9904-5BD2E656A77C";
name = Regular;
paths = (
{
closed = 1;
nodes = (
"514 -10 OFFCURVE",
"616 77 OFFCURVE",
"616 239 CURVE SMOOTH",
"616 644 LINE",
"508 644 LINE",
"508 243 LINE SMOOTH",
"508 135 OFFCURVE",
"446 82 OFFCURVE",
"338 82 CURVE SMOOTH",
"229 82 OFFCURVE",
"167 135 OFFCURVE",
"167 243 CURVE SMOOTH",
"167 644 LINE",
"58 644 LINE",
"58 239 LINE SMOOTH",
"58 77 OFFCURVE",
"161 -10 OFFCURVE",
"338 -10 CURVE SMOOTH"
);
},
{
closed = 1;
nodes = (
"290 703 LINE",
"290 789 LINE",
"198 789 LINE",
"198 703 LINE"
);
},
{
closed = 1;
nodes = (
"476 703 LINE",
"476 789 LINE",
"384 789 LINE",
"384 703 LINE"
);
},
{
closed = 1;
nodes = (
"486 853 LINE",
"486 924 LINE",
"188 924 LINE",
"188 853 LINE"
);
}
);
width = 674;
}
);
leftKerningGroup = U;
note = Udieresismacron;
rightKerningGroup = U;
unicode = 01D5;
},
{
glyphname = Udotbelow;
lastChange = "2015-11-25 04:38:37 +0000";
layers = (
{
layerId = "9971B372-118E-4AC7-9904-5BD2E656A77C";
name = Regular;
paths = (
{
closed = 1;
nodes = (
"514 -10 OFFCURVE",
"616 77 OFFCURVE",
"616 239 CURVE SMOOTH",
"616 644 LINE",
"508 644 LINE",
"508 243 LINE SMOOTH",
"508 135 OFFCURVE",
"446 82 OFFCURVE",
"338 82 CURVE SMOOTH",
"229 82 OFFCURVE",
"167 135 OFFCURVE",
"167 243 CURVE SMOOTH",
"167 644 LINE",
"58 644 LINE",
"58 239 LINE SMOOTH",
"58 77 OFFCURVE",
"161 -10 OFFCURVE",
"338 -10 CURVE SMOOTH"
);
},
{
closed = 1;
nodes = (
"384 -173 LINE",
"384 -85 LINE",
"290 -85 LINE",
"290 -173 LINE"
);
}
);
width = 674;
}
);
leftKerningGroup = U;
note = Udotbelow;
rightKerningGroup = U;
unicode = 1EE4;
},
{
glyphname = Ugrave;
lastChange = "2015-11-25 04:38:37 +0000";
layers = (
{
layerId = "9971B372-118E-4AC7-9904-5BD2E656A77C";
name = Regular;
paths = (
{
closed = 1;
nodes = (
"514 -10 OFFCURVE",
"616 77 OFFCURVE",
"616 239 CURVE SMOOTH",
"616 644 LINE",
"508 644 LINE",
"508 243 LINE SMOOTH",
"508 135 OFFCURVE",
"446 82 OFFCURVE",
"338 82 CURVE SMOOTH",
"229 82 OFFCURVE",
"167 135 OFFCURVE",
"167 243 CURVE SMOOTH",
"167 644 LINE",
"58 644 LINE",
"58 239 LINE SMOOTH",
"58 77 OFFCURVE",
"161 -10 OFFCURVE",
"338 -10 CURVE SMOOTH"
);
},
{
closed = 1;
nodes = (
"395 688 LINE",
"319 865 LINE",
"224 865 LINE",
"307 688 LINE"
);
}
);
width = 674;
}
);
leftKerningGroup = U;
note = Ugrave;
rightKerningGroup = U;
unicode = 00D9;
},
{
glyphname = Uhookabove;
lastChange = "2015-11-25 04:38:37 +0000";
layers = (
{
layerId = "9971B372-118E-4AC7-9904-5BD2E656A77C";
name = Regular;
paths = (
{
closed = 1;
nodes = (
"514 -10 OFFCURVE",
"616 77 OFFCURVE",
"616 239 CURVE SMOOTH",
"616 644 LINE",
"508 644 LINE",
"508 243 LINE SMOOTH",
"508 135 OFFCURVE",
"446 82 OFFCURVE",
"338 82 CURVE SMOOTH",
"229 82 OFFCURVE",
"167 135 OFFCURVE",
"167 243 CURVE SMOOTH",
"167 644 LINE",
"58 644 LINE",
"58 239 LINE SMOOTH",
"58 77 OFFCURVE",
"161 -10 OFFCURVE",
"338 -10 CURVE SMOOTH"
);
},
{
closed = 1;
nodes = (
"377 687 LINE",
"377 734 LINE",
"442 744 OFFCURVE",
"465 773 OFFCURVE",
"465 828 CURVE SMOOTH",
"465 885 OFFCURVE",
"421 921 OFFCURVE",
"339 921 CURVE SMOOTH",
"305 921 OFFCURVE",
"268 916 OFFCURVE",
"246 908 CURVE",
"246 849 LINE",
"263 856 OFFCURVE",
"290 861 OFFCURVE",
"310 861 CURVE SMOOTH",
"358 861 OFFCURVE",
"384 849 OFFCURVE",
"384 819 CURVE SMOOTH",
"384 786 OFFCURVE",
"368 773 OFFCURVE",
"292 769 CURVE",
"292 687 LINE"
);
}
);
width = 674;
}
);
leftKerningGroup = U;
note = Uhookabove;
rightKerningGroup = U;
unicode = 1EE6;
},
{
glyphname = Uhorn;
lastChange = "2015-10-24 17:36:10 +0000";
layers = (
{
layerId = "9971B372-118E-4AC7-9904-5BD2E656A77C";
name = Regular;
paths = (
{
closed = 1;
nodes = (
"514 -10 OFFCURVE",
"616 77 OFFCURVE",
"616 239 CURVE SMOOTH",
"616 497 LINE",
"740 499 OFFCURVE",
"797 545 OFFCURVE",
"797 688 CURVE",
"713 688 LINE",
"713 603 OFFCURVE",
"689 576 OFFCURVE",
"616 574 CURVE",
"616 644 LINE",
"508 644 LINE",
"508 243 LINE SMOOTH",
"508 135 OFFCURVE",
"446 82 OFFCURVE",
"338 82 CURVE SMOOTH",
"229 82 OFFCURVE",
"167 135 OFFCURVE",
"167 243 CURVE SMOOTH",
"167 644 LINE",
"58 644 LINE",
"58 239 LINE SMOOTH",
"58 77 OFFCURVE",
"161 -10 OFFCURVE",
"338 -10 CURVE SMOOTH"
);
}
);
width = 821;
}
);
leftKerningGroup = U;
note = Uhorn;
rightKerningGroup = U;
unicode = 01AF;
},
{
glyphname = Uhornacute;
lastChange = "2015-10-24 17:36:10 +0000";
layers = (
{
layerId = "9971B372-118E-4AC7-9904-5BD2E656A77C";
name = Regular;
paths = (
{
closed = 1;
nodes = (
"514 -10 OFFCURVE",
"616 77 OFFCURVE",
"616 239 CURVE SMOOTH",
"616 497 LINE",
"740 499 OFFCURVE",
"797 545 OFFCURVE",
"797 688 CURVE",
"713 688 LINE",
"713 603 OFFCURVE",
"689 576 OFFCURVE",
"616 574 CURVE",
"616 644 LINE",
"508 644 LINE",
"508 243 LINE SMOOTH",
"508 135 OFFCURVE",
"446 82 OFFCURVE",
"338 82 CURVE SMOOTH",
"229 82 OFFCURVE",
"167 135 OFFCURVE",
"167 243 CURVE SMOOTH",
"167 644 LINE",
"58 644 LINE",
"58 239 LINE SMOOTH",
"58 77 OFFCURVE",
"161 -10 OFFCURVE",
"338 -10 CURVE SMOOTH"
);
},
{
closed = 1;
nodes = (
"388 688 LINE",
"472 865 LINE",
"376 865 LINE",
"301 688 LINE"
);
}
);
width = 821;
}
);
leftKerningGroup = U;
note = Uhornacute;
rightKerningGroup = U;
unicode = 1EE8;
},
{
glyphname = Uhorndotbelow;
lastChange = "2015-10-24 17:36:10 +0000";
layers = (
{
layerId = "9971B372-118E-4AC7-9904-5BD2E656A77C";
name = Regular;
paths = (
{
closed = 1;
nodes = (
"514 -10 OFFCURVE",
"616 77 OFFCURVE",
"616 239 CURVE SMOOTH",
"616 497 LINE",
"740 499 OFFCURVE",
"797 545 OFFCURVE",
"797 688 CURVE",
"713 688 LINE",
"713 603 OFFCURVE",
"689 576 OFFCURVE",
"616 574 CURVE",
"616 644 LINE",
"508 644 LINE",
"508 243 LINE SMOOTH",
"508 135 OFFCURVE",
"446 82 OFFCURVE",
"338 82 CURVE SMOOTH",
"229 82 OFFCURVE",
"167 135 OFFCURVE",
"167 243 CURVE SMOOTH",
"167 644 LINE",
"58 644 LINE",
"58 239 LINE SMOOTH",
"58 77 OFFCURVE",
"161 -10 OFFCURVE",
"338 -10 CURVE SMOOTH"
);
},
{
closed = 1;
nodes = (
"382 -173 LINE",
"382 -85 LINE",
"288 -85 LINE",
"288 -173 LINE"
);
}
);
width = 821;
}
);
leftKerningGroup = U;
note = Uhorndotbelow;
rightKerningGroup = U;
unicode = 1EF0;
},
{
glyphname = Uhorngrave;
lastChange = "2015-10-24 17:36:09 +0000";
layers = (
{
layerId = "9971B372-118E-4AC7-9904-5BD2E656A77C";
name = Regular;
paths = (
{
closed = 1;
nodes = (
"514 -10 OFFCURVE",
"616 77 OFFCURVE",
"616 239 CURVE SMOOTH",
"616 497 LINE",
"740 499 OFFCURVE",
"797 545 OFFCURVE",
"797 688 CURVE",
"713 688 LINE",
"713 603 OFFCURVE",
"689 576 OFFCURVE",
"616 574 CURVE",
"616 644 LINE",
"508 644 LINE",
"508 243 LINE SMOOTH",
"508 135 OFFCURVE",
"446 82 OFFCURVE",
"338 82 CURVE SMOOTH",
"229 82 OFFCURVE",
"167 135 OFFCURVE",
"167 243 CURVE SMOOTH",
"167 644 LINE",
"58 644 LINE",
"58 239 LINE SMOOTH",
"58 77 OFFCURVE",
"161 -10 OFFCURVE",
"338 -10 CURVE SMOOTH"
);
},
{
closed = 1;
nodes = (
"391 688 LINE",
"315 865 LINE",
"220 865 LINE",
"303 688 LINE"
);
}
);
width = 821;
}
);
leftKerningGroup = U;
note = Uhorngrave;
rightKerningGroup = U;
unicode = 1EEA;
},
{
glyphname = Uhornhookabove;
lastChange = "2015-10-24 17:36:09 +0000";
layers = (
{
layerId = "9971B372-118E-4AC7-9904-5BD2E656A77C";
name = Regular;
paths = (
{
closed = 1;
nodes = (
"514 -10 OFFCURVE",
"616 77 OFFCURVE",
"616 239 CURVE SMOOTH",
"616 497 LINE",
"740 499 OFFCURVE",
"797 545 OFFCURVE",
"797 688 CURVE",
"713 688 LINE",
"713 603 OFFCURVE",
"689 576 OFFCURVE",
"616 574 CURVE",
"616 644 LINE",
"508 644 LINE",
"508 243 LINE SMOOTH",
"508 135 OFFCURVE",
"446 82 OFFCURVE",
"338 82 CURVE SMOOTH",
"229 82 OFFCURVE",
"167 135 OFFCURVE",
"167 243 CURVE SMOOTH",
"167 644 LINE",
"58 644 LINE",
"58 239 LINE SMOOTH",
"58 77 OFFCURVE",
"161 -10 OFFCURVE",
"338 -10 CURVE SMOOTH"
);
},
{
closed = 1;
nodes = (
"385 687 LINE",
"385 734 LINE",
"450 744 OFFCURVE",
"473 773 OFFCURVE",
"473 828 CURVE SMOOTH",
"473 885 OFFCURVE",
"429 921 OFFCURVE",
"347 921 CURVE SMOOTH",
"313 921 OFFCURVE",
"276 916 OFFCURVE",
"254 908 CURVE",
"254 849 LINE",
"271 856 OFFCURVE",
"298 861 OFFCURVE",
"318 861 CURVE SMOOTH",
"366 861 OFFCURVE",
"392 849 OFFCURVE",
"392 819 CURVE SMOOTH",
"392 786 OFFCURVE",
"376 773 OFFCURVE",
"300 769 CURVE",
"300 687 LINE"
);
}
);
width = 821;
}
);
leftKerningGroup = U;
note = Uhornhookabove;
rightKerningGroup = U;
unicode = 1EEC;
},
{
glyphname = Uhorntilde;
lastChange = "2015-10-24 17:36:09 +0000";
layers = (
{
layerId = "9971B372-118E-4AC7-9904-5BD2E656A77C";
name = Regular;
paths = (
{
closed = 1;
nodes = (
"514 -10 OFFCURVE",
"616 77 OFFCURVE",
"616 239 CURVE SMOOTH",
"616 497 LINE",
"740 499 OFFCURVE",
"797 545 OFFCURVE",
"797 688 CURVE",
"713 688 LINE",
"713 603 OFFCURVE",
"689 576 OFFCURVE",
"616 574 CURVE",
"616 644 LINE",
"508 644 LINE",
"508 243 LINE SMOOTH",
"508 135 OFFCURVE",
"446 82 OFFCURVE",
"338 82 CURVE SMOOTH",
"229 82 OFFCURVE",
"167 135 OFFCURVE",
"167 243 CURVE SMOOTH",
"167 644 LINE",
"58 644 LINE",
"58 239 LINE SMOOTH",
"58 77 OFFCURVE",
"161 -10 OFFCURVE",
"338 -10 CURVE SMOOTH"
);
},
{
closed = 1;
nodes = (
"453 701 OFFCURVE",
"483 714 OFFCURVE",
"496 732 CURVE",
"496 812 LINE",
"478 788 OFFCURVE",
"452 775 OFFCURVE",
"416 775 CURVE SMOOTH",
"363 775 OFFCURVE",
"321 814 OFFCURVE",
"263 814 CURVE SMOOTH",
"230 814 OFFCURVE",
"195 802 OFFCURVE",
"178 784 CURVE",
"178 704 LINE",
"201 730 OFFCURVE",
"230 740 OFFCURVE",
"265 740 CURVE SMOOTH",
"311 740 OFFCURVE",
"362 701 OFFCURVE",
"417 701 CURVE SMOOTH"
);
}
);
width = 821;
}
);
leftKerningGroup = U;
note = Uhorntilde;
rightKerningGroup = U;
unicode = 1EEE;
},
{
glyphname = Uhungarumlaut;
lastChange = "2015-11-25 04:38:46 +0000";
layers = (
{
layerId = "9971B372-118E-4AC7-9904-5BD2E656A77C";
name = Regular;
paths = (
{
closed = 1;
nodes = (
"514 -10 OFFCURVE",
"616 77 OFFCURVE",
"616 239 CURVE SMOOTH",
"616 644 LINE",
"508 644 LINE",
"508 243 LINE SMOOTH",
"508 135 OFFCURVE",
"446 82 OFFCURVE",
"338 82 CURVE SMOOTH",
"229 82 OFFCURVE",
"167 135 OFFCURVE",
"167 243 CURVE SMOOTH",
"167 644 LINE",
"58 644 LINE",
"58 239 LINE SMOOTH",
"58 77 OFFCURVE",
"161 -10 OFFCURVE",
"338 -10 CURVE SMOOTH"
);
},
{
closed = 1;
nodes = (
"242 687 LINE",
"328 851 LINE",
"229 851 LINE",
"154 687 LINE"
);
},
{
closed = 1;
nodes = (
"459 687 LINE",
"545 851 LINE",
"446 851 LINE",
"371 687 LINE"
);
}
);
width = 674;
}
);
leftKerningGroup = U;
note = Uhungarumlaut;
rightKerningGroup = U;
unicode = 0170;
},
{
glyphname = Umacron;
lastChange = "2015-11-25 04:38:46 +0000";
layers = (
{
layerId = "9971B372-118E-4AC7-9904-5BD2E656A77C";
name = Regular;
paths = (
{
closed = 1;
nodes = (
"514 -10 OFFCURVE",
"616 77 OFFCURVE",
"616 239 CURVE SMOOTH",
"616 644 LINE",
"508 644 LINE",
"508 243 LINE SMOOTH",
"508 135 OFFCURVE",
"446 82 OFFCURVE",
"338 82 CURVE SMOOTH",
"229 82 OFFCURVE",
"167 135 OFFCURVE",
"167 243 CURVE SMOOTH",
"167 644 LINE",
"58 644 LINE",
"58 239 LINE SMOOTH",
"58 77 OFFCURVE",
"161 -10 OFFCURVE",
"338 -10 CURVE SMOOTH"
);
},
{
closed = 1;
nodes = (
"480 721 LINE",
"480 792 LINE",
"182 792 LINE",
"182 721 LINE"
);
}
);
width = 674;
}
);
leftKerningGroup = U;
note = Umacron;
rightKerningGroup = U;
unicode = 016A;
},
{
glyphname = Uogonek;
lastChange = "2015-11-25 04:38:46 +0000";
layers = (
{
layerId = "9971B372-118E-4AC7-9904-5BD2E656A77C";
name = Regular;
paths = (
{
closed = 1;
nodes = (
"514 -10 OFFCURVE",
"616 77 OFFCURVE",
"616 239 CURVE SMOOTH",
"616 644 LINE",
"508 644 LINE",
"508 243 LINE SMOOTH",
"508 135 OFFCURVE",
"446 82 OFFCURVE",
"338 82 CURVE SMOOTH",
"229 82 OFFCURVE",
"167 135 OFFCURVE",
"167 243 CURVE SMOOTH",
"167 644 LINE",
"58 644 LINE",
"58 239 LINE SMOOTH",
"58 77 OFFCURVE",
"161 -10 OFFCURVE",
"338 -10 CURVE SMOOTH"
);
},
{
closed = 1;
nodes = (
"387 -220 OFFCURVE",
"418 -215 OFFCURVE",
"435 -207 CURVE",
"435 -141 LINE",
"423 -148 OFFCURVE",
"402 -152 OFFCURVE",
"385 -152 CURVE SMOOTH",
"355 -152 OFFCURVE",
"338 -143 OFFCURVE",
"338 -112 CURVE SMOOTH",
"338 -72 OFFCURVE",
"364 -33 OFFCURVE",
"407 0 CURVE",
"325 0 LINE",
"280 -31 OFFCURVE",
"251 -80 OFFCURVE",
"251 -131 CURVE SMOOTH",
"251 -193 OFFCURVE",
"301 -220 OFFCURVE",
"358 -220 CURVE SMOOTH"
);
}
);
width = 674;
}
);
leftKerningGroup = U;
note = Uogonek;
rightKerningGroup = U;
unicode = 0172;
},
{
glyphname = Uring;
lastChange = "2015-11-25 04:38:46 +0000";
layers = (
{
layerId = "9971B372-118E-4AC7-9904-5BD2E656A77C";
name = Regular;
paths = (
{
closed = 1;
nodes = (
"514 -10 OFFCURVE",
"616 77 OFFCURVE",
"616 239 CURVE SMOOTH",
"616 644 LINE",
"508 644 LINE",
"508 243 LINE SMOOTH",
"508 135 OFFCURVE",
"446 82 OFFCURVE",
"338 82 CURVE SMOOTH",
"229 82 OFFCURVE",
"167 135 OFFCURVE",
"167 243 CURVE SMOOTH",
"167 644 LINE",
"58 644 LINE",
"58 239 LINE SMOOTH",
"58 77 OFFCURVE",
"161 -10 OFFCURVE",
"338 -10 CURVE SMOOTH"
);
},
{
closed = 1;
nodes = (
"402 687 OFFCURVE",
"448 737 OFFCURVE",
"448 800 CURVE SMOOTH",
"448 864 OFFCURVE",
"402 914 OFFCURVE",
"330 914 CURVE SMOOTH",
"260 914 OFFCURVE",
"214 864 OFFCURVE",
"214 800 CURVE SMOOTH",
"214 737 OFFCURVE",
"260 687 OFFCURVE",
"330 687 CURVE SMOOTH"
);
},
{
closed = 1;
nodes = (
"295 741 OFFCURVE",
"271 767 OFFCURVE",
"271 800 CURVE SMOOTH",
"271 833 OFFCURVE",
"295 859 OFFCURVE",
"330 859 CURVE SMOOTH",
"367 859 OFFCURVE",
"391 833 OFFCURVE",
"391 800 CURVE SMOOTH",
"391 767 OFFCURVE",
"367 741 OFFCURVE",
"330 741 CURVE SMOOTH"
);
}
);
width = 674;
}
);
leftKerningGroup = U;
note = Uring;
rightKerningGroup = U;
unicode = 016E;
},
{
glyphname = Utilde;
lastChange = "2015-11-25 04:38:46 +0000";
layers = (
{
layerId = "9971B372-118E-4AC7-9904-5BD2E656A77C";
name = Regular;
paths = (
{
closed = 1;
nodes = (
"514 -10 OFFCURVE",
"616 77 OFFCURVE",
"616 239 CURVE SMOOTH",
"616 644 LINE",
"508 644 LINE",
"508 243 LINE SMOOTH",
"508 135 OFFCURVE",
"446 82 OFFCURVE",
"338 82 CURVE SMOOTH",
"229 82 OFFCURVE",
"167 135 OFFCURVE",
"167 243 CURVE SMOOTH",
"167 644 LINE",
"58 644 LINE",
"58 239 LINE SMOOTH",
"58 77 OFFCURVE",
"161 -10 OFFCURVE",
"338 -10 CURVE SMOOTH"
);
},
{
closed = 1;
nodes = (
"447 703 OFFCURVE",
"477 716 OFFCURVE",
"490 734 CURVE",
"490 814 LINE",
"472 790 OFFCURVE",
"446 777 OFFCURVE",
"410 777 CURVE SMOOTH",
"357 777 OFFCURVE",
"315 816 OFFCURVE",
"257 816 CURVE SMOOTH",
"224 816 OFFCURVE",
"189 804 OFFCURVE",
"172 786 CURVE",
"172 706 LINE",
"195 732 OFFCURVE",
"224 742 OFFCURVE",
"259 742 CURVE SMOOTH",
"305 742 OFFCURVE",
"356 703 OFFCURVE",
"411 703 CURVE SMOOTH"
);
}
);
width = 674;
}
);
leftKerningGroup = U;
note = Utilde;
rightKerningGroup = U;
unicode = 0168;
},
{
glyphname = V;
lastChange = "2015-11-25 04:39:11 +0000";
layers = (
{
layerId = "9971B372-118E-4AC7-9904-5BD2E656A77C";
name = Regular;
paths = (
{
closed = 1;
nodes = (
"412 0 LINE",
"656 644 LINE",
"543 644 LINE",
"350 117 LINE",
"157 644 LINE",
"44 644 LINE",
"290 0 LINE"
);
}
);
width = 700;
}
);
note = V;
unicode = 0056;
},
{
glyphname = W;
lastChange = "2015-11-25 04:39:11 +0000";
layers = (
{
layerId = "9971B372-118E-4AC7-9904-5BD2E656A77C";
name = Regular;
paths = (
{
closed = 1;
nodes = (
"303 0 LINE",
"440 451 LINE",
"569 0 LINE",
"676 0 LINE",
"825 644 LINE",
"719 644 LINE",
"608 161 LINE",
"471 644 LINE",
"382 644 LINE",
"382 566 LINE",
"260 161 LINE",
"151 644 LINE",
"44 644 LINE",
"194 0 LINE"
);
}
);
width = 869;
}
);
leftKerningGroup = W;
note = W;
rightKerningGroup = W;
unicode = 0057;
},
{
glyphname = Wacute;
lastChange = "2015-11-25 04:39:11 +0000";
layers = (
{
layerId = "9971B372-118E-4AC7-9904-5BD2E656A77C";
name = Regular;
paths = (
{
closed = 1;
nodes = (
"303 0 LINE",
"440 451 LINE",
"569 0 LINE",
"676 0 LINE",
"825 644 LINE",
"719 644 LINE",
"608 161 LINE",
"471 644 LINE",
"382 644 LINE",
"382 566 LINE",
"260 161 LINE",
"151 644 LINE",
"44 644 LINE",
"194 0 LINE"
);
},
{
closed = 1;
nodes = (
"475 688 LINE",
"559 865 LINE",
"463 865 LINE",
"388 688 LINE"
);
}
);
width = 869;
}
);
leftKerningGroup = W;
note = Wacute;
rightKerningGroup = W;
unicode = 1E82;
},
{
glyphname = Wcircumflex;
lastChange = "2015-11-25 04:39:11 +0000";
layers = (
{
layerId = "9971B372-118E-4AC7-9904-5BD2E656A77C";
name = Regular;
paths = (
{
closed = 1;
nodes = (
"303 0 LINE",
"440 451 LINE",
"569 0 LINE",
"676 0 LINE",
"825 644 LINE",
"719 644 LINE",
"608 161 LINE",
"471 644 LINE",
"382 644 LINE",
"382 566 LINE",
"260 161 LINE",
"151 644 LINE",
"44 644 LINE",
"194 0 LINE"
);
},
{
closed = 1;
nodes = (
"365 687 LINE",
"439 788 LINE",
"515 687 LINE",
"602 687 LINE",
"477 848 LINE",
"401 848 LINE",
"276 687 LINE"
);
}
);
width = 869;
}
);
leftKerningGroup = W;
note = Wcircumflex;
rightKerningGroup = W;
unicode = 0174;
},
{
glyphname = Wdieresis;
lastChange = "2015-11-25 04:39:11 +0000";
layers = (
{
layerId = "9971B372-118E-4AC7-9904-5BD2E656A77C";
name = Regular;
paths = (
{
closed = 1;
nodes = (
"303 0 LINE",
"440 451 LINE",
"569 0 LINE",
"676 0 LINE",
"825 644 LINE",
"719 644 LINE",
"608 161 LINE",
"471 644 LINE",
"382 644 LINE",
"382 566 LINE",
"260 161 LINE",
"151 644 LINE",
"44 644 LINE",
"194 0 LINE"
);
},
{
closed = 1;
nodes = (
"393 710 LINE",
"393 796 LINE",
"301 796 LINE",
"301 710 LINE"
);
},
{
closed = 1;
nodes = (
"579 710 LINE",
"579 796 LINE",
"487 796 LINE",
"487 710 LINE"
);
}
);
width = 869;
}
);
leftKerningGroup = W;
note = Wdieresis;
rightKerningGroup = W;
unicode = 1E84;
},
{
glyphname = Wgrave;
lastChange = "2015-11-25 04:39:11 +0000";
layers = (
{
layerId = "9971B372-118E-4AC7-9904-5BD2E656A77C";
name = Regular;
paths = (
{
closed = 1;
nodes = (
"303 0 LINE",
"440 451 LINE",
"569 0 LINE",
"676 0 LINE",
"825 644 LINE",
"719 644 LINE",
"608 161 LINE",
"471 644 LINE",
"382 644 LINE",
"382 566 LINE",
"260 161 LINE",
"151 644 LINE",
"44 644 LINE",
"194 0 LINE"
);
},
{
closed = 1;
nodes = (
"464 688 LINE",
"388 865 LINE",
"293 865 LINE",
"376 688 LINE"
);
}
);
width = 869;
}
);
leftKerningGroup = W;
note = Wgrave;
rightKerningGroup = W;
unicode = 1E80;
},
{
glyphname = X;
lastChange = "2015-10-24 17:36:10 +0000";
layers = (
{
layerId = "9971B372-118E-4AC7-9904-5BD2E656A77C";
name = Regular;
paths = (
{
closed = 1;
nodes = (
"171 0 LINE",
"338 236 LINE",
"505 0 LINE",
"633 0 LINE",
"403 321 LINE",
"629 644 LINE",
"502 644 LINE",
"338 405 LINE",
"174 644 LINE",
"48 644 LINE",
"273 321 LINE",
"43 0 LINE"
);
}
);
width = 677;
}
);
note = X;
unicode = 0058;
},
{
glyphname = Y;
lastChange = "2015-10-24 17:36:09 +0000";
layers = (
{
layerId = "9971B372-118E-4AC7-9904-5BD2E656A77C";
name = Regular;
paths = (
{
closed = 1;
nodes = (
"382 0 LINE",
"382 239 LINE",
"613 644 LINE",
"500 644 LINE",
"328 331 LINE",
"156 644 LINE",
"43 644 LINE",
"274 239 LINE",
"274 0 LINE"
);
}
);
width = 656;
}
);
leftKerningGroup = Y;
note = Y;
rightKerningGroup = Y;
unicode = 0059;
},
{
glyphname = Yacute;
lastChange = "2015-10-24 17:36:10 +0000";
layers = (
{
layerId = "9971B372-118E-4AC7-9904-5BD2E656A77C";
name = Regular;
paths = (
{
closed = 1;
nodes = (
"382 0 LINE",
"382 239 LINE",
"613 644 LINE",
"500 644 LINE",
"328 331 LINE",
"156 644 LINE",
"43 644 LINE",
"274 239 LINE",
"274 0 LINE"
);
},
{
closed = 1;
nodes = (
"361 688 LINE",
"445 865 LINE",
"349 865 LINE",
"274 688 LINE"
);
}
);
width = 656;
}
);
leftKerningGroup = Y;
note = Yacute;
rightKerningGroup = Y;
unicode = 00DD;
},
{
glyphname = Ycircumflex;
lastChange = "2015-10-24 17:36:09 +0000";
layers = (
{
layerId = "9971B372-118E-4AC7-9904-5BD2E656A77C";
name = Regular;
paths = (
{
closed = 1;
nodes = (
"382 0 LINE",
"382 239 LINE",
"613 644 LINE",
"500 644 LINE",
"328 331 LINE",
"156 644 LINE",
"43 644 LINE",
"274 239 LINE",
"274 0 LINE"
);
},
{
closed = 1;
nodes = (
"254 687 LINE",
"328 788 LINE",
"404 687 LINE",
"491 687 LINE",
"366 848 LINE",
"290 848 LINE",
"165 687 LINE"
);
}
);
width = 656;
}
);
leftKerningGroup = Y;
note = Ycircumflex;
rightKerningGroup = Y;
unicode = 0176;
},
{
glyphname = Ydieresis;
lastChange = "2015-10-24 17:36:10 +0000";
layers = (
{
layerId = "9971B372-118E-4AC7-9904-5BD2E656A77C";
name = Regular;
paths = (
{
closed = 1;
nodes = (
"382 0 LINE",
"382 239 LINE",
"613 644 LINE",
"500 644 LINE",
"328 331 LINE",
"156 644 LINE",
"43 644 LINE",
"274 239 LINE",
"274 0 LINE"
);
},
{
closed = 1;
nodes = (
"281 712 LINE",
"281 798 LINE",
"189 798 LINE",
"189 712 LINE"
);
},
{
closed = 1;
nodes = (
"467 712 LINE",
"467 798 LINE",
"375 798 LINE",
"375 712 LINE"
);
}
);
width = 656;
}
);
leftKerningGroup = Y;
note = Ydieresis;
rightKerningGroup = Y;
unicode = 0178;
},
{
glyphname = Ydotaccent;
lastChange = "2015-10-24 17:36:10 +0000";
layers = (
{
layerId = "9971B372-118E-4AC7-9904-5BD2E656A77C";
name = Regular;
paths = (
{
closed = 1;
nodes = (
"382 0 LINE",
"382 239 LINE",
"613 644 LINE",
"500 644 LINE",
"328 331 LINE",
"156 644 LINE",
"43 644 LINE",
"274 239 LINE",
"274 0 LINE"
);
},
{
closed = 1;
nodes = (
"374 711 LINE",
"374 799 LINE",
"282 799 LINE",
"282 711 LINE"
);
}
);
width = 656;
}
);
leftKerningGroup = Y;
note = Ydotaccent;
rightKerningGroup = Y;
unicode = 1E8E;
},
{
glyphname = Ydotbelow;
lastChange = "2015-10-24 17:36:09 +0000";
layers = (
{
layerId = "9971B372-118E-4AC7-9904-5BD2E656A77C";
name = Regular;
paths = (
{
closed = 1;
nodes = (
"382 0 LINE",
"382 239 LINE",
"613 644 LINE",
"500 644 LINE",
"328 331 LINE",
"156 644 LINE",
"43 644 LINE",
"274 239 LINE",
"274 0 LINE"
);
},
{
closed = 1;
nodes = (
"375 -161 LINE",
"375 -73 LINE",
"281 -73 LINE",
"281 -161 LINE"
);
}
);
width = 656;
}
);
leftKerningGroup = Y;
note = Ydotbelow;
rightKerningGroup = Y;
unicode = 1EF4;
},
{
glyphname = Ygrave;
lastChange = "2015-10-24 17:36:09 +0000";
layers = (
{
layerId = "9971B372-118E-4AC7-9904-5BD2E656A77C";
name = Regular;
paths = (
{
closed = 1;
nodes = (
"382 0 LINE",
"382 239 LINE",
"613 644 LINE",
"500 644 LINE",
"328 331 LINE",
"156 644 LINE",
"43 644 LINE",
"274 239 LINE",
"274 0 LINE"
);
},
{
closed = 1;
nodes = (
"383 688 LINE",
"307 865 LINE",
"212 865 LINE",
"295 688 LINE"
);
}
);
width = 656;
}
);
leftKerningGroup = Y;
note = Ygrave;
rightKerningGroup = Y;
unicode = 1EF2;
},
{
glyphname = Yhookabove;
lastChange = "2015-10-24 17:36:09 +0000";
layers = (
{
layerId = "9971B372-118E-4AC7-9904-5BD2E656A77C";
name = Regular;
paths = (
{
closed = 1;
nodes = (
"382 0 LINE",
"382 239 LINE",
"613 644 LINE",
"500 644 LINE",
"328 331 LINE",
"156 644 LINE",
"43 644 LINE",
"274 239 LINE",
"274 0 LINE"
);
},
{
closed = 1;
nodes = (
"363 687 LINE",
"363 734 LINE",
"428 744 OFFCURVE",
"451 773 OFFCURVE",
"451 828 CURVE SMOOTH",
"451 885 OFFCURVE",
"407 921 OFFCURVE",
"325 921 CURVE SMOOTH",
"291 921 OFFCURVE",
"254 916 OFFCURVE",
"232 908 CURVE",
"232 849 LINE",
"249 856 OFFCURVE",
"276 861 OFFCURVE",
"296 861 CURVE SMOOTH",
"344 861 OFFCURVE",
"370 849 OFFCURVE",
"370 819 CURVE SMOOTH",
"370 786 OFFCURVE",
"354 773 OFFCURVE",
"278 769 CURVE",
"278 687 LINE"
);
}
);
width = 656;
}
);
leftKerningGroup = Y;
note = Yhookabove;
rightKerningGroup = Y;
unicode = 1EF6;
},
{
glyphname = Ytilde;
lastChange = "2015-10-24 17:36:11 +0000";
layers = (
{
layerId = "9971B372-118E-4AC7-9904-5BD2E656A77C";
name = Regular;
paths = (
{
closed = 1;
nodes = (
"382 0 LINE",
"382 239 LINE",
"613 644 LINE",
"500 644 LINE",
"328 331 LINE",
"156 644 LINE",
"43 644 LINE",
"274 239 LINE",
"274 0 LINE"
);
},
{
closed = 1;
nodes = (
"444 703 OFFCURVE",
"474 716 OFFCURVE",
"487 734 CURVE",
"487 814 LINE",
"469 790 OFFCURVE",
"443 777 OFFCURVE",
"407 777 CURVE SMOOTH",
"354 777 OFFCURVE",
"312 816 OFFCURVE",
"254 816 CURVE SMOOTH",
"221 816 OFFCURVE",
"186 804 OFFCURVE",
"169 786 CURVE",
"169 706 LINE",
"192 732 OFFCURVE",
"221 742 OFFCURVE",
"256 742 CURVE SMOOTH",
"302 742 OFFCURVE",
"353 703 OFFCURVE",
"408 703 CURVE SMOOTH"
);
}
);
width = 656;
}
);
leftKerningGroup = Y;
note = Ytilde;
rightKerningGroup = Y;
unicode = 1EF8;
},
{
glyphname = Z;
lastChange = "2015-10-24 17:36:09 +0000";
layers = (
{
layerId = "9971B372-118E-4AC7-9904-5BD2E656A77C";
name = Regular;
paths = (
{
closed = 1;
nodes = (
"534 0 LINE",
"534 84 LINE",
"186 84 LINE",
"529 577 LINE",
"529 644 LINE",
"60 644 LINE",
"60 555 LINE",
"389 555 LINE",
"43 58 LINE",
"43 0 LINE"
);
}
);
width = 575;
}
);
leftKerningGroup = Z;
note = Z;
rightKerningGroup = Z;
unicode = 005A;
},
{
glyphname = Zacute;
lastChange = "2015-10-24 17:36:09 +0000";
layers = (
{
layerId = "9971B372-118E-4AC7-9904-5BD2E656A77C";
name = Regular;
paths = (
{
closed = 1;
nodes = (
"534 0 LINE",
"534 84 LINE",
"186 84 LINE",
"529 577 LINE",
"529 644 LINE",
"60 644 LINE",
"60 555 LINE",
"389 555 LINE",
"43 58 LINE",
"43 0 LINE"
);
},
{
closed = 1;
nodes = (
"337 688 LINE",
"421 865 LINE",
"325 865 LINE",
"250 688 LINE"
);
}
);
width = 575;
}
);
leftKerningGroup = Z;
note = Zacute;
rightKerningGroup = Z;
unicode = 0179;
},
{
glyphname = Zcaron;
lastChange = "2015-10-24 17:36:10 +0000";
layers = (
{
layerId = "9971B372-118E-4AC7-9904-5BD2E656A77C";
name = Regular;
paths = (
{
closed = 1;
nodes = (
"534 0 LINE",
"534 84 LINE",
"186 84 LINE",
"529 577 LINE",
"529 644 LINE",
"60 644 LINE",
"60 555 LINE",
"389 555 LINE",
"43 58 LINE",
"43 0 LINE"
);
},
{
closed = 1;
nodes = (
"345 687 LINE",
"470 848 LINE",
"383 848 LINE",
"307 747 LINE",
"233 848 LINE",
"144 848 LINE",
"269 687 LINE"
);
}
);
width = 575;
}
);
leftKerningGroup = Z;
note = Zcaron;
rightKerningGroup = Z;
unicode = 017D;
},
{
glyphname = Zdotaccent;
lastChange = "2015-10-24 17:36:10 +0000";
layers = (
{
layerId = "9971B372-118E-4AC7-9904-5BD2E656A77C";
name = Regular;
paths = (
{
closed = 1;
nodes = (
"534 0 LINE",
"534 84 LINE",
"186 84 LINE",
"529 577 LINE",
"529 644 LINE",
"60 644 LINE",
"60 555 LINE",
"389 555 LINE",
"43 58 LINE",
"43 0 LINE"
);
},
{
closed = 1;
nodes = (
"345 711 LINE",
"345 799 LINE",
"253 799 LINE",
"253 711 LINE"
);
}
);
width = 575;
}
);
leftKerningGroup = Z;
note = Zdotaccent;
rightKerningGroup = Z;
unicode = 017B;
},
{
glyphname = Zdotbelow;
lastChange = "2015-10-24 17:36:10 +0000";
layers = (
{
layerId = "9971B372-118E-4AC7-9904-5BD2E656A77C";
name = Regular;
paths = (
{
closed = 1;
nodes = (
"534 0 LINE",
"534 84 LINE",
"186 84 LINE",
"529 577 LINE",
"529 644 LINE",
"60 644 LINE",
"60 555 LINE",
"389 555 LINE",
"43 58 LINE",
"43 0 LINE"
);
},
{
closed = 1;
nodes = (
"350 -173 LINE",
"350 -85 LINE",
"256 -85 LINE",
"256 -173 LINE"
);
}
);
width = 575;
}
);
leftKerningGroup = Z;
note = Zdotbelow;
rightKerningGroup = Z;
unicode = 1E92;
},
{
glyphname = a;
lastChange = "2015-10-24 17:36:10 +0000";
layers = (
{
layerId = "9971B372-118E-4AC7-9904-5BD2E656A77C";
name = Regular;
paths = (
{
closed = 1;
nodes = (
"296 -10 OFFCURVE",
"350 10 OFFCURVE",
"389 48 CURVE",
"396 0 LINE",
"489 0 LINE",
"489 305 LINE SMOOTH",
"489 431 OFFCURVE",
"414 484 OFFCURVE",
"276 484 CURVE SMOOTH",
"205 484 OFFCURVE",
"142 472 OFFCURVE",
"99 455 CURVE",
"99 374 LINE",
"146 390 OFFCURVE",
"201 399 OFFCURVE",
"256 399 CURVE SMOOTH",
"361 399 OFFCURVE",
"385 374 OFFCURVE",
"385 307 CURVE SMOOTH",
"385 286 LINE",
"233 286 LINE SMOOTH",
"103 286 OFFCURVE",
"43 225 OFFCURVE",
"43 135 CURVE SMOOTH",
"43 38 OFFCURVE",
"120 -10 OFFCURVE",
"211 -10 CURVE SMOOTH"
);
},
{
closed = 1;
nodes = (
"178 68 OFFCURVE",
"144 88 OFFCURVE",
"144 137 CURVE SMOOTH",
"144 188 OFFCURVE",
"171 212 OFFCURVE",
"235 212 CURVE SMOOTH",
"385 212 LINE",
"385 129 LINE",
"354 92 OFFCURVE",
"305 68 OFFCURVE",
"240 68 CURVE SMOOTH"
);
}
);
width = 547;
}
);
leftKerningGroup = a;
note = a;
rightKerningGroup = a;
unicode = 0061;
},
{
glyphname = aacute;
lastChange = "2015-10-24 17:36:09 +0000";
layers = (
{
layerId = "9971B372-118E-4AC7-9904-5BD2E656A77C";
name = Regular;
paths = (
{
closed = 1;
nodes = (
"296 -10 OFFCURVE",
"350 10 OFFCURVE",
"389 48 CURVE",
"396 0 LINE",
"489 0 LINE",
"489 305 LINE SMOOTH",
"489 431 OFFCURVE",
"414 484 OFFCURVE",
"276 484 CURVE SMOOTH",
"205 484 OFFCURVE",
"142 472 OFFCURVE",
"99 455 CURVE",
"99 374 LINE",
"146 390 OFFCURVE",
"201 399 OFFCURVE",
"256 399 CURVE SMOOTH",
"361 399 OFFCURVE",
"385 374 OFFCURVE",
"385 307 CURVE SMOOTH",
"385 286 LINE",
"233 286 LINE SMOOTH",
"103 286 OFFCURVE",
"43 225 OFFCURVE",
"43 135 CURVE SMOOTH",
"43 38 OFFCURVE",
"120 -10 OFFCURVE",
"211 -10 CURVE SMOOTH"
);
},
{
closed = 1;
nodes = (
"178 68 OFFCURVE",
"144 88 OFFCURVE",
"144 137 CURVE SMOOTH",
"144 188 OFFCURVE",
"171 212 OFFCURVE",
"235 212 CURVE SMOOTH",
"385 212 LINE",
"385 129 LINE",
"354 92 OFFCURVE",
"305 68 OFFCURVE",
"240 68 CURVE SMOOTH"
);
},
{
closed = 1;
nodes = (
"323 522 LINE",
"407 699 LINE",
"311 699 LINE",
"236 522 LINE"
);
}
);
width = 549;
}
);
leftKerningGroup = a;
note = aacute;
rightKerningGroup = a;
unicode = 00E1;
},
{
glyphname = abreve;
lastChange = "2015-10-24 17:36:09 +0000";
layers = (
{
layerId = "9971B372-118E-4AC7-9904-5BD2E656A77C";
name = Regular;
paths = (
{
closed = 1;
nodes = (
"296 -10 OFFCURVE",
"350 10 OFFCURVE",
"389 48 CURVE",
"396 0 LINE",
"489 0 LINE",
"489 305 LINE SMOOTH",
"489 431 OFFCURVE",
"414 484 OFFCURVE",
"276 484 CURVE SMOOTH",
"205 484 OFFCURVE",
"142 472 OFFCURVE",
"99 455 CURVE",
"99 374 LINE",
"146 390 OFFCURVE",
"201 399 OFFCURVE",
"256 399 CURVE SMOOTH",
"361 399 OFFCURVE",
"385 374 OFFCURVE",
"385 307 CURVE SMOOTH",
"385 286 LINE",
"233 286 LINE SMOOTH",
"103 286 OFFCURVE",
"43 225 OFFCURVE",
"43 135 CURVE SMOOTH",
"43 38 OFFCURVE",
"120 -10 OFFCURVE",
"211 -10 CURVE SMOOTH"
);
},
{
closed = 1;
nodes = (
"178 68 OFFCURVE",
"144 88 OFFCURVE",
"144 137 CURVE SMOOTH",
"144 188 OFFCURVE",
"171 212 OFFCURVE",
"235 212 CURVE SMOOTH",
"385 212 LINE",
"385 129 LINE",
"354 92 OFFCURVE",
"305 68 OFFCURVE",
"240 68 CURVE SMOOTH"
);
},
{
closed = 1;
nodes = (
"380 522 OFFCURVE",
"435 577 OFFCURVE",
"435 663 CURVE",
"361 663 LINE",
"361 617 OFFCURVE",
"336 587 OFFCURVE",
"291 587 CURVE SMOOTH",
"248 587 OFFCURVE",
"224 617 OFFCURVE",
"224 663 CURVE",
"150 663 LINE",
"150 577 OFFCURVE",
"203 522 OFFCURVE",
"291 522 CURVE SMOOTH"
);
}
);
width = 547;
}
);
leftKerningGroup = a;
note = abreve;
rightKerningGroup = a;
unicode = 0103;
},
{
glyphname = abreveacute;
lastChange = "2015-10-24 17:36:09 +0000";
layers = (
{
layerId = "9971B372-118E-4AC7-9904-5BD2E656A77C";
name = Regular;
paths = (
{
closed = 1;
nodes = (
"296 -10 OFFCURVE",
"350 10 OFFCURVE",
"389 48 CURVE",
"396 0 LINE",
"489 0 LINE",
"489 305 LINE SMOOTH",
"489 431 OFFCURVE",
"414 484 OFFCURVE",
"276 484 CURVE SMOOTH",
"205 484 OFFCURVE",
"142 472 OFFCURVE",
"99 455 CURVE",
"99 374 LINE",
"146 390 OFFCURVE",
"201 399 OFFCURVE",
"256 399 CURVE SMOOTH",
"361 399 OFFCURVE",
"385 374 OFFCURVE",
"385 307 CURVE SMOOTH",
"385 286 LINE",
"233 286 LINE SMOOTH",
"103 286 OFFCURVE",
"43 225 OFFCURVE",
"43 135 CURVE SMOOTH",
"43 38 OFFCURVE",
"120 -10 OFFCURVE",
"211 -10 CURVE SMOOTH"
);
},
{
closed = 1;
nodes = (
"178 68 OFFCURVE",
"144 88 OFFCURVE",
"144 137 CURVE SMOOTH",
"144 188 OFFCURVE",
"171 212 OFFCURVE",
"235 212 CURVE SMOOTH",
"385 212 LINE",
"385 129 LINE",
"354 92 OFFCURVE",
"305 68 OFFCURVE",
"240 68 CURVE SMOOTH"
);
},
{
closed = 1;
nodes = (
"381 522 OFFCURVE",
"450 563 OFFCURVE",
"450 670 CURVE",
"384 670 LINE",
"384 611 OFFCURVE",
"349 581 OFFCURVE",
"294 581 CURVE SMOOTH",
"239 581 OFFCURVE",
"204 611 OFFCURVE",
"204 670 CURVE",
"138 670 LINE",
"138 563 OFFCURVE",
"207 522 OFFCURVE",
"294 522 CURVE SMOOTH"
);
},
{
closed = 1;
nodes = (
"324 639 LINE",
"395 772 LINE",
"311 772 LINE",
"247 639 LINE"
);
}
);
width = 547;
}
);
leftKerningGroup = a;
note = abreveacute;
rightKerningGroup = a;
unicode = 1EAF;
},
{
glyphname = abrevedotbelow;
lastChange = "2015-11-25 04:39:36 +0000";
layers = (
{
layerId = "9971B372-118E-4AC7-9904-5BD2E656A77C";
name = Regular;
paths = (
{
closed = 1;
nodes = (
"296 -10 OFFCURVE",
"350 10 OFFCURVE",
"389 48 CURVE",
"396 0 LINE",
"489 0 LINE",
"489 305 LINE SMOOTH",
"489 431 OFFCURVE",
"414 484 OFFCURVE",
"276 484 CURVE SMOOTH",
"205 484 OFFCURVE",
"142 472 OFFCURVE",
"99 455 CURVE",
"99 374 LINE",
"146 390 OFFCURVE",
"201 399 OFFCURVE",
"256 399 CURVE SMOOTH",
"361 399 OFFCURVE",
"385 374 OFFCURVE",
"385 307 CURVE SMOOTH",
"385 286 LINE",
"233 286 LINE SMOOTH",
"103 286 OFFCURVE",
"43 225 OFFCURVE",
"43 135 CURVE SMOOTH",
"43 38 OFFCURVE",
"120 -10 OFFCURVE",
"211 -10 CURVE SMOOTH"
);
},
{
closed = 1;
nodes = (
"178 68 OFFCURVE",
"144 88 OFFCURVE",
"144 137 CURVE SMOOTH",
"144 188 OFFCURVE",
"171 212 OFFCURVE",
"235 212 CURVE SMOOTH",
"385 212 LINE",
"385 129 LINE",
"354 92 OFFCURVE",
"305 68 OFFCURVE",
"240 68 CURVE SMOOTH"
);
},
{
closed = 1;
nodes = (
"337 -173 LINE",
"337 -85 LINE",
"243 -85 LINE",
"243 -173 LINE"
);
},
{
closed = 1;
nodes = (
"378 522 OFFCURVE",
"433 577 OFFCURVE",
"433 663 CURVE",
"359 663 LINE",
"359 617 OFFCURVE",
"334 587 OFFCURVE",
"289 587 CURVE SMOOTH",
"246 587 OFFCURVE",
"222 617 OFFCURVE",
"222 663 CURVE",
"148 663 LINE",
"148 577 OFFCURVE",
"201 522 OFFCURVE",
"289 522 CURVE SMOOTH"
);
}
);
width = 547;
}
);
leftKerningGroup = a;
note = abrevedotbelow;
rightKerningGroup = a;
unicode = 1EB7;
},
{
glyphname = abrevegrave;
lastChange = "2015-11-25 04:39:55 +0000";
layers = (
{
layerId = "9971B372-118E-4AC7-9904-5BD2E656A77C";
name = Regular;
paths = (
{
closed = 1;
nodes = (
"296 -10 OFFCURVE",
"350 10 OFFCURVE",
"389 48 CURVE",
"396 0 LINE",
"489 0 LINE",
"489 305 LINE SMOOTH",
"489 431 OFFCURVE",
"414 484 OFFCURVE",
"276 484 CURVE SMOOTH",
"205 484 OFFCURVE",
"142 472 OFFCURVE",
"99 455 CURVE",
"99 374 LINE",
"146 390 OFFCURVE",
"201 399 OFFCURVE",
"256 399 CURVE SMOOTH",
"361 399 OFFCURVE",
"385 374 OFFCURVE",
"385 307 CURVE SMOOTH",
"385 286 LINE",
"233 286 LINE SMOOTH",
"103 286 OFFCURVE",
"43 225 OFFCURVE",
"43 135 CURVE SMOOTH",
"43 38 OFFCURVE",
"120 -10 OFFCURVE",
"211 -10 CURVE SMOOTH"
);
},
{
closed = 1;
nodes = (
"178 68 OFFCURVE",
"144 88 OFFCURVE",
"144 137 CURVE SMOOTH",
"144 188 OFFCURVE",
"171 212 OFFCURVE",
"235 212 CURVE SMOOTH",
"385 212 LINE",
"385 129 LINE",
"354 92 OFFCURVE",
"305 68 OFFCURVE",
"240 68 CURVE SMOOTH"
);
},
{
closed = 1;
nodes = (
"365 522 OFFCURVE",
"434 563 OFFCURVE",
"434 670 CURVE",
"368 670 LINE",
"368 611 OFFCURVE",
"333 581 OFFCURVE",
"278 581 CURVE SMOOTH",
"223 581 OFFCURVE",
"188 611 OFFCURVE",
"188 670 CURVE",
"122 670 LINE",
"122 563 OFFCURVE",
"191 522 OFFCURVE",
"278 522 CURVE SMOOTH"
);
},
{
closed = 1;
nodes = (
"325 639 LINE",
"261 772 LINE",
"177 772 LINE",
"248 639 LINE"
);
}
);
width = 547;
}
);
leftKerningGroup = a;
note = abrevegrave;
rightKerningGroup = a;
unicode = 1EB1;
},
{
glyphname = abrevehookabove;
lastChange = "2015-11-25 04:40:00 +0000";
layers = (
{
layerId = "9971B372-118E-4AC7-9904-5BD2E656A77C";
name = Regular;
paths = (
{
closed = 1;
nodes = (
"296 -10 OFFCURVE",
"350 10 OFFCURVE",
"389 48 CURVE",
"396 0 LINE",
"489 0 LINE",
"489 305 LINE SMOOTH",
"489 431 OFFCURVE",
"414 484 OFFCURVE",
"276 484 CURVE SMOOTH",
"205 484 OFFCURVE",
"142 472 OFFCURVE",
"99 455 CURVE",
"99 374 LINE",
"146 390 OFFCURVE",
"201 399 OFFCURVE",
"256 399 CURVE SMOOTH",
"361 399 OFFCURVE",
"385 374 OFFCURVE",
"385 307 CURVE SMOOTH",
"385 286 LINE",
"233 286 LINE SMOOTH",
"103 286 OFFCURVE",
"43 225 OFFCURVE",
"43 135 CURVE SMOOTH",
"43 38 OFFCURVE",
"120 -10 OFFCURVE",
"211 -10 CURVE SMOOTH"
);
},
{
closed = 1;
nodes = (
"178 68 OFFCURVE",
"144 88 OFFCURVE",
"144 137 CURVE SMOOTH",
"144 188 OFFCURVE",
"171 212 OFFCURVE",
"235 212 CURVE SMOOTH",
"385 212 LINE",
"385 129 LINE",
"354 92 OFFCURVE",
"305 68 OFFCURVE",
"240 68 CURVE SMOOTH"
);
},
{
closed = 1;
nodes = (
"365 522 OFFCURVE",
"434 563 OFFCURVE",
"434 670 CURVE",
"368 670 LINE",
"368 611 OFFCURVE",
"333 581 OFFCURVE",
"278 581 CURVE SMOOTH",
"223 581 OFFCURVE",
"188 611 OFFCURVE",
"188 670 CURVE",
"122 670 LINE",
"122 563 OFFCURVE",
"191 522 OFFCURVE",
"278 522 CURVE SMOOTH"
);
},
{
closed = 1;
nodes = (
"310 644 LINE",
"310 677 LINE",
"366 687 OFFCURVE",
"388 709 OFFCURVE",
"388 753 CURVE SMOOTH",
"388 800 OFFCURVE",
"352 830 OFFCURVE",
"289 830 CURVE SMOOTH",
"258 830 OFFCURVE",
"228 825 OFFCURVE",
"208 818 CURVE",
"208 767 LINE",
"224 774 OFFCURVE",
"242 779 OFFCURVE",
"263 779 CURVE SMOOTH",
"298 779 OFFCURVE",
"315 772 OFFCURVE",
"315 746 CURVE SMOOTH",
"315 720 OFFCURVE",
"298 706 OFFCURVE",
"234 703 CURVE",
"234 644 LINE"
);
}
);
width = 547;
}
);
leftKerningGroup = a;
note = abrevehookabove;
rightKerningGroup = a;
unicode = 1EB3;
},
{
glyphname = abrevetilde;
lastChange = "2015-11-25 04:40:04 +0000";
layers = (
{
layerId = "9971B372-118E-4AC7-9904-5BD2E656A77C";
name = Regular;
paths = (
{
closed = 1;
nodes = (
"296 -10 OFFCURVE",
"350 10 OFFCURVE",
"389 48 CURVE",
"396 0 LINE",
"489 0 LINE",
"489 305 LINE SMOOTH",
"489 431 OFFCURVE",
"414 484 OFFCURVE",
"276 484 CURVE SMOOTH",
"205 484 OFFCURVE",
"142 472 OFFCURVE",
"99 455 CURVE",
"99 374 LINE",
"146 390 OFFCURVE",
"201 399 OFFCURVE",
"256 399 CURVE SMOOTH",
"361 399 OFFCURVE",
"385 374 OFFCURVE",
"385 307 CURVE SMOOTH",
"385 286 LINE",
"233 286 LINE SMOOTH",
"103 286 OFFCURVE",
"43 225 OFFCURVE",
"43 135 CURVE SMOOTH",
"43 38 OFFCURVE",
"120 -10 OFFCURVE",
"211 -10 CURVE SMOOTH"
);
},
{
closed = 1;
nodes = (
"178 68 OFFCURVE",
"144 88 OFFCURVE",
"144 137 CURVE SMOOTH",
"144 188 OFFCURVE",
"171 212 OFFCURVE",
"235 212 CURVE SMOOTH",
"385 212 LINE",
"385 129 LINE",
"354 92 OFFCURVE",
"305 68 OFFCURVE",
"240 68 CURVE SMOOTH"
);
},
{
closed = 1;
nodes = (
"366 522 OFFCURVE",
"435 563 OFFCURVE",
"435 670 CURVE",
"369 670 LINE",
"369 611 OFFCURVE",
"334 581 OFFCURVE",
"279 581 CURVE SMOOTH",
"224 581 OFFCURVE",
"189 611 OFFCURVE",
"189 670 CURVE",
"123 670 LINE",
"123 563 OFFCURVE",
"192 522 OFFCURVE",
"279 522 CURVE SMOOTH"
);
},
{
closed = 1;
nodes = (
"391 691 OFFCURVE",
"420 703 OFFCURVE",
"433 720 CURVE",
"433 792 LINE",
"416 768 OFFCURVE",
"390 756 OFFCURVE",
"356 756 CURVE SMOOTH",
"305 756 OFFCURVE",
"265 794 OFFCURVE",
"209 794 CURVE SMOOTH",
"177 794 OFFCURVE",
"144 782 OFFCURVE",
"127 765 CURVE",
"127 694 LINE",
"149 718 OFFCURVE",
"177 728 OFFCURVE",
"210 728 CURVE SMOOTH",
"255 728 OFFCURVE",
"304 691 OFFCURVE",
"357 691 CURVE SMOOTH"
);
}
);
width = 547;
}
);
leftKerningGroup = a;
note = abrevetilde;
rightKerningGroup = a;
unicode = 1EB5;
},
{
glyphname = acaron;
lastChange = "2015-10-24 17:36:10 +0000";
layers = (
{
layerId = "9971B372-118E-4AC7-9904-5BD2E656A77C";
name = Regular;
paths = (
{
closed = 1;
nodes = (
"296 -10 OFFCURVE",
"350 10 OFFCURVE",
"389 48 CURVE",
"396 0 LINE",
"489 0 LINE",
"489 305 LINE SMOOTH",
"489 431 OFFCURVE",
"414 484 OFFCURVE",
"276 484 CURVE SMOOTH",
"205 484 OFFCURVE",
"142 472 OFFCURVE",
"99 455 CURVE",
"99 374 LINE",
"146 390 OFFCURVE",
"201 399 OFFCURVE",
"256 399 CURVE SMOOTH",
"361 399 OFFCURVE",
"385 374 OFFCURVE",
"385 307 CURVE SMOOTH",
"385 286 LINE",
"233 286 LINE SMOOTH",
"103 286 OFFCURVE",
"43 225 OFFCURVE",
"43 135 CURVE SMOOTH",
"43 38 OFFCURVE",
"120 -10 OFFCURVE",
"211 -10 CURVE SMOOTH"
);
},
{
closed = 1;
nodes = (
"178 68 OFFCURVE",
"144 88 OFFCURVE",
"144 137 CURVE SMOOTH",
"144 188 OFFCURVE",
"171 212 OFFCURVE",
"235 212 CURVE SMOOTH",
"385 212 LINE",
"385 129 LINE",
"354 92 OFFCURVE",
"305 68 OFFCURVE",
"240 68 CURVE SMOOTH"
);
},
{
closed = 1;
nodes = (
"321 521 LINE",
"446 682 LINE",
"359 682 LINE",
"283 581 LINE",
"209 682 LINE",
"120 682 LINE",
"245 521 LINE"
);
}
);
width = 547;
}
);
leftKerningGroup = a;
note = acaron;
rightKerningGroup = a;
unicode = 01CE;
},
{
glyphname = acircumflex;
lastChange = "2015-11-25 04:40:14 +0000";
layers = (
{
layerId = "9971B372-118E-4AC7-9904-5BD2E656A77C";
name = Regular;
paths = (
{
closed = 1;
nodes = (
"296 -10 OFFCURVE",
"350 10 OFFCURVE",
"389 48 CURVE",
"396 0 LINE",
"489 0 LINE",
"489 305 LINE SMOOTH",
"489 431 OFFCURVE",
"414 484 OFFCURVE",
"276 484 CURVE SMOOTH",
"205 484 OFFCURVE",
"142 472 OFFCURVE",
"99 455 CURVE",
"99 374 LINE",
"146 390 OFFCURVE",
"201 399 OFFCURVE",
"256 399 CURVE SMOOTH",
"361 399 OFFCURVE",
"385 374 OFFCURVE",
"385 307 CURVE SMOOTH",
"385 286 LINE",
"233 286 LINE SMOOTH",
"103 286 OFFCURVE",
"43 225 OFFCURVE",
"43 135 CURVE SMOOTH",
"43 38 OFFCURVE",
"120 -10 OFFCURVE",
"211 -10 CURVE SMOOTH"
);
},
{
closed = 1;
nodes = (
"178 68 OFFCURVE",
"144 88 OFFCURVE",
"144 137 CURVE SMOOTH",
"144 188 OFFCURVE",
"171 212 OFFCURVE",
"235 212 CURVE SMOOTH",
"385 212 LINE",
"385 129 LINE",
"354 92 OFFCURVE",
"305 68 OFFCURVE",
"240 68 CURVE SMOOTH"
);
},
{
closed = 1;
nodes = (
"211 521 LINE",
"285 622 LINE",
"361 521 LINE",
"448 521 LINE",
"323 682 LINE",
"247 682 LINE",
"122 521 LINE"
);
}
);
width = 547;
}
);
leftKerningGroup = a;
note = acircumflex;
rightKerningGroup = a;
unicode = 00E2;
},
{
glyphname = acircumflexacute;
lastChange = "2015-11-25 04:40:20 +0000";
layers = (
{
layerId = "9971B372-118E-4AC7-9904-5BD2E656A77C";
name = Regular;
paths = (
{
closed = 1;
nodes = (
"296 -10 OFFCURVE",
"350 10 OFFCURVE",
"389 48 CURVE",
"396 0 LINE",
"489 0 LINE",
"489 305 LINE SMOOTH",
"489 431 OFFCURVE",
"414 484 OFFCURVE",
"276 484 CURVE SMOOTH",
"205 484 OFFCURVE",
"142 472 OFFCURVE",
"99 455 CURVE",
"99 374 LINE",
"146 390 OFFCURVE",
"201 399 OFFCURVE",
"256 399 CURVE SMOOTH",
"361 399 OFFCURVE",
"385 374 OFFCURVE",
"385 307 CURVE SMOOTH",
"385 286 LINE",
"233 286 LINE SMOOTH",
"103 286 OFFCURVE",
"43 225 OFFCURVE",
"43 135 CURVE SMOOTH",
"43 38 OFFCURVE",
"120 -10 OFFCURVE",
"211 -10 CURVE SMOOTH"
);
},
{
closed = 1;
nodes = (
"178 68 OFFCURVE",
"144 88 OFFCURVE",
"144 137 CURVE SMOOTH",
"144 188 OFFCURVE",
"171 212 OFFCURVE",
"235 212 CURVE SMOOTH",
"385 212 LINE",
"385 129 LINE",
"354 92 OFFCURVE",
"305 68 OFFCURVE",
"240 68 CURVE SMOOTH"
);
},
{
closed = 1;
nodes = (
"217 521 LINE",
"287 603 LINE",
"359 521 LINE",
"448 521 LINE",
"329 648 LINE",
"245 648 LINE",
"126 521 LINE"
);
},
{
closed = 1;
nodes = (
"455 634 LINE",
"525 767 LINE",
"442 767 LINE",
"378 634 LINE"
);
}
);
width = 547;
}
);
leftKerningGroup = a;
note = acircumflexacute;
rightKerningGroup = a;
unicode = 1EA5;
},
{
glyphname = acircumflexdotbelow;
lastChange = "2015-11-25 04:40:26 +0000";
layers = (
{
layerId = "9971B372-118E-4AC7-9904-5BD2E656A77C";
name = Regular;
paths = (
{
closed = 1;
nodes = (
"296 -10 OFFCURVE",
"350 10 OFFCURVE",
"389 48 CURVE",
"396 0 LINE",
"489 0 LINE",
"489 305 LINE SMOOTH",
"489 431 OFFCURVE",
"414 484 OFFCURVE",
"276 484 CURVE SMOOTH",
"205 484 OFFCURVE",
"142 472 OFFCURVE",
"99 455 CURVE",
"99 374 LINE",
"146 390 OFFCURVE",
"201 399 OFFCURVE",
"256 399 CURVE SMOOTH",
"361 399 OFFCURVE",
"385 374 OFFCURVE",
"385 307 CURVE SMOOTH",
"385 286 LINE",
"233 286 LINE SMOOTH",
"103 286 OFFCURVE",
"43 225 OFFCURVE",
"43 135 CURVE SMOOTH",
"43 38 OFFCURVE",
"120 -10 OFFCURVE",
"211 -10 CURVE SMOOTH"
);
},
{
closed = 1;
nodes = (
"178 68 OFFCURVE",
"144 88 OFFCURVE",
"144 137 CURVE SMOOTH",
"144 188 OFFCURVE",
"171 212 OFFCURVE",
"235 212 CURVE SMOOTH",
"385 212 LINE",
"385 129 LINE",
"354 92 OFFCURVE",
"305 68 OFFCURVE",
"240 68 CURVE SMOOTH"
);
},
{
closed = 1;
nodes = (
"330 -173 LINE",
"330 -85 LINE",
"236 -85 LINE",
"236 -173 LINE"
);
},
{
closed = 1;
nodes = (
"209 521 LINE",
"283 622 LINE",
"359 521 LINE",
"446 521 LINE",
"321 682 LINE",
"245 682 LINE",
"120 521 LINE"
);
}
);
width = 547;
}
);
leftKerningGroup = a;
note = acircumflexdotbelow;
rightKerningGroup = a;
unicode = 1EAD;
},
{
glyphname = acircumflexgrave;
lastChange = "2015-10-24 17:36:10 +0000";
layers = (
{
layerId = "9971B372-118E-4AC7-9904-5BD2E656A77C";
name = Regular;
paths = (
{
closed = 1;
nodes = (
"296 -10 OFFCURVE",
"350 10 OFFCURVE",
"389 48 CURVE",
"396 0 LINE",
"489 0 LINE",
"489 305 LINE SMOOTH",
"489 431 OFFCURVE",
"414 484 OFFCURVE",
"276 484 CURVE SMOOTH",
"205 484 OFFCURVE",
"142 472 OFFCURVE",
"99 455 CURVE",
"99 374 LINE",
"146 390 OFFCURVE",
"201 399 OFFCURVE",
"256 399 CURVE SMOOTH",
"361 399 OFFCURVE",
"385 374 OFFCURVE",
"385 307 CURVE SMOOTH",
"385 286 LINE",
"233 286 LINE SMOOTH",
"103 286 OFFCURVE",
"43 225 OFFCURVE",
"43 135 CURVE SMOOTH",
"43 38 OFFCURVE",
"120 -10 OFFCURVE",
"211 -10 CURVE SMOOTH"
);
},
{
closed = 1;
nodes = (
"178 68 OFFCURVE",
"144 88 OFFCURVE",
"144 137 CURVE SMOOTH",
"144 188 OFFCURVE",
"171 212 OFFCURVE",
"235 212 CURVE SMOOTH",
"385 212 LINE",
"385 129 LINE",
"354 92 OFFCURVE",
"305 68 OFFCURVE",
"240 68 CURVE SMOOTH"
);
},
{
closed = 1;
nodes = (
"186 634 LINE",
"122 767 LINE",
"38 767 LINE",
"109 634 LINE"
);
},
{
closed = 1;
nodes = (
"205 521 LINE",
"276 603 LINE",
"347 521 LINE",
"437 521 LINE",
"319 648 LINE",
"234 648 LINE",
"116 521 LINE"
);
}
);
width = 547;
}
);
leftKerningGroup = a;
note = acircumflexgrave;
rightKerningGroup = a;
unicode = 1EA7;
},
{
glyphname = acircumflexhookabove;
lastChange = "2015-11-25 04:40:41 +0000";
layers = (
{
layerId = "9971B372-118E-4AC7-9904-5BD2E656A77C";
name = Regular;
paths = (
{
closed = 1;
nodes = (
"296 -10 OFFCURVE",
"350 10 OFFCURVE",
"389 48 CURVE",
"396 0 LINE",
"489 0 LINE",
"489 305 LINE SMOOTH",
"489 431 OFFCURVE",
"414 484 OFFCURVE",
"276 484 CURVE SMOOTH",
"205 484 OFFCURVE",
"142 472 OFFCURVE",
"99 455 CURVE",
"99 374 LINE",
"146 390 OFFCURVE",
"201 399 OFFCURVE",
"256 399 CURVE SMOOTH",
"361 399 OFFCURVE",
"385 374 OFFCURVE",
"385 307 CURVE SMOOTH",
"385 286 LINE",
"233 286 LINE SMOOTH",
"103 286 OFFCURVE",
"43 225 OFFCURVE",
"43 135 CURVE SMOOTH",
"43 38 OFFCURVE",
"120 -10 OFFCURVE",
"211 -10 CURVE SMOOTH"
);
},
{
closed = 1;
nodes = (
"178 68 OFFCURVE",
"144 88 OFFCURVE",
"144 137 CURVE SMOOTH",
"144 188 OFFCURVE",
"171 212 OFFCURVE",
"235 212 CURVE SMOOTH",
"385 212 LINE",
"385 129 LINE",
"354 92 OFFCURVE",
"305 68 OFFCURVE",
"240 68 CURVE SMOOTH"
);
},
{
closed = 1;
nodes = (
"209 520 LINE",
"280 602 LINE",
"351 520 LINE",
"440 520 LINE",
"322 647 LINE",
"237 647 LINE",
"119 520 LINE"
);
},
{
closed = 1;
nodes = (
"456 612 LINE",
"456 646 LINE",
"510 654 OFFCURVE",
"533 679 OFFCURVE",
"533 723 CURVE SMOOTH",
"533 770 OFFCURVE",
"495 801 OFFCURVE",
"430 801 CURVE SMOOTH",
"397 801 OFFCURVE",
"373 796 OFFCURVE",
"353 789 CURVE",
"353 736 LINE",
"369 743 OFFCURVE",
"387 748 OFFCURVE",
"409 748 CURVE SMOOTH",
"441 748 OFFCURVE",
"456 739 OFFCURVE",
"456 717 CURVE SMOOTH",
"456 693 OFFCURVE",
"443 681 OFFCURVE",
"379 678 CURVE",
"379 612 LINE"
);
}
);
width = 547;
}
);
leftKerningGroup = a;
note = acircumflexhookabove;
rightKerningGroup = a;
unicode = 1EA9;
},
{
glyphname = acircumflextilde;
lastChange = "2015-10-24 17:36:09 +0000";
layers = (
{
layerId = "9971B372-118E-4AC7-9904-5BD2E656A77C";
name = Regular;
paths = (
{
closed = 1;
nodes = (
"296 -10 OFFCURVE",
"350 10 OFFCURVE",
"389 48 CURVE",
"396 0 LINE",
"489 0 LINE",
"489 305 LINE SMOOTH",
"489 431 OFFCURVE",
"414 484 OFFCURVE",
"276 484 CURVE SMOOTH",
"205 484 OFFCURVE",
"142 472 OFFCURVE",
"99 455 CURVE",
"99 374 LINE",
"146 390 OFFCURVE",
"201 399 OFFCURVE",
"256 399 CURVE SMOOTH",
"361 399 OFFCURVE",
"385 374 OFFCURVE",
"385 307 CURVE SMOOTH",
"385 286 LINE",
"233 286 LINE SMOOTH",
"103 286 OFFCURVE",
"43 225 OFFCURVE",
"43 135 CURVE SMOOTH",
"43 38 OFFCURVE",
"120 -10 OFFCURVE",
"211 -10 CURVE SMOOTH"
);
},
{
closed = 1;
nodes = (
"178 68 OFFCURVE",
"144 88 OFFCURVE",
"144 137 CURVE SMOOTH",
"144 188 OFFCURVE",
"171 212 OFFCURVE",
"235 212 CURVE SMOOTH",
"385 212 LINE",
"385 129 LINE",
"354 92 OFFCURVE",
"305 68 OFFCURVE",
"240 68 CURVE SMOOTH"
);
},
{
closed = 1;
nodes = (
"214 521 LINE",
"285 603 LINE",
"356 521 LINE",
"445 521 LINE",
"327 648 LINE",
"242 648 LINE",
"124 521 LINE"
);
},
{
closed = 1;
nodes = (
"401 656 OFFCURVE",
"430 669 OFFCURVE",
"443 686 CURVE",
"443 757 LINE",
"426 734 OFFCURVE",
"400 722 OFFCURVE",
"366 722 CURVE SMOOTH",
"315 722 OFFCURVE",
"275 759 OFFCURVE",
"219 759 CURVE SMOOTH",
"187 759 OFFCURVE",
"154 747 OFFCURVE",
"137 730 CURVE",
"137 659 LINE",
"159 684 OFFCURVE",
"187 694 OFFCURVE",
"220 694 CURVE SMOOTH",
"265 694 OFFCURVE",
"314 656 OFFCURVE",
"367 656 CURVE SMOOTH"
);
}
);
width = 547;
}
);
leftKerningGroup = a;
note = acircumflextilde;
rightKerningGroup = a;
unicode = 1EAB;
},
{
glyphname = adieresis;
lastChange = "2015-10-24 17:36:10 +0000";
layers = (
{
layerId = "9971B372-118E-4AC7-9904-5BD2E656A77C";
name = Regular;
paths = (
{
closed = 1;
nodes = (
"296 -10 OFFCURVE",
"350 10 OFFCURVE",
"389 48 CURVE",
"396 0 LINE",
"489 0 LINE",
"489 305 LINE SMOOTH",
"489 431 OFFCURVE",
"414 484 OFFCURVE",
"276 484 CURVE SMOOTH",
"205 484 OFFCURVE",
"142 472 OFFCURVE",
"99 455 CURVE",
"99 374 LINE",
"146 390 OFFCURVE",
"201 399 OFFCURVE",
"256 399 CURVE SMOOTH",
"361 399 OFFCURVE",
"385 374 OFFCURVE",
"385 307 CURVE SMOOTH",
"385 286 LINE",
"233 286 LINE SMOOTH",
"103 286 OFFCURVE",
"43 225 OFFCURVE",
"43 135 CURVE SMOOTH",
"43 38 OFFCURVE",
"120 -10 OFFCURVE",
"211 -10 CURVE SMOOTH"
);
},
{
closed = 1;
nodes = (
"178 68 OFFCURVE",
"144 88 OFFCURVE",
"144 137 CURVE SMOOTH",
"144 188 OFFCURVE",
"171 212 OFFCURVE",
"235 212 CURVE SMOOTH",
"385 212 LINE",
"385 129 LINE",
"354 92 OFFCURVE",
"305 68 OFFCURVE",
"240 68 CURVE SMOOTH"
);
},
{
closed = 1;
nodes = (
"244 546 LINE",
"244 632 LINE",
"152 632 LINE",
"152 546 LINE"
);
},
{
closed = 1;
nodes = (
"430 546 LINE",
"430 632 LINE",
"338 632 LINE",
"338 546 LINE"
);
}
);
width = 547;
}
);
leftKerningGroup = a;
note = adieresis;
rightKerningGroup = a;
unicode = 00E4;
},
{
glyphname = adotbelow;
lastChange = "2015-11-25 04:40:49 +0000";
layers = (
{
layerId = "9971B372-118E-4AC7-9904-5BD2E656A77C";
name = Regular;
paths = (
{
closed = 1;
nodes = (
"296 -10 OFFCURVE",
"350 10 OFFCURVE",
"389 48 CURVE",
"396 0 LINE",
"489 0 LINE",
"489 305 LINE SMOOTH",
"489 431 OFFCURVE",
"414 484 OFFCURVE",
"276 484 CURVE SMOOTH",
"205 484 OFFCURVE",
"142 472 OFFCURVE",
"99 455 CURVE",
"99 374 LINE",
"146 390 OFFCURVE",
"201 399 OFFCURVE",
"256 399 CURVE SMOOTH",
"361 399 OFFCURVE",
"385 374 OFFCURVE",
"385 307 CURVE SMOOTH",
"385 286 LINE",
"233 286 LINE SMOOTH",
"103 286 OFFCURVE",
"43 225 OFFCURVE",
"43 135 CURVE SMOOTH",
"43 38 OFFCURVE",
"120 -10 OFFCURVE",
"211 -10 CURVE SMOOTH"
);
},
{
closed = 1;
nodes = (
"178 68 OFFCURVE",
"144 88 OFFCURVE",
"144 137 CURVE SMOOTH",
"144 188 OFFCURVE",
"171 212 OFFCURVE",
"235 212 CURVE SMOOTH",
"385 212 LINE",
"385 129 LINE",
"354 92 OFFCURVE",
"305 68 OFFCURVE",
"240 68 CURVE SMOOTH"
);
},
{
closed = 1;
nodes = (
"335 -173 LINE",
"335 -85 LINE",
"241 -85 LINE",
"241 -173 LINE"
);
}
);
width = 547;
}
);
leftKerningGroup = a;
note = adotbelow;
rightKerningGroup = a;
unicode = 1EA1;
},
{
glyphname = agrave;
lastChange = "2015-10-24 17:36:09 +0000";
layers = (
{
layerId = "9971B372-118E-4AC7-9904-5BD2E656A77C";
name = Regular;
paths = (
{
closed = 1;
nodes = (
"296 -10 OFFCURVE",
"350 10 OFFCURVE",
"389 48 CURVE",
"396 0 LINE",
"489 0 LINE",
"489 305 LINE SMOOTH",
"489 431 OFFCURVE",
"414 484 OFFCURVE",
"276 484 CURVE SMOOTH",
"205 484 OFFCURVE",
"142 472 OFFCURVE",
"99 455 CURVE",
"99 374 LINE",
"146 390 OFFCURVE",
"201 399 OFFCURVE",
"256 399 CURVE SMOOTH",
"361 399 OFFCURVE",
"385 374 OFFCURVE",
"385 307 CURVE SMOOTH",
"385 286 LINE",
"233 286 LINE SMOOTH",
"103 286 OFFCURVE",
"43 225 OFFCURVE",
"43 135 CURVE SMOOTH",
"43 38 OFFCURVE",
"120 -10 OFFCURVE",
"211 -10 CURVE SMOOTH"
);
},
{
closed = 1;
nodes = (
"178 68 OFFCURVE",
"144 88 OFFCURVE",
"144 137 CURVE SMOOTH",
"144 188 OFFCURVE",
"171 212 OFFCURVE",
"235 212 CURVE SMOOTH",
"385 212 LINE",
"385 129 LINE",
"354 92 OFFCURVE",
"305 68 OFFCURVE",
"240 68 CURVE SMOOTH"
);
},
{
closed = 1;
nodes = (
"339 522 LINE",
"263 699 LINE",
"168 699 LINE",
"251 522 LINE"
);
}
);
width = 547;
}
);
leftKerningGroup = a;
note = agrave;
rightKerningGroup = a;
unicode = 00E0;
},
{
glyphname = ahookabove;
lastChange = "2015-10-24 17:36:10 +0000";
layers = (
{
layerId = "9971B372-118E-4AC7-9904-5BD2E656A77C";
name = Regular;
paths = (
{
closed = 1;
nodes = (
"296 -10 OFFCURVE",
"350 10 OFFCURVE",
"389 48 CURVE",
"396 0 LINE",
"489 0 LINE",
"489 305 LINE SMOOTH",
"489 431 OFFCURVE",
"414 484 OFFCURVE",
"276 484 CURVE SMOOTH",
"205 484 OFFCURVE",
"142 472 OFFCURVE",
"99 455 CURVE",
"99 374 LINE",
"146 390 OFFCURVE",
"201 399 OFFCURVE",
"256 399 CURVE SMOOTH",
"361 399 OFFCURVE",
"385 374 OFFCURVE",
"385 307 CURVE SMOOTH",
"385 286 LINE",
"233 286 LINE SMOOTH",
"103 286 OFFCURVE",
"43 225 OFFCURVE",
"43 135 CURVE SMOOTH",
"43 38 OFFCURVE",
"120 -10 OFFCURVE",
"211 -10 CURVE SMOOTH"
);
},
{
closed = 1;
nodes = (
"178 68 OFFCURVE",
"144 88 OFFCURVE",
"144 137 CURVE SMOOTH",
"144 188 OFFCURVE",
"171 212 OFFCURVE",
"235 212 CURVE SMOOTH",
"385 212 LINE",
"385 129 LINE",
"354 92 OFFCURVE",
"305 68 OFFCURVE",
"240 68 CURVE SMOOTH"
);
},
{
closed = 1;
nodes = (
"319 521 LINE",
"319 568 LINE",
"384 578 OFFCURVE",
"407 607 OFFCURVE",
"407 662 CURVE SMOOTH",
"407 719 OFFCURVE",
"363 755 OFFCURVE",
"281 755 CURVE SMOOTH",
"247 755 OFFCURVE",
"210 750 OFFCURVE",
"188 742 CURVE",
"188 683 LINE",
"205 690 OFFCURVE",
"232 695 OFFCURVE",
"252 695 CURVE SMOOTH",
"300 695 OFFCURVE",
"326 683 OFFCURVE",
"326 653 CURVE SMOOTH",
"326 620 OFFCURVE",
"310 607 OFFCURVE",
"234 603 CURVE",
"234 521 LINE"
);
}
);
width = 547;
}
);
leftKerningGroup = a;
note = ahookabove;
rightKerningGroup = a;
unicode = 1EA3;
},
{
glyphname = "alpha-latin";
lastChange = "2015-10-24 17:36:10 +0000";
layers = (
{
layerId = "9971B372-118E-4AC7-9904-5BD2E656A77C";
name = Regular;
paths = (
{
closed = 1;
nodes = (
"328 -10 OFFCURVE",
"376 8 OFFCURVE",
"419 47 CURVE",
"426 0 LINE",
"519 0 LINE",
"519 474 LINE",
"410 474 LINE",
"410 441 LINE",
"368 472 OFFCURVE",
"329 484 OFFCURVE",
"272 484 CURVE SMOOTH",
"144 484 OFFCURVE",
"43 384 OFFCURVE",
"43 218 CURVE SMOOTH",
"43 47 OFFCURVE",
"130 -10 OFFCURVE",
"259 -10 CURVE SMOOTH"
);
},
{
closed = 1;
nodes = (
"195 72 OFFCURVE",
"153 105 OFFCURVE",
"153 217 CURVE SMOOTH",
"153 335 OFFCURVE",
"202 401 OFFCURVE",
"301 401 CURVE SMOOTH",
"349 401 OFFCURVE",
"380 385 OFFCURVE",
"410 357 CURVE",
"410 122 LINE",
"377 88 OFFCURVE",
"338 72 OFFCURVE",
"288 72 CURVE SMOOTH"
);
}
);
width = 583;
}
);
leftKerningGroup = a;
note = ascript;
rightKerningGroup = a;
unicode = 0251;
},
{
glyphname = amacron;
lastChange = "2015-10-24 17:36:09 +0000";
layers = (
{
layerId = "9971B372-118E-4AC7-9904-5BD2E656A77C";
name = Regular;
paths = (
{
closed = 1;
nodes = (
"296 -10 OFFCURVE",
"350 10 OFFCURVE",
"389 48 CURVE",
"396 0 LINE",
"489 0 LINE",
"489 305 LINE SMOOTH",
"489 431 OFFCURVE",
"414 484 OFFCURVE",
"276 484 CURVE SMOOTH",
"205 484 OFFCURVE",
"142 472 OFFCURVE",
"99 455 CURVE",
"99 374 LINE",
"146 390 OFFCURVE",
"201 399 OFFCURVE",
"256 399 CURVE SMOOTH",
"361 399 OFFCURVE",
"385 374 OFFCURVE",
"385 307 CURVE SMOOTH",
"385 286 LINE",
"233 286 LINE SMOOTH",
"103 286 OFFCURVE",
"43 225 OFFCURVE",
"43 135 CURVE SMOOTH",
"43 38 OFFCURVE",
"120 -10 OFFCURVE",
"211 -10 CURVE SMOOTH"
);
},
{
closed = 1;
nodes = (
"178 68 OFFCURVE",
"144 88 OFFCURVE",
"144 137 CURVE SMOOTH",
"144 188 OFFCURVE",
"171 212 OFFCURVE",
"235 212 CURVE SMOOTH",
"385 212 LINE",
"385 129 LINE",
"354 92 OFFCURVE",
"305 68 OFFCURVE",
"240 68 CURVE SMOOTH"
);
},
{
closed = 1;
nodes = (
"436 543 LINE",
"436 614 LINE",
"138 614 LINE",
"138 543 LINE"
);
}
);
width = 547;
}
);
leftKerningGroup = a;
note = amacron;
rightKerningGroup = a;
unicode = 0101;
},
{
glyphname = aogonek;
lastChange = "2015-11-25 04:41:00 +0000";
layers = (
{
layerId = "9971B372-118E-4AC7-9904-5BD2E656A77C";
name = Regular;
paths = (
{
closed = 1;
nodes = (
"296 -10 OFFCURVE",
"350 10 OFFCURVE",
"389 48 CURVE",
"396 0 LINE",
"489 0 LINE",
"489 305 LINE SMOOTH",
"489 431 OFFCURVE",
"414 484 OFFCURVE",
"276 484 CURVE SMOOTH",
"205 484 OFFCURVE",
"142 472 OFFCURVE",
"99 455 CURVE",
"99 374 LINE",
"146 390 OFFCURVE",
"201 399 OFFCURVE",
"256 399 CURVE SMOOTH",
"361 399 OFFCURVE",
"385 374 OFFCURVE",
"385 307 CURVE SMOOTH",
"385 286 LINE",
"233 286 LINE SMOOTH",
"103 286 OFFCURVE",
"43 225 OFFCURVE",
"43 135 CURVE SMOOTH",
"43 38 OFFCURVE",
"120 -10 OFFCURVE",
"211 -10 CURVE SMOOTH"
);
},
{
closed = 1;
nodes = (
"178 68 OFFCURVE",
"144 88 OFFCURVE",
"144 137 CURVE SMOOTH",
"144 188 OFFCURVE",
"171 212 OFFCURVE",
"235 212 CURVE SMOOTH",
"385 212 LINE",
"385 129 LINE",
"354 92 OFFCURVE",
"305 68 OFFCURVE",
"240 68 CURVE SMOOTH"
);
},
{
closed = 1;
nodes = (
"458 -220 OFFCURVE",
"489 -215 OFFCURVE",
"506 -207 CURVE",
"506 -141 LINE",
"494 -148 OFFCURVE",
"473 -152 OFFCURVE",
"456 -152 CURVE SMOOTH",
"426 -152 OFFCURVE",
"409 -143 OFFCURVE",
"409 -112 CURVE SMOOTH",
"409 -72 OFFCURVE",
"435 -33 OFFCURVE",
"478 0 CURVE",
"396 0 LINE",
"351 -31 OFFCURVE",
"322 -80 OFFCURVE",
"322 -131 CURVE SMOOTH",
"322 -193 OFFCURVE",
"372 -220 OFFCURVE",
"429 -220 CURVE SMOOTH"
);
}
);
width = 556;
}
);
leftKerningGroup = a;
note = aogonek;
rightKerningGroup = a;
unicode = 0105;
},
{
glyphname = aring;
lastChange = "2015-10-24 17:36:10 +0000";
layers = (
{
layerId = "9971B372-118E-4AC7-9904-5BD2E656A77C";
name = Regular;
paths = (
{
closed = 1;
nodes = (
"296 -10 OFFCURVE",
"350 10 OFFCURVE",
"389 48 CURVE",
"396 0 LINE",
"489 0 LINE",
"489 305 LINE SMOOTH",
"489 431 OFFCURVE",
"414 484 OFFCURVE",
"276 484 CURVE SMOOTH",
"205 484 OFFCURVE",
"142 472 OFFCURVE",
"99 455 CURVE",
"99 374 LINE",
"146 390 OFFCURVE",
"201 399 OFFCURVE",
"256 399 CURVE SMOOTH",
"361 399 OFFCURVE",
"385 374 OFFCURVE",
"385 307 CURVE SMOOTH",
"385 286 LINE",
"233 286 LINE SMOOTH",
"103 286 OFFCURVE",
"43 225 OFFCURVE",
"43 135 CURVE SMOOTH",
"43 38 OFFCURVE",
"120 -10 OFFCURVE",
"211 -10 CURVE SMOOTH"
);
},
{
closed = 1;
nodes = (
"178 68 OFFCURVE",
"144 88 OFFCURVE",
"144 137 CURVE SMOOTH",
"144 188 OFFCURVE",
"171 212 OFFCURVE",
"235 212 CURVE SMOOTH",
"385 212 LINE",
"385 129 LINE",
"354 92 OFFCURVE",
"305 68 OFFCURVE",
"240 68 CURVE SMOOTH"
);
},
{
closed = 1;
nodes = (
"363 521 OFFCURVE",
"409 571 OFFCURVE",
"409 634 CURVE SMOOTH",
"409 698 OFFCURVE",
"363 748 OFFCURVE",
"291 748 CURVE SMOOTH",
"221 748 OFFCURVE",
"175 698 OFFCURVE",
"175 634 CURVE SMOOTH",
"175 571 OFFCURVE",
"221 521 OFFCURVE",
"291 521 CURVE SMOOTH"
);
},
{
closed = 1;
nodes = (
"256 575 OFFCURVE",
"232 601 OFFCURVE",
"232 634 CURVE SMOOTH",
"232 667 OFFCURVE",
"256 693 OFFCURVE",
"291 693 CURVE SMOOTH",
"328 693 OFFCURVE",
"352 667 OFFCURVE",
"352 634 CURVE SMOOTH",
"352 601 OFFCURVE",
"328 575 OFFCURVE",
"291 575 CURVE SMOOTH"
);
}
);
width = 547;
}
);
leftKerningGroup = a;
note = aring;
rightKerningGroup = a;
unicode = 00E5;
},
{
glyphname = aringacute;
lastChange = "2015-10-24 17:36:10 +0000";
layers = (
{
layerId = "9971B372-118E-4AC7-9904-5BD2E656A77C";
name = Regular;
paths = (
{
closed = 1;
nodes = (
"296 -10 OFFCURVE",
"350 10 OFFCURVE",
"389 48 CURVE",
"396 0 LINE",
"489 0 LINE",
"489 305 LINE SMOOTH",
"489 431 OFFCURVE",
"414 484 OFFCURVE",
"276 484 CURVE SMOOTH",
"205 484 OFFCURVE",
"142 472 OFFCURVE",
"99 455 CURVE",
"99 374 LINE",
"146 390 OFFCURVE",
"201 399 OFFCURVE",
"256 399 CURVE SMOOTH",
"361 399 OFFCURVE",
"385 374 OFFCURVE",
"385 307 CURVE SMOOTH",
"385 286 LINE",
"233 286 LINE SMOOTH",
"103 286 OFFCURVE",
"43 225 OFFCURVE",
"43 135 CURVE SMOOTH",
"43 38 OFFCURVE",
"120 -10 OFFCURVE",
"211 -10 CURVE SMOOTH"
);
},
{
closed = 1;
nodes = (
"178 68 OFFCURVE",
"144 88 OFFCURVE",
"144 137 CURVE SMOOTH",
"144 188 OFFCURVE",
"171 212 OFFCURVE",
"235 212 CURVE SMOOTH",
"385 212 LINE",
"385 129 LINE",
"354 92 OFFCURVE",
"305 68 OFFCURVE",
"240 68 CURVE SMOOTH"
);
},
{
closed = 1;
nodes = (
"354 517 OFFCURVE",
"400 567 OFFCURVE",
"400 630 CURVE SMOOTH",
"400 694 OFFCURVE",
"354 744 OFFCURVE",
"282 744 CURVE SMOOTH",
"212 744 OFFCURVE",
"166 694 OFFCURVE",
"166 630 CURVE SMOOTH",
"166 567 OFFCURVE",
"212 517 OFFCURVE",
"282 517 CURVE SMOOTH"
);
},
{
closed = 1;
nodes = (
"247 571 OFFCURVE",
"223 597 OFFCURVE",
"223 630 CURVE SMOOTH",
"223 663 OFFCURVE",
"247 689 OFFCURVE",
"282 689 CURVE SMOOTH",
"319 689 OFFCURVE",
"343 663 OFFCURVE",
"343 630 CURVE SMOOTH",
"343 597 OFFCURVE",
"319 571 OFFCURVE",
"282 571 CURVE SMOOTH"
);
},
{
closed = 1;
nodes = (
"322 784 LINE",
"406 925 LINE",
"310 925 LINE",
"235 784 LINE"
);
}
);
width = 547;
}
);
leftKerningGroup = a;
note = aringacute;
rightKerningGroup = a;
unicode = 01FB;
},
{
glyphname = atilde;
lastChange = "2015-10-24 17:36:11 +0000";
layers = (
{
layerId = "9971B372-118E-4AC7-9904-5BD2E656A77C";
name = Regular;
paths = (
{
closed = 1;
nodes = (
"296 -10 OFFCURVE",
"350 10 OFFCURVE",
"389 48 CURVE",
"396 0 LINE",
"489 0 LINE",
"489 305 LINE SMOOTH",
"489 431 OFFCURVE",
"414 484 OFFCURVE",
"276 484 CURVE SMOOTH",
"205 484 OFFCURVE",
"142 472 OFFCURVE",
"99 455 CURVE",
"99 374 LINE",
"146 390 OFFCURVE",
"201 399 OFFCURVE",
"256 399 CURVE SMOOTH",
"361 399 OFFCURVE",
"385 374 OFFCURVE",
"385 307 CURVE SMOOTH",
"385 286 LINE",
"233 286 LINE SMOOTH",
"103 286 OFFCURVE",
"43 225 OFFCURVE",
"43 135 CURVE SMOOTH",
"43 38 OFFCURVE",
"120 -10 OFFCURVE",
"211 -10 CURVE SMOOTH"
);
},
{
closed = 1;
nodes = (
"178 68 OFFCURVE",
"144 88 OFFCURVE",
"144 137 CURVE SMOOTH",
"144 188 OFFCURVE",
"171 212 OFFCURVE",
"235 212 CURVE SMOOTH",
"385 212 LINE",
"385 129 LINE",
"354 92 OFFCURVE",
"305 68 OFFCURVE",
"240 68 CURVE SMOOTH"
);
},
{
closed = 1;
nodes = (
"404 537 OFFCURVE",
"434 550 OFFCURVE",
"447 568 CURVE",
"447 648 LINE",
"429 624 OFFCURVE",
"403 611 OFFCURVE",
"367 611 CURVE SMOOTH",
"314 611 OFFCURVE",
"272 650 OFFCURVE",
"214 650 CURVE SMOOTH",
"181 650 OFFCURVE",
"146 638 OFFCURVE",
"129 620 CURVE",
"129 540 LINE",
"152 566 OFFCURVE",
"181 576 OFFCURVE",
"216 576 CURVE SMOOTH",
"262 576 OFFCURVE",
"313 537 OFFCURVE",
"368 537 CURVE SMOOTH"
);
}
);
width = 547;
}
);
leftKerningGroup = a;
note = atilde;
rightKerningGroup = a;
unicode = 00E3;
},
{
glyphname = ae;
lastChange = "2015-10-24 17:36:09 +0000";
layers = (
{
layerId = "9971B372-118E-4AC7-9904-5BD2E656A77C";
name = Regular;
paths = (
{
closed = 1;
nodes = (
"339 -10 OFFCURVE",
"398 26 OFFCURVE",
"446 73 CURVE",
"487 17 OFFCURVE",
"560 -10 OFFCURVE",
"647 -10 CURVE SMOOTH",
"710 -10 OFFCURVE",
"766 -1 OFFCURVE",
"809 18 CURVE",
"809 97 LINE",
"771 81 OFFCURVE",
"717 72 OFFCURVE",
"669 72 CURVE SMOOTH",
"554 72 OFFCURVE",
"502 102 OFFCURVE",
"491 194 CURVE",
"838 194 LINE",
"838 282 LINE SMOOTH",
"838 400 OFFCURVE",
"765 484 OFFCURVE",
"621 484 CURVE SMOOTH",
"546 484 OFFCURVE",
"487 460 OFFCURVE",
"449 421 CURVE",
"415 463 OFFCURVE",
"357 484 OFFCURVE",
"276 484 CURVE SMOOTH",
"205 484 OFFCURVE",
"142 472 OFFCURVE",
"99 455 CURVE",
"99 374 LINE",
"146 390 OFFCURVE",
"201 399 OFFCURVE",
"256 399 CURVE SMOOTH",
"361 399 OFFCURVE",
"385 374 OFFCURVE",
"385 307 CURVE SMOOTH",
"385 286 LINE",
"233 286 LINE SMOOTH",
"103 286 OFFCURVE",
"43 225 OFFCURVE",
"43 135 CURVE SMOOTH",
"43 38 OFFCURVE",
"122 -10 OFFCURVE",
"217 -10 CURVE SMOOTH"
);
},
{
closed = 1;
nodes = (
"178 68 OFFCURVE",
"144 88 OFFCURVE",
"144 137 CURVE SMOOTH",
"144 188 OFFCURVE",
"171 212 OFFCURVE",
"235 212 CURVE SMOOTH",
"385 212 LINE",
"385 127 LINE",
"352 90 OFFCURVE",
"309 68 OFFCURVE",
"240 68 CURVE SMOOTH"
);
},
{
closed = 1;
nodes = (
"491 359 OFFCURVE",
"523 402 OFFCURVE",
"624 402 CURVE SMOOTH",
"709 402 OFFCURVE",
"742 363 OFFCURVE",
"742 298 CURVE SMOOTH",
"742 265 LINE",
"491 265 LINE"
);
}
);
width = 881;
}
);
leftKerningGroup = a;
note = ae;
rightKerningGroup = e;
unicode = 00E6;
},
